<svg viewBox="0 0 800 800" xmlns="http://www.w3.org/2000/svg"><path d="M482.74689594915895,584.4253697109946 L480.2137087496745,583.182192147368 M480.2137087496745,583.182192147368 L477.69856005958894,582.2148222905292 M477.69856005958894,582.2148222905292 L475.2225180825689,581.5309369524991 M475.2225180825689,581.5309369524991 L472.8062530361688,581.1357931202397 M472.8062530361688,581.1357931202397 L470.46985788408057,581.0321852480031 M470.46985788408057,581.0321852480031 L468.23268199328066,581.2204495774007 M468.23268199328066,581.2204495774007 L466.11317030597814,581.6984610228403 M466.11317030597814,581.6984610228403 L464.1287173766578,582.4616948584189 M464.1287173766578,582.4616948584189 L462.29552145939886,583.5032582464053 M462.29552145939886,583.5032582464053 L460.6284677398128,584.813986374534 M460.6284677398128,584.813986374534 L459.14100681164604,586.3825163416457 M459.14100681164604,586.3825163416457 L457.8450626975838,588.1954181712346 M457.8450626975838,588.1954181712346 L456.750940776369,590.2373026455108 M456.750940776369,590.2373026455108 L455.8672598512522,592.4909709143974 M455.8672598512522,592.4909709143974 L455.20090274448256,594.9375663013574 M455.20090274448256,594.9375663013574 L454.7569555701492,597.556726544494 M454.7569555701492,597.556726544494 L454.5386997997659,600.3267670780189 M454.5386997997659,600.3267670780189 L454.5475852419987,603.2248524151611 M454.5475852419987,603.2248524151611 L454.7832324338931,606.2271826412353 M454.7832324338931,606.2271826412353 L455.24344613769557,609.3091842354762 M455.24344613769557,609.3091842354762 L455.9242462830375,612.4457049856586 M455.9242462830375,612.4457049856586 L456.8198959658109,615.6112061590121 M456.8198959658109,615.6112061590121 L457.92296201592654,618.7799627420774 M457.92296201592654,618.7799627420774 L459.2243701371672,621.9262565839975 M459.2243701371672,621.9262565839975 L460.71348128487807,625.0245779925431 M460.71348128487807,625.0245779925431 L462.3781718571603,628.0498117661986 M462.3781718571603,628.0498117661986 L464.2049332973581,630.9774272283632 M464.2049332973581,630.9774272283632 L466.1789677387979,633.7836772389333 M466.1789677387979,633.7836772389333 L468.28430347468117,636.4457557091758 M468.28430347468117,636.4457557091758 L470.50391357626387,638.9419920884359 M470.50391357626387,638.9419920884359 L472.8198440019501,641.2520109574194 M472.8198440019501,641.2520109574194 L475.2133484438386,643.3568862202676 M475.2133484438386,643.3568862202676 L477.6650280656782,645.2392992287109 M477.6650280656782,645.2392992287109 L480.15497850994785,646.883668775452 M480.15497850994785,646.883668775452 L482.6629417867562,648.2762899786791 M482.6629417867562,648.2762899786791 L485.168461599507,649.4054424844087 M485.168461599507,649.4054424844087 L487.6510421215449,650.2614932736096 M487.6510421215449,650.2614932736096 L490.09030843097986,650.8369926188694 M490.09030843097986,650.8369926188694 L492.46616955751284,651.1267374286391 M492.46616955751284,651.1267374286391 L494.7589807982345,651.1278380570399 M494.7589807982345,651.1278380570399 L496.9497041013271,650.8397486230914 M496.9497041013271,650.8397486230914 L499.02006697965663,650.2642938359027 M499.02006697965663,650.2642938359027 L500.95271789881605,649.4056801976842 M500.95271789881605,649.4056801976842 L502.73137593395876,648.2704586195773 M502.73137593395876,648.2704586195773 L504.3409771427253,646.8675153432874 M504.3409771427253,646.8675153432874 L505.7678035881574,645.2079949373114 M505.7678035881574,645.2079949373114 L506.99961560140224,643.3052308222642 M506.99961560140224,643.3052308222642 L508.02576344881214,641.1746523230834 M508.02576344881214,641.1746523230834 L508.83729389267404,638.8336661159469 M508.83729389267404,638.8336661159469 L509.4270325179644,636.3015165654247 M509.4270325179644,636.3015165654247 L509.78966836318597,633.5991394074589 M509.78966836318597,633.5991394074589 L509.9218017796126,630.7489822309947 M509.9218017796126,630.7489822309947 L509.82199092324623,627.7748210205192 M509.82199092324623,627.7748210205192 L509.4907759773884,624.7015577988357 M509.4907759773884,624.7015577988357 L508.9306872733717,621.5550075764628 M508.9306872733717,621.5550075764628 L508.14621864331076,618.3616662135859 M508.14621864331076,618.3616662135859 L507.1438156880574,615.1484870148603 M507.1438156880574,615.1484870148603 L505.93180587747355,611.9426306036235 M505.93180587747355,611.9426306036235 L504.5203362038366,608.7712295305491 M504.5203362038366,608.7712295305491 L502.92128921535044,605.6611376681129 M502.92128921535044,605.6611376681129 L501.14817099362625,602.6386983534605 M501.14817099362625,602.6386983534605 L499.2159987768777,599.7294946952449 M499.2159987768777,599.7294946952449 L497.1411563660802,596.9581295397937 M497.1411563660802,596.9581295397937 L494.9412556429407,594.3479949156064 M494.9412556429407,594.3479949156064 L492.63496793984626,591.9210798360814 M492.63496793984626,591.9210798360814 L490.2418589891909,589.6977551080611 M490.2418589891909,589.6977551080611 L487.78220965116105,587.6966122019081 M487.78220965116105,587.6966122019081 L485.27683544580003,585.9342950622922 M485.27683544580003,585.9342950622922 L482.74689594915895,584.4253697109946 M482.74689594915895,584.4253697109946 L359.0341069243909,655.1012250534703 M342.1383550606429,664.7535958717012 L340.8809574854752,663.9437341315381 M340.8809574854752,663.9437341315381 L339.9059907888848,663.1268026535579 M339.9059907888848,663.1268026535579 L339.1912484110984,662.2815157629814 M339.1912484110984,662.2815157629814 L338.7703054785095,661.4262161490464 M338.7703054785095,661.4262161490464 L338.6571534804612,660.5637442238396 M338.6571534804612,660.5637442238396 L338.86085160224144,659.6987959323839 M338.86085160224144,659.6987959323839 L339.3791221868716,658.8379054185384 M339.3791221868716,658.8379054185384 L340.19691052586575,657.9890003071835 M340.19691052586575,657.9890003071835 L341.28946045176434,657.161932175865 M341.28946045176434,657.161932175865 L342.2636957045427,656.5678383752534 M342.2636957045427,656.5678383752534 L343.60837644862124,655.8831763672672 M343.60837644862124,655.8831763672672 L345.1148769775362,655.250534536636 M345.1148769775362,655.250534536636 L346.47611178302407,654.7780503937788 M346.47611178302407,654.7780503937788 L348.21272000805106,654.2984075250399 M348.21272000805106,654.2984075250399 L350.02458032102567,653.9423092393445 M350.02458032102567,653.9423092393445 L351.86441952281325,653.7394162120487 M351.86441952281325,653.7394162120487 L353.67742005738114,653.7145005724803 M353.67742005738114,653.7145005724803 L355.4096628109343,653.8823829392647 M355.4096628109343,653.8823829392647 L357.0124985579032,654.2457240505427 M357.0124985579032,654.2457240505427 L358.0604369920068,654.6220529762986 M358.0604369920068,654.6220529762986 L359.0341069243909,655.1012250534703 M342.1383550606429,664.7535958717012 L250.88430329996874,716.8861054731215 M250.88430329996874,716.8861054731215 L253.41998313424307,718.5241640107599 M253.41998313424307,718.5241640107599 L255.9411758761135,720.4206997337799 M255.9411758761135,720.4206997337799 L258.426582869029,722.5600218148237 M258.426582869029,722.5600218148237 L260.8551624605107,724.9243201637598 M260.8551624605107,724.9243201637598 L263.2063224813614,727.4938060898584 M263.2063224813614,727.4938060898584 L265.46010425836664,730.2468914758892 M265.46010425836664,730.2468914758892 L267.597365213459,733.1603608839465 M267.597365213459,733.1603608839465 L269.59994953539496,736.2095986401725 M269.59994953539496,736.2095986401725 L271.4508614600996,739.3687926775258 M271.4508614600996,739.3687926775258 L273.13441036312133,742.6111766348675 M273.13441036312133,742.6111766348675 L274.6363613526687,745.9092615059038 M274.6363613526687,745.9092615059038 L275.9440552687307,749.2350964860622 M275.9440552687307,749.2350964860622 L277.04652752951586,752.5605115627051 M277.04652752951586,752.5605115627051 L277.93460002180336,755.8573782079751 M277.93460002180336,755.8573782079751 L278.60095106902594,759.0978536193253 M278.60095106902594,759.0978536193253 L279.04019318991675,762.2546402102207 M279.04019318991675,762.2546402102207 L279.2488926812887,765.3012154325355 M279.2488926812887,765.3012154325355 L279.2256039985277,768.21207092191 M279.2256039985277,768.21207092191 L278.9708692086261,770.9629306132997 M278.9708692086261,770.9629306132997 L278.48720114717304,773.5309571013416 M278.48720114717304,773.5309571013416 L277.77904395243536,775.894937610579 M277.77904395243536,775.894937610579 L276.85273204894787,778.035465668945 M276.85273204894787,778.035465668945 L275.7164118168983,779.9350872222827 M275.7164118168983,779.9350872222827 L274.379965267562,781.5784398364614 M274.379965267562,781.5784398364614 L272.85490920482727,782.952369218527 M272.85490920482727,782.952369218527 L271.1542884807023,784.0460192098668 M271.1542884807023,784.0460192098668 L269.2925482709926,784.8508968786804 M269.2925482709926,784.8508968786804 L267.2854099099674,785.3609453531288 M267.2854099099674,785.3609453531288 L265.1497273099857,785.5725464868573 M265.1497273099857,785.5725464868573 L262.9033413577633,785.484552340151 M262.9033413577633,785.484552340151 L260.56492702927125,785.0982667851147 M260.56492702927125,785.0982667851147 L258.15383662020986,784.4174110669508 M258.15383662020986,784.4174110669508 L255.68994156039298,783.4480858320321 M255.68994156039298,783.4480858320321 L253.19347112155378,782.198695893834 M253.19347112155378,782.198695893834 L250.68485068090024,780.6798786631327 M250.68485068090024,780.6798786631327 L248.1845414523283,778.9043994979728 M248.1845414523283,778.9043994979728 L245.71288169765808,776.8870402928511 M245.71288169765808,776.8870402928511 L243.2899312092938,774.6444828701319 M243.2899312092938,774.6444828701319 L240.9353180799688,772.1951613199557 M240.9353180799688,772.1951613199557 L238.66809063375274,769.5591238016734 M238.66809063375274,769.5591238016734 L236.5065754425567,766.7578660330676 M236.5065754425567,766.7578660330676 L234.46824027626144,763.8141691456882 M234.46824027626144,763.8141691456882 L232.56956341956976,760.7519324135475 M232.56956341956976,760.7519324135475 L230.82591091885115,757.5959707777366 M230.82591091885115,757.5959707777366 L229.25141822576938,754.3718503841952 M229.25141822576938,754.3718503841952 L227.85888959869152,751.105682495075 M227.85888959869152,751.105682495075 L226.6596938540781,747.8239264583581 M226.6596938540781,747.8239264583581 L225.6636791491918,744.5531974940009 M225.6636791491918,744.5531974940009 L224.87909077810292,741.3200586694719 M224.87909077810292,741.3200586694719 L224.3125099386541,738.1508222438888 M224.3125099386541,738.1508222438888 L223.96878677578394,735.0713434521788 M223.96878677578394,735.0713434521788 L223.8510054774883,732.1068236305618 M223.8510054774883,732.1068236305618 L223.96044625416062,729.2816102745726 M223.96044625416062,729.2816102745726 L224.29656443269357,726.619001763098 M224.29656443269357,726.619001763098 L224.8569804825117,724.1410567383864 M224.8569804825117,724.1410567383864 L225.6374993242037,721.8684198417699 M225.6374993242037,721.8684198417699 L226.6321104377111,719.8201343713008 M226.6321104377111,719.8201343713008 L227.83304079550248,718.0134884591175 M227.83304079550248,718.0134884591175 L229.23079671403752,716.4638610890611 M229.23079671403752,716.4638610890611 L230.81422394421634,715.1845708786524 M230.81422394421634,715.1845708786524 L232.57059301830412,714.1867683472803 M232.57059301830412,714.1867683472803 L234.4856837022287,713.4793043425485 M234.4856837022287,713.4793043425485 L236.5439006262328,713.0686579201536 M236.5439006262328,713.0686579201536 L238.72838353747602,712.9588412220999 M238.72838353747602,712.9588412220999 L241.02114866297967,713.1513715233932 M241.02114866297967,713.1513715233932 L243.40322913952997,713.6452124375041 M243.40322913952997,713.6452124375041 L245.85483259896563,714.4367820375321 M245.85483259896563,714.4367820375321 L248.35550404140565,715.5199536657674 M248.35550404140565,715.5199536657674 L250.88430329996874,716.8861054731215 M359.0341069243909,655.1012250534703 L360.2929193390265,655.9844267601128 M360.2929193390265,655.9844267601128 L361.2718348875042,657.0159902713825 M361.2718348875042,657.0159902713825 L361.9927713440228,658.2027969326506 M361.9927713440228,658.2027969326506 L362.4215090960763,659.4926933088253 M362.4215090960763,659.4926933088253 L362.5432965529684,660.8419380660533 M362.5432965529684,660.8419380660533 L362.3481691981472,662.1954492312206 M362.3481691981472,662.1954492312206 L361.8374621394298,663.4923416654639 M361.8374621394298,663.4923416654639 L361.02539693348547,664.6750836414448 M361.02539693348547,664.6750836414448 L359.9361227942142,665.696488645781 M359.9361227942142,665.696488645781 L358.9625305072824,666.3315937780574 M358.9625305072824,666.3315937780574 L357.616512875664,666.9431676766433 M357.616512875664,666.9431676766433 L356.10643966515227,667.3731091265379 M356.10643966515227,667.3731091265379 L354.740693776714,667.5883806928148 M354.740693776714,667.5883806928148 L352.99718375507996,667.6747614980293 M352.99718375507996,667.6747614980293 L351.1773657049496,667.578841953485 M351.1773657049496,667.578841953485 L349.3292607874468,667.3142445787142 M349.3292607874468,667.3142445787142 L347.50852097536335,666.9030361073967 M347.50852097536335,666.9030361073967 L345.76983792336875,666.3730562393984 M345.76983792336875,666.3730562393984 L344.1624703521287,665.754294225489 M344.1624703521287,665.754294225489 L343.1126677410196,665.2716438562747 M343.1126677410196,665.2716438562747 L342.1383550606429,664.7535958717012 M359.0341069243909,655.1012250534703 L359.8875812237827,31.197343361535786 M359.8875812237827,31.197343361535786 L359.5660920822546,31.017354777968876 M359.5660920822546,31.017354777968876 L359.25841408794446,30.78010389534336 M359.25841408794446,30.78010389534336 L358.97686630734387,30.501119342799143 M358.97686630734387,30.501119342799143 L358.7318536401037,30.19705113510429 M358.7318536401037,30.19705113510429 L358.52998515985615,29.884269132752706 M358.52998515985615,29.884269132752706 L358.3688161901157,29.567179997245262 M358.3688161901157,29.567179997245262 L358.2473279047258,29.249718329904226 M358.2473279047258,29.249718329904226 L358.16511016077436,28.9358714434004 M358.16511016077436,28.9358714434004 L358.1217518858715,28.62890088255176 M358.1217518858715,28.62890088255176 L358.1170283672362,28.331922583814617 M358.1170283672362,28.331922583814617 L358.1509216890934,28.048505410760527 M358.1509216890934,28.048505410760527 L358.2235954381463,27.78230432026737 M358.2235954381463,27.78230432026737 L358.33542705945416,27.53790136281259 M358.33542705945416,27.53790136281259 L358.48684551148654,27.321041376579615 M358.48684551148654,27.321041376579615 L358.67832879221334,27.139091275829287 M358.67832879221334,27.139091275829287 L358.9130550673838,27.000160747290693 M358.9130550673838,27.000160747290693 L359.1865499650287,26.92006086922072 M359.1865499650287,26.92006086922072 L359.4890250889755,26.913325907586227 M359.4890250889755,26.913325907586227 L359.6894029259399,26.951844358589256 M359.6894029259399,26.951844358589256 L359.8932875514481,27.02592310530258 M359.8932875514481,27.02592310530258 L359.9081568708142,16.156203797701096 M359.9081568708142,16.156203797701096 L361.3166768182991,16.903022915632846 M361.3166768182991,16.903022915632846 L362.4341200118125,17.744325565873055 M362.4341200118125,17.744325565873055 L363.22979990195904,18.65733622930884 M363.22979990195904,18.65733622930884 L363.6816921235753,19.617284396668992 M363.6816921235753,19.617284396668992 L363.7770712390145,20.598065496786603 M363.7770712390145,20.598065496786603 L363.5129000778494,21.57294306959136 M363.5129000778494,21.57294306959136 L362.8959598715856,22.515277724795737 M362.8959598715856,22.515277724795737 L361.9427107429874,23.39925753449927 M361.9427107429874,23.39925753449927 L360.67888555605543,24.200615237017473 M360.67888555605543,24.200615237017473 L359.138812943598,24.897304495636263 M359.138812943598,24.897304495636263 L357.3645004804392,25.47012366199931 M357.3645004804392,25.47012366199931 L355.404489633088,25.903260876394143 M355.404489633088,25.903260876394143 L353.31251171650763,26.18474413978379 M353.31251171650763,26.18474413978379 L351.14599857757827,26.306787066376955 M351.14599857757827,26.306787066376955 L348.96447246972355,26.266011886939737 M348.96447246972355,26.266011886939737 L346.8278788842758,26.06354720994989 M346.8278788842758,26.06354720994989 L344.7948999781258,25.704995389226838 M344.7948999781258,25.704995389226838 L342.92131255395395,25.200271382448932 M342.92131255395395,25.200271382448932 L341.25843192219105,24.5633169052046 M341.25843192219105,24.5633169052046 L339.8516873138474,23.811701890945415 M339.8516873138474,23.811701890945415 L338.73937768452595,22.9661230612694 M338.73937768452595,22.9661230612694 L337.95163327302424,22.04981932341832 M337.95163327302424,22.04981932341832 L337.50961851487756,21.087918037021836 M337.50961851487756,21.087918037021836 L337.42498848152513,20.106735420610335 M337.42498848152513,20.106735420610335 L337.69961551800094,19.133051444455646 M337.69961551800094,19.133051444455646 L338.32558534818554,18.193376156056956 M338.32558534818554,18.193376156056956 L339.285459349294,17.313233302389108 M339.285459349294,17.313233302389108 L340.5527867574636,16.516474359533845 M340.5527867574636,16.516474359533845 L342.0928594027591,15.824647316943583 M342.0928594027591,15.824647316943583 L343.86366969650777,15.256426926050267 M343.86366969650777,15.256426926050267 L345.81705568747117,14.827126699490691 M345.81705568747117,14.827126699490691 L347.90000395374915,14.548302829299928 M347.90000395374915,14.548302829299928 L350.0560611596074,14.427453513142723 M350.0560611596074,14.427453513142723 L352.2268381205951,14.4678271717479 M352.2268381205951,14.4678271717479 L354.3535541980921,14.668338708114106 M354.3535541980921,14.668338708114106 L356.3785976201739,15.02359742399949 M356.3785976201739,15.02359742399949 L358.24705151607503,15.524045227271927 M358.24705151607503,15.524045227271927 L359.9081568708142,16.156203797701096 M359.8932875514481,27.02592310530258 L360.20428956273753,27.21067607144289 M360.20428956273753,27.21067607144289 L360.48309747796924,27.461176518757725 M360.48309747796924,27.461176518757725 L360.7233622918065,27.759150111952636 M360.7233622918065,27.759150111952636 L360.9216548262006,28.08473390434051 M360.9216548262006,28.08473390434051 L361.0778765606983,28.41855599830626 M361.0778765606983,28.41855599830626 L361.198138222857,28.754517055190604 M361.198138222857,28.754517055190604 L361.28622092063137,29.087406387410056 M361.28622092063137,29.087406387410056 L361.344555491998,29.412302207536527 M361.344555491998,29.412302207536527 L361.3748178924888,29.725356685732663 M361.3748178924888,29.725356685732663 L361.3778840131025,30.02315029012459 M361.3778840131025,30.02315029012459 L361.35385755614453,30.30207092000319 M361.35385755614453,30.30207092000319 L361.30209254433043,30.55868207283754 M361.30209254433043,30.55868207283754 L361.22113649331715,30.78889312792876 M361.22113649331715,30.78889312792876 L361.10877388306625,30.987778511414717 M361.10877388306625,30.987778511414717 L360.96191336054613,31.14917188859374 M360.96191336054613,31.14917188859374 L360.77424469419356,31.266403342100375 M360.77424469419356,31.266403342100375 L360.5443213460244,31.32638859850988 M360.5443213460244,31.32638859850988 L360.27489393857,31.317838886137338 M360.27489393857,31.317838886137338 L360.08700454865004,31.273472270945717 M360.08700454865004,31.273472270945717 L359.8875812237827,31.197343361535786 M341.27340601954313,35.457758865152755 L341.59527321239193,35.63873524442556 M341.59527321239193,35.63873524442556 L341.9036269437198,35.87717569767494 M341.9036269437198,35.87717569767494 L342.18604939382357,36.15747653912598 M342.18604939382357,36.15747653912598 L342.43203417521056,36.46290334176189 M342.43203417521056,36.46290334176189 L342.6348829019753,36.777006153393245 M342.6348829019753,36.777006153393245 L342.7970033304831,37.09535304064684 M342.7970033304831,37.09535304064684 L342.91938930774865,37.413986153690075 M342.91938930774865,37.413986153690075 L343.00243410062836,37.72889625693 M343.00243410062836,37.72889625693 L343.0465406716595,38.036804295909974 M343.0465406716595,38.036804295909974 L343.05193149833894,38.33457881165134 M343.05193149833894,38.33457881165134 L343.0186260231756,38.61863555403863 M343.0186260231756,38.61863555403863 L342.94646643506536,38.88530523524139 M342.94646643506536,38.88530523524139 L342.83508336925246,39.12999043041066 M342.83508336925246,39.12999043041066 L342.6840580745142,39.3469301662397 M342.6840580745142,39.3469301662397 L342.4929241400003,39.52874044491716 M342.4929241400003,39.52874044491716 L342.2585194284456,39.6672886595332 M342.2585194284456,39.6672886595332 L341.98532249555745,39.74675252969041 M341.98532249555745,39.74675252969041 L341.68312104081554,39.75261368402141 M341.68312104081554,39.75261368402141 L341.3638733823495,39.67404895040306 M341.3638733823495,39.67404895040306 L341.0468661226277,39.50836390571351 M341.0468661226277,39.50836390571351 L340.75897489396567,39.27222459218967 M340.75897489396567,39.27222459218967 L340.5081342889462,38.98365562475601 M340.5081342889462,38.98365562475601 L340.2984967646207,38.66226424547085 M340.2984967646207,38.66226424547085 L340.1313618348262,38.32845297749941 M340.1313618348262,38.32845297749941 L340.00173493298536,37.991843789236896 M340.00173493298536,37.991843789236896 L339.9049115071167,37.65689361326827 M339.9049115071167,37.65689361326827 L339.83828305535036,37.328782039463135 M339.83828305535036,37.328782039463135 L339.7999815819952,37.011746890954214 M339.7999815819952,37.011746890954214 L339.7889300908826,36.709070030420435 M339.7889300908826,36.709070030420435 L339.8048526247552,36.42434246753555 M339.8048526247552,36.42434246753555 L339.8482081717366,36.1610764138718 M339.8482081717366,36.1610764138718 L339.9202657107864,35.923095310505346 M339.9202657107864,35.923095310505346 L340.0230782287009,35.71513760576943 M340.0230782287009,35.71513760576943 L340.1594342113623,35.54307091228736 M340.1594342113623,35.54307091228736 L340.33496865441896,35.413124882375996 M340.33496865441896,35.413124882375996 L340.5532036930674,35.33695644654881 M340.5532036930674,35.33695644654881 L340.8121853507868,35.3269582135639 M340.8121853507868,35.3269582135639 L341.03395688601836,35.36928501898808 M341.03395688601836,35.36928501898808 L341.27340601954313,35.457758865152755 M359.8932875514481,27.02592310530258 L356.4731147344855,28.57471574469264 M356.4731147344855,28.57471574469264 L356.1519585633394,28.475771994394677 M356.1519585633394,28.475771994394677 L355.839104327044,28.463783085230943 M355.839104327044,28.463783085230943 L355.5481293784388,28.528205608456915 M355.5481293784388,28.528205608456915 L355.2911552481413,28.654783760100372 M355.2911552481413,28.654783760100372 L355.07593521589246,28.827047865355098 M355.07593521589246,28.827047865355098 L354.9007120688637,29.035732219564352 M354.9007120688637,29.035732219564352 L354.7660050409848,29.273205403305724 M354.7660050409848,29.273205403305724 L354.67237613315484,29.533057069384995 M354.67237613315484,29.533057069384995 L354.6201105949574,29.810356206454458 M354.6201105949574,29.810356206454458 L354.60939486870706,30.101102564929306 M354.60939486870706,30.101102564929306 L354.6402975148047,30.401236383936748 M354.6402975148047,30.401236383936748 L354.7126530655469,30.70742067548406 M354.7126530655469,30.70742067548406 L354.8262409487986,31.016587257249512 M354.8262409487986,31.016587257249512 L354.98065950296376,31.325421018706265 M354.98065950296376,31.325421018706265 L355.17513417798256,31.629737371061765 M355.17513417798256,31.629737371061765 L355.4107347676634,31.9272851161885 M355.4107347676634,31.9272851161885 L355.68544829951895,32.209754430936755 M355.68544829951895,32.209754430936755 L355.988470945004,32.46100059726723 M355.988470945004,32.46100059726723 L356.3068503178235,32.666151365017754 M356.3068503178235,32.666151365017754 L356.62396935511737,32.81004900145467 M356.62396935511737,32.81004900145467 L356.91094669313367,32.87963821192022 M356.91094669313367,32.87963821192022 L357.1584722084629,32.87814692738755 M357.1584722084629,32.87814692738755 L357.3636306553736,32.81331493948096 M357.3636306553736,32.81331493948096 L357.5263034736522,32.69629100459633 M357.5263034736522,32.69629100459633 L357.6519608499985,32.53702585157407 M357.6519608499985,32.53702585157407 L357.746563315954,32.341007163005884 M357.746563315954,32.341007163005884 L357.8134442476829,32.113528013678774 M357.8134442476829,32.113528013678774 L357.8550559531368,31.858935645062957 M357.8550559531368,31.858935645062957 L357.8729375823477,31.580849082675854 M357.8729375823477,31.580849082675854 L357.8677021823398,31.282814252584558 M357.8677021823398,31.282814252584558 L357.83915581863295,30.968841347514285 M357.83915581863295,30.968841347514285 L357.7862303256043,30.64248893742638 M357.7862303256043,30.64248893742638 L357.70692887111386,30.308024070595366 M357.70692887111386,30.308024070595366 L357.59835432613676,29.970757373180277 M357.59835432613676,29.970757373180277 L357.45640208038316,29.636658346060926 M357.45640208038316,29.636658346060926 L357.27377184636833,29.31084189003434 M357.27377184636833,29.31084189003434 L357.0482539526012,29.012273868551574 M357.0482539526012,29.012273868551574 L356.78124178952487,28.761266348463437 M356.78124178952487,28.761266348463437 L356.6315033119333,28.658358659172222 M356.6315033119333,28.658358659172222 L356.4731147344855,28.57471574469264 M344.7132113058523,33.90007584926866 L345.0344413772108,34.07697675970405 M345.0344413772108,34.07697675970405 L345.34749631931794,34.30745005146798 M345.34749631931794,34.30745005146798 L345.6387572387908,34.57691091947629 M345.6387572387908,34.57691091947629 L345.8960544495951,34.869800239902816 M345.8960544495951,34.869800239902816 L346.1115910127595,35.1715620137179 M346.1115910127595,35.1715620137179 L346.2871003173988,35.47952959167674 M346.2871003173988,35.47952959167674 L346.4220436254318,35.78980726933173 M346.4220436254318,35.78980726933173 L346.51584479332655,36.09860544094329 M346.51584479332655,36.09860544094329 L346.5682094598762,36.40279827783684 M346.5682094598762,36.40279827783684 L346.57894623771654,36.699349793841236 M346.57894623771654,36.699349793841236 L346.5479855244281,36.98436680335669 M346.5479855244281,36.98436680335669 L346.4754958114826,37.253948197873 M346.4754958114826,37.253948197873 L346.3617045907064,37.5036190357165 M346.3617045907064,37.5036190357165 L346.2070249898983,37.72782728333232 M346.2070249898983,37.72782728333232 L346.0122485371253,37.919344056640625 M346.0122485371253,37.919344056640625 L345.77632595405015,38.07053402492318 M345.77632595405015,38.07053402492318 L345.50130321266073,38.16800507384892 M345.50130321266073,38.16800507384892 L345.19803225309334,38.19562142236697 M345.19803225309334,38.19562142236697 L344.95880534205753,38.162685744587066 M344.95880534205753,38.162685744587066 L344.71683597684574,38.079207282501784 M344.7132113058523,33.90007584926866 L341.27340601954313,35.457758865152755 M344.71683597684574,38.079207282501784 L344.41251914817474,37.89465092104393 M344.41251914817474,37.89465092104393 L344.14515932405914,37.64362814874653 M344.14515932405914,37.64362814874653 L343.91919018869294,37.344847753124895 M343.91919018869294,37.344847753124895 L343.7360154805679,37.01869830501903 M343.7360154805679,37.01869830501903 L343.59348854058806,36.68419374081975 M343.59348854058806,36.68419374081975 L343.4843090880201,36.346494521257796 M343.4843090880201,36.346494521257796 L343.40433855564027,36.011591786334066 M343.40433855564027,36.011591786334066 L343.35067158899705,35.68483401058961 M343.35067158899705,35.68483401058961 L343.3213060517699,35.37037428205895 M343.3213060517699,35.37037428205895 L343.3151701045433,35.07181200583295 M343.3151701045433,35.07181200583295 L343.3320734922772,34.79315315846043 M343.3320734922772,34.79315315846043 L343.3726345517212,34.53794192111354 M343.3726345517212,34.53794192111354 L343.43840234962073,34.309851519385916 M343.43840234962073,34.309851519385916 L343.5318444989447,34.11313781813101 M343.5318444989447,34.11313781813101 L343.65631979094326,33.95316338498424 M343.65631979094326,33.95316338498424 L343.8177713314858,33.83536505356756 M343.8177713314858,33.83536505356756 L344.0218110086503,33.76969792350633 M344.0218110086503,33.76969792350633 L344.26844022140193,33.76743169465033 M344.26844022140193,33.76743169465033 L344.4807198540187,33.812402132861166 M344.4807198540187,33.812402132861166 L344.7132113058523,33.90007584926866 M345.25882103968036,662.9709054653648 L344.2760513613941,662.3027385681739 M344.2760513613941,662.3027385681739 L343.58665124724826,661.6091018925141 M343.58665124724826,661.6091018925141 L343.1697647081758,660.8714412725333 M343.1697647081758,660.8714412725333 L343.05752812782464,660.1183683327123 M343.05752812782464,660.1183683327123 L343.2578691725911,659.3638239783037 M343.2578691725911,659.3638239783037 L343.768011482532,658.6244509102178 M343.768011482532,658.6244509102178 L344.5708594103517,657.9204130448064 M344.5708594103517,657.9204130448064 L345.5076230109421,657.342112428541 M345.5076230109421,657.342112428541 L346.6419055501753,656.8220589486239 M346.6419055501753,656.8220589486239 L347.5656975317328,656.4979813817262 M347.5656975317328,656.4979813817262 L348.57135064708865,656.2270056484757 M348.57135064708865,656.2270056484757 L349.84065071444763,655.994736059708 M349.84065071444763,655.994736059708 L351.37660253177813,655.8744886678745 M351.37660253177813,655.8744886678745 L352.8237224046004,655.9361427163033 M352.8237224046004,655.9361427163033 L354.17912125401045,656.1797334386714 M354.17912125401045,656.1797334386714 L355.3822080100047,656.597316637973 M355.3822080100047,656.597316637973 L356.3918966205859,657.1680832492971 M356.3918966205859,657.1680832492971 L357.25683671359,657.9473153385183 M357.25683671359,657.9473153385183 L357.83549200345175,658.8400714840532 M357.83549200345175,658.8400714840532 L358.1178082302312,659.8091696353666 M358.1178082302312,659.8091696353666 L358.0914076689522,660.8069189624073 M358.0914076689522,660.8069189624073 L357.7516972795153,661.7786902144675 M357.7516972795153,661.7786902144675 L357.1072903130298,662.6678972233892 M357.1072903130298,662.6678972233892 L356.1803079759524,663.4244201147178 M356.1803079759524,663.4244201147178 L355.14938707029,663.9519118506902 M355.14938707029,663.9519118506902 L353.93085845207094,664.3296490449217 M353.93085845207094,664.3296490449217 L352.9472755665475,664.4980650885706 M352.9472755665475,664.4980650885706 L351.74078438931355,664.5746256687651 M351.74078438931355,664.5746256687651 L350.4440182800573,664.5214117143012 M350.4440182800573,664.5214117143012 L349.07483948559945,664.327541904562 M349.07483948559945,664.327541904562 L347.6624570541103,663.9808058282516 M347.6624570541103,663.9808058282516 L346.4039347288955,663.5312943721614 M346.4039347288955,663.5312943721614 L345.25882103968036,662.9709054653648 M345.25882103968036,662.9709054653648 L344.71683597684574,38.079207282501784 M344.7132113058523,33.90007584926866 L344.7037662238956,23.01019399066388 M344.7037662238956,23.01019399066388 L343.6085615211448,22.39900035539131 M343.6085615211448,22.39900035539131 L342.8196736082906,21.698643778729092 M342.8196736082906,21.698643778729092 L342.3713739551953,20.93986083952234 M342.3713739551953,20.93986083952234 L342.2829494408513,20.155893213760805 M342.2829494408513,20.155893213760805 L342.5579159743407,19.381020040051794 M342.5579159743407,19.381020040051794 L343.183922829149,18.649057567129717 M343.183922829149,18.649057567129717 L344.13335012619564,17.99188980229519 M344.13335012619564,17.99188980229519 L345.36456191972,17.43809385648285 M345.36456191972,17.43809385648285 L346.82374922643925,17.01171528581483 M346.82374922643925,17.01171528581483 L348.4472810034143,16.731244621686074 M348.4472810034143,16.731244621686074 L350.1644618667547,16.608834492298 M350.1644618667547,16.608834492298 L351.90057592688675,16.6497860950401 M351.90057592688675,16.6497860950401 L353.58009494721404,16.85232581590526 M353.58009494721404,16.85232581590526 L355.1299182399295,17.207681008984537 M355.1299182399295,17.207681008984537 L356.48251802150014,17.700448195459444 M356.48251802150014,17.700448195459444 L357.5788526694309,18.309245452124514 M357.5788526694309,18.309245452124514 L358.3709350252227,19.007620007707374 M358.3709350252227,19.007620007707374 L358.8239412725051,19.765177990894472 M358.8239412725051,19.765177990894472 L358.9177707173842,20.548889531326495 M358.9177707173842,20.548889531326495 L358.6479728933104,21.32451976907032 M358.6479728933104,21.32451976907032 L358.0260048128887,22.05812155291028 M358.0260048128887,22.05812155291028 L357.0787880160495,22.717527425803496 M357.0787880160495,22.717527425803496 L355.8475762290702,23.273773287989798 M355.8475762290702,23.273773287989798 L354.38617843090276,23.70238997061142 M354.38617843090276,23.70238997061142 L352.75860787817265,23.984499952137185 M352.75860787817265,23.984499952137185 L351.0362582948265,24.107667149036956 M351.0362582948265,24.107667149036956 L349.2947392913551,24.06645945932246 M349.2947392913551,24.06645945932246 L347.61051367029563,23.86269477884298 M347.61051367029563,23.86269477884298 L346.05749593868757,23.505357558417927 M346.05749593868757,23.505357558417927 L344.7037662238956,23.01019399066388 M482.7489774301404,646.7435317686258 L422.3433422063436,636.1964072635141 M543.5213740099564,703.9665026777399 L482.7489774301404,646.7435317686258 M543.5213740099564,703.9665026777399 L545.0235682978137,705.2742355666711 M545.0235682978137,705.2742355666711 L546.5764530883998,706.3695248095748 M546.5764530883998,706.3695248095748 L548.1506367332784,707.2314681138052 M548.1506367332784,707.2314681138052 L549.7162764156917,707.8435042377068 M549.7162764156917,707.8435042377068 L551.2436387816406,708.1937776631348 M551.2436387816406,708.1937776631348 L552.7036437354004,708.2753435947358 M552.7036437354004,708.2753435947358 L554.068439079178,708.0863515381375 M554.068439079178,708.0863515381375 L555.3119082946866,707.6300783806722 M555.3119082946866,707.6300783806722 L556.4101869694653,706.91491813395 M556.4101869694653,706.91491813395 L557.342126205403,705.9542038015315 M557.342126205403,705.9542038015315 L558.0897105616075,704.766018925366 M558.0897105616075,704.766018925366 L558.6384154979821,703.3728441113143 M558.6384154979821,703.3728441113143 L558.9775123678191,701.8011611124826 M558.9775123678191,701.8011611124826 L559.1002889478166,700.0809341163105 M559.1002889478166,700.0809341163105 L559.0041943959445,698.2450590569697 M559.0041943959445,698.2450590569697 L558.6909133551537,696.3287248410222 M558.6909133551537,696.3287248410222 L558.1663244358031,694.3687174778004 M558.1663244358031,694.3687174778004 L557.4404150083344,692.4027194671391 M557.4404150083344,692.4027194671391 L556.5270924857109,690.4685551050159 M556.5270924857109,690.4685551050159 L555.4439036249757,688.6034528455016 M507.8431623849471,612.7686626675219 L555.4439036249757,688.6034528455016 M496.53923829916715,532.3423662530973 L507.8431623849471,612.7686626675219 M496.53923829916715,532.3423662530973 L496.1775062082983,530.3657561412474 M496.1775062082983,530.3657561412474 L495.6070227429739,528.3592104186198 M495.6070227429739,528.3592104186198 L494.8386660438502,526.3613028306261 M494.8386660438502,526.3613028306261 L493.88716123071714,524.410476401743 M493.88716123071714,524.410476401743 L492.770796488318,522.5442964343522 M492.770796488318,522.5442964343522 L491.51106019267905,520.7986754568194 M491.51106019267905,520.7986754568194 L490.13222103122285,519.2071588067079 M490.13222103122285,519.2071588067079 L488.66084230152666,517.8003213940394 M488.66084230152666,517.8003213940394 L487.1252594057111,516.6051099312737 M487.1252594057111,516.6051099312737 L485.5550160318738,515.644332259268 M485.5550160318738,515.644332259268 L483.98028267675596,514.936263190792 M483.98028267675596,514.936263190792 L482.4312654919849,514.4942309819706 M482.4312654919849,514.4942309819706 L480.93761536612425,514.3264452758483 M480.93761536612425,514.3264452758483 L479.52785761439094,514.4358183729348 M479.52785761439094,514.4358183729348 L478.2288431953993,514.8199173681497 M478.2288431953993,514.8199173681497 L477.0652413914966,515.4710980076468 M477.0652413914966,515.4710980076468 L476.0590756884805,516.3766157571756 M476.0590756884805,516.3766157571756 L475.2293213393212,517.518903639846 M475.2293213393212,517.518903639846 L474.59155528749835,518.875956586768 M474.59155528749835,518.875956586768 L474.1576806970249,520.4217582374558 M459.8837373552081,586.5720842744686 L474.1576806970249,520.4217582374558 M411.88479114376406,608.890241887587 L459.8837373552081,586.5720842744686 M411.88479114376406,608.890241887587 L410.80632588443973,609.5216577841719 M410.80632588443973,609.5216577841719 L409.8829650823266,610.3973778500975 M409.8829650823266,610.3973778500975 L409.13211342235024,611.5004384356919 M409.13211342235024,611.5004384356919 L408.5678636617266,612.8096059806265 M408.5678636617266,612.8096059806265 L408.2007356099675,614.2997770041874 M408.2007356099675,614.2997770041874 L408.0374936003945,615.9424797156628 M408.0374936003945,615.9424797156628 L408.0810541873633,617.7064232225334 M408.0810541873633,617.7064232225334 L408.3304256958612,619.5580802403564 M408.3304256958612,619.5580802403564 L408.7807477311163,621.462332284904 M408.7807477311163,621.462332284904 L409.4233908510274,623.3831038561995 M409.4233908510274,623.3831038561995 L410.24611946177197,625.2840472454791 M410.24611946177197,625.2840472454791 L411.23333145316946,627.1292043690098 M411.23333145316946,627.1292043690098 L412.36634382504144,628.8836910478354 M412.36634382504144,628.8836910478354 L413.62373913849365,630.5142980488047 M413.62373913849365,630.5142980488047 L414.98175516557524,631.9901417344249 M414.98175516557524,631.9901417344249 L416.41473371035636,633.2832233388262 M416.41473371035636,633.2832233388262 L417.8955686099194,634.3689496760219 M417.8955686099194,634.3689496760219 L419.39622928735037,635.2265926535275 M419.39622928735037,635.2265926535275 L420.88826525356313,635.8397047926513 M420.88826525356313,635.8397047926513 L422.3433422063436,636.1964072635141 M422.3433422063436,636.1964072635141 L427.8979456514622,633.004804997272 M488.32128520570944,643.4930314822749 L427.8979456514622,633.004804997272 M488.32128520570944,643.4930314822749 L482.7489774301404,646.7435317686258 M549.0695199894444,700.6295698604199 L488.32128520570944,643.4930314822749 M543.5213740099564,703.9665026777399 L549.0695199894444,700.6295698604199 M417.45858983958817,605.7230052023393 L416.3790673014664,606.3550021384193 M416.3790673014664,606.3550021384193 L415.45450512021813,607.2310322305029 M415.45450512021813,607.2310322305029 L414.70233125397993,608.334126512631 M414.70233125397993,608.334126512631 L414.13666399569496,609.6430512977281 M414.13666399569496,609.6430512977281 L413.76805045498605,611.132708150815 M413.76805045498605,611.132708150815 L413.6032834777272,612.7746353650994 M413.6032834777272,612.7746353650994 L413.6453087926044,614.537556939578 M413.6453087926044,614.537556939578 L413.89316399829534,616.3879650208465 M413.89316399829534,616.3879650208465 L414.34201750672844,618.2907647139174 M414.34201750672844,618.2907647139174 L414.9832676926675,620.2099078461857 M414.9832676926675,620.2099078461857 L415.80470525782175,622.1090772769938 M415.80470525782175,622.1090772769938 L416.7907523975587,623.9523481839125 M416.7907523975587,623.9523481839125 L417.92274796680096,625.7048717440413 M417.92274796680096,625.7048717440413 L419.17929357840217,627.3334755690662 M419.17929357840217,627.3334755690662 L420.5366428809689,628.8073136808707 M420.5366428809689,628.8073136808707 L421.9691501193654,630.098425107214 M421.9691501193654,630.098425107214 L423.44971791011034,631.1822539250169 M423.44971791011034,631.1822539250169 L424.95032065740423,632.0381080689143 M424.95032065740423,632.0381080689143 L426.4425089455421,632.6495741789084 M426.4425089455421,632.6495741789084 L427.8979456514622,633.004804997272 M411.88479114376406,608.890241887587 L417.45858983958817,605.7230052023393 M555.4439036249757,688.6034528455016 L561.0099840323417,685.2646694030539 M549.0695199894444,700.6295698604199 L550.5711962701644,701.9352152093945 M550.5711962701644,701.9352152093945 L552.1237651792583,703.0284916231701 M552.1237651792583,703.0284916231701 L553.6978409434657,703.8885350254251 M553.6978409434657,703.8885350254251 L555.2635827752404,704.4988204344538 M555.2635827752404,704.4988204344538 L556.7912554353977,704.8475259155159 M556.7912554353977,704.8475259155159 L558.2517730844841,704.9277369574207 M558.2517730844841,704.9277369574207 L559.6172740018444,704.7376294056197 M559.6172740018444,704.7376294056197 L560.861628541262,704.280502038376 M560.861628541262,704.280502038376 L561.9609557642113,703.5647658190771 M561.9609557642113,703.5647658190771 L562.8940871708878,702.6037654167919 M562.8940871708878,702.6037654167919 L563.6429849502326,701.4155904548015 M563.6429849502326,701.4155904548015 L564.1930998435225,700.022721891622 M564.1930998435225,700.022721891622 L564.5336765698769,698.4516360382376 M564.5336765698769,698.4516360382376 L564.657974860437,696.732285933686 M564.657974860437,696.732285933686 L564.5634149195687,694.8975508415548 M564.5634149195687,694.8975508415548 L564.2516520830686,692.9825977834499 M564.2516520830686,692.9825977834499 L563.728535863894,691.0241861226125 M563.728535863894,691.0241861226125 L563.0040253017517,689.0599674546322 M563.0040253017517,689.0599674546322 L562.0920008156158,687.1277315456922 M562.0920008156158,687.1277315456922 L561.0099840323417,685.2646694030539 M459.8837373552081,586.5720842744686 L465.4986226801754,583.3761468893566 M417.45858983958817,605.7230052023393 L465.4986226801754,583.3761468893566 M513.4554452151835,609.5159144882876 L561.0099840323417,685.2646694030539 M513.4554452151835,609.5159144882876 L507.8431623849471,612.7686626675219 M474.1576806970249,520.4217582374558 L479.8362771636458,517.2531180903603 M465.4986226801754,583.3761468893566 L479.8362771636458,517.2531180903603 M502.2165926150023,529.1475712143363 L513.4554452151835,609.5159144882876 M496.53923829916715,532.3423662530973 L502.2165926150023,529.1475712143363 M502.2165926150023,529.1475712143363 L501.85642895768234,527.1724769679568 M501.85642895768234,527.1724769679568 L501.28745622068897,525.1676425191147 M501.28745622068897,525.1676425191147 L500.52052347325827,523.1716084529272 M500.52052347325827,523.1716084529272 L499.57032833835393,521.2227814269271 M499.57032833835393,521.2227814269271 L498.45513361925333,519.3586879028068 M498.45513361925333,519.3586879028068 L497.19640496652795,517.6151999115154 M497.19640496652795,517.6151999115154 L495.8183914694576,516.0258214617724 M495.8183914694576,516.0258214617724 L494.34764030761033,514.6210861105195 M494.34764030761033,514.6210861105195 L492.81247463304186,513.4279000571494 M492.81247463304186,513.4279000571494 L491.24242999549864,512.4690322690209 M491.24242999549864,512.4690322690209 L489.66767299853456,511.7627210578116 M489.66767299853456,511.7627210578116 L488.11841028807163,511.3222612937731 M488.11841028807163,511.3222612937731 L486.624297561222,511.1558329341796 M486.624297561222,511.1558329341796 L485.21386918975526,511.26632285763 M485.21386918975526,511.26632285763 L483.9139892576798,511.6512774603648 M483.9139892576798,511.6512774603648 L482.7493439131503,512.3030368227858 M482.7493439131503,512.3030368227858 L481.7419769495511,513.2088460645123 M481.7419769495511,513.2088460645123 L480.91088694410615,514.3511333168524 M480.91088694410615,514.3511333168524 L480.27167667968314,515.7078941036857 M480.27167667968314,515.7078941036857 L479.8362771636458,517.2531180903603 M489.6886621121599,582.1611894793583 L487.2216888767428,580.9570767999629 M487.2216888767428,580.9570767999629 L484.7730063337986,580.0294988852235 M484.7730063337986,580.0294988852235 L482.3643540714733,579.3862809896976 M482.3643540714733,579.3862809896976 L480.017041299887,579.0326672787755 M480.017041299887,579.0326672787755 L477.7517598243681,578.9712957977185 M477.7517598243681,578.9712957977185 L475.58839664964336,579.2021844455234 M475.58839664964336,579.2021844455234 L473.5458609720113,579.7227612377889 M473.5458609720113,579.7227612377889 L471.6419236076036,580.5278899953589 M471.6419236076036,580.5278899953589 L469.8930651543006,581.6099525635856 M469.8930651543006,581.6099525635856 L468.3143389649503,582.9589223238884 M468.3143389649503,582.9589223238884 L466.9192554479967,584.562476243669 M466.9192554479967,584.562476243669 L465.7196718555538,586.4061180514722 M465.7196718555538,586.4061180514722 L464.72570157948184,588.4733165279295 M464.72570157948184,588.4733165279295 L463.9456421461194,590.745665355222 M463.9456421461194,590.745665355222 L463.3859236023721,593.2030565751528 M463.3859236023721,593.2030565751528 L463.051049887588,595.8238509283555 M463.051049887588,595.8238509283555 L462.9435904347784,598.5850796994474 M462.9435904347784,598.5850796994474 L463.0641679526719,601.462641980016 M463.0641679526719,601.462641980016 L463.411450763393,604.4315035362739 M463.411450763393,604.4315035362739 L463.9821937533662,607.4659190240537 M463.9821937533662,607.4659190240537 L464.77125190706755,610.539633987554 M464.77125190706755,610.539633987554 L465.7716529258126,613.6261142757419 M465.7716529258126,613.6261142757419 L466.9746375851832,616.69875094726 M466.9746375851832,616.69875094726 L468.36975237584244,619.731083981666 M468.36975237584244,619.731083981666 L469.9449255012311,622.6970098975605 M469.9449255012311,622.6970098975605 L471.6865764859562,625.5710003909054 M471.6865764859562,625.5710003909054 L473.57971759964215,628.3283006493228 M473.57971759964215,628.3283006493228 L475.60808183902685,630.9451348147362 M475.60808183902685,630.9451348147362 L477.75424588912614,633.3988913962094 M477.75424588912614,633.3988913962094 L479.9997755160636,635.6683234388981 M479.9997755160636,635.6683234388981 L482.3253710107811,637.7337051452278 M482.3253710107811,637.7337051452278 L484.7110206915591,639.5770123860926 M484.7110206915591,639.5770123860926 L487.13616236026513,641.1820757015195 M487.13616236026513,641.1820757015195 L489.5798508559755,642.5347071583609 M489.5798508559755,642.5347071583609 L492.0209291569934,643.622843030364 M492.0209291569934,643.622843030364 L494.4382023547898,644.4366552925283 M494.4382023547898,644.4366552925283 L496.8106153352738,644.9686318089122 M496.8106153352738,644.9686318089122 L499.1174312980849,645.2136692947214 M499.1174312980849,645.2136692947214 L501.3384101666249,645.169134122577 M501.3384101666249,645.169134122577 L503.45398466469413,644.8348863300299 M503.45398466469413,644.8348863300299 L505.4454310681709,644.2133159432507 M505.4454310681709,644.2133159432507 L507.2950448237668,643.3093332971061 M507.2950448237668,643.3093332971061 L508.9862955397759,642.1303448918636 M508.9862955397759,642.1303448918636 L510.5039891055464,640.6862100573967 M510.5039891055464,640.6862100573967 L511.83440356780915,638.9891696969954 M511.83440356780915,638.9891696969954 L512.9654334319503,637.0537579221425 M512.9654334319503,637.0537579221425 L513.8866986267383,634.8966810914525 M513.8866986267383,634.8966810914525 L514.5896683173517,632.5366929141935 M514.5896683173517,632.5366929141935 L515.0677287374301,629.9944242511848 M515.0677287374301,629.9944242511848 L515.3162802834602,627.2922184737986 M515.3162802834602,627.2922184737986 L515.3327701761186,624.4539236091704 M515.3327701761186,624.4539236091704 L515.116748424605,621.5046903433338 M515.116748424605,621.5046903433338 L514.6698692803079,618.4707361972311 M514.6698692803079,618.4707361972311 L513.9958829368286,615.379104063982 M513.9958829368286,615.379104063982 L513.1006262049243,612.2574193154152 M513.1006262049243,612.2574193154152 L511.9919571379898,609.1336231470726 M511.9919571379898,609.1336231470726 L510.6796925966143,606.0357120682297 M510.6796925966143,606.0357120682297 L509.1755214150002,602.9914712336898 M509.1755214150002,602.9914712336898 L507.49289532922563,600.0282124974182 M507.49289532922563,600.0282124974182 L505.64689811405736,597.1725110483131 M505.64689811405736,597.1725110483131 L503.65410799376144,594.4499528206958 M503.65410799376144,594.4499528206958 L501.5324374801938,591.8849030386457 M501.5324374801938,591.8849030386457 L499.3009602819504,589.5002570775732 M499.3009602819504,589.5002570775732 L496.97972940590006,587.3172444066444 M496.97972940590006,587.3172444066444 L494.58958645680144,585.3552215783424 M494.58958645680144,585.3552215783424 L492.1519589255144,583.6314997580579 M492.1519589255144,583.6314997580579 L489.6886621121599,582.1611894793583 M489.6886621121599,582.1611894793583 L492.49717856615945,580.5557880409452 M492.49717856615945,580.5557880409452 L490.0302157859084,579.3530892785807 M490.0302157859084,579.3530892785807 L487.5814263252059,578.4268351282291 M487.5814263252059,578.4268351282291 L485.17255078199736,577.7848393926657 M485.17255078199736,577.7848393926657 L482.8249004597431,577.4323357785296 M482.8249004597431,577.4323357785296 L480.5591703156427,577.3719529428265 M480.5591703156427,577.3719529428265 L478.3952515328643,577.6037005396953 M478.3952515328643,577.6037005396953 L476.3520584624178,578.1249995359184 M476.3520584624178,578.1249995359184 L474.4473680036485,578.930707947668 M474.4473680036485,578.930707947668 L472.69766769372126,580.0132030874283 M472.69766769372126,580.0132030874283 L471.1180186135551,581.3624550998492 M471.1180186135551,581.3624550998492 L469.7219396074377,582.9661390163695 M469.7219396074377,582.9661390163695 L468.52129698519724,584.8097579307854 M468.52129698519724,584.8097579307854 L467.5262137290662,586.8767812794812 M467.5262137290662,586.8767812794812 L466.74499739329127,589.1488046678431 M466.74499739329127,589.1488046678431 L466.1840883933815,591.605723294786 M466.1840883933815,591.605723294786 L465.84800128118246,594.2259022647243 M465.84800128118246,594.2259022647243 L465.73931624692733,596.9863783771891 M465.73931624692733,596.9863783771891 L465.8586668041766,599.8630573397098 M465.8586668041766,599.8630573397098 L466.2047320318125,602.8309125853166 M466.2047320318125,602.8309125853166 L466.7742774310055,605.8642074118786 M466.7742774310055,605.8642074118786 L467.5621683695028,608.9366969248521 M467.5621683695028,608.9366969248521 L468.56144261354683,612.0218573659396 M468.56144261354683,612.0218573659396 L469.7633506039429,615.0930909526173 M469.7633506039429,615.0930909526173 L471.15744802049534,618.1239494969169 M471.15744802049534,618.1239494969169 L472.7316717085302,621.0883419434824 M472.7316717085302,621.0883419434824 L474.47244922030103,623.9607529102109 M474.47244922030103,623.9607529102109 L476.3648001804797,626.7164409139498 M476.3648001804797,626.7164409139498 L478.3924642138713,629.3316437302329 M478.3924642138713,629.3316437302329 L480.5380238609328,631.7837637100266 M480.5380238609328,631.7837637100266 L482.78304992419663,634.0515678371407 M482.78304992419663,634.0515678371407 L485.1082468849996,636.1153442485005 M485.1082468849996,636.1153442485005 L487.4936063705481,637.9570826320794 M487.4936063705481,637.9570826320794 L489.9185685881943,639.5606271164539 M489.9185685881943,639.5606271164539 L492.3621898692066,640.9118030198513 M492.3621898692066,640.9118030198513 L494.8033137539948,641.9985594131202 M494.8033137539948,641.9985594131202 L497.22074496224906,642.811080502291 M497.22074496224906,642.811080502291 L499.59342708333344,643.3418657096764 M499.59342708333344,643.3418657096764 L501.9006210976983,643.5858225231972 M501.9006210976983,643.5858225231972 L504.12208380110866,643.5403271973403 M504.12208380110866,643.5403271973403 L506.23824390895146,643.2052486654791 M506.23824390895146,643.2052486654791 L508.2303728271426,642.5829847661015 M508.2303728271426,642.5829847661015 L510.0807603090098,641.6784524758377 M510.0807603090098,641.6784524758377 L511.7728694841955,640.499063692126 M511.7728694841955,640.499063692126 L513.2914990242712,639.0546818260613 M513.2914990242712,639.0546818260613 L514.62291907026,637.3575504951307 M514.62291907026,637.3575504951307 L515.7550155929086,635.422205109373 M515.7550155929086,635.422205109373 L516.6773994222126,633.2653518882031 M516.6773994222126,633.2653518882031 L517.3815301293296,630.9057429384591 M517.3815301293296,630.9057429384591 L517.860783935334,628.3640060697068 M517.860783935334,628.3640060697068 L518.1105508860164,625.6624801557791 M518.1105508860164,625.6624801557791 L518.1282675996454,622.8250073258529 M518.1282675996454,622.8250073258529 L517.9134733208441,619.8767310042776 M517.9134733208441,619.8767310042776 L517.4678114685355,616.843860159527 M517.4678114685355,616.843860159527 L516.7950214322564,613.7534279227644 M516.7950214322564,613.7534279227644 L515.9009293455829,610.633048778765 M515.9009293455829,610.633048778765 L514.7933828109444,607.5106520285032 M514.7933828109444,607.5106520285032 L513.482188563537,604.414221395138 M513.482188563537,604.414221395138 L511.97902573689777,601.3715284851755 M511.97902573689777,601.3715284851755 L510.2973368858164,598.4098709802028 M510.2973368858164,598.4098709802028 L508.45219721587983,595.5558094205688 M508.45219721587983,595.5558094205688 L506.4601770826785,592.8349147629594 M506.4601770826785,592.8349147629594 L504.33918190597893,590.2715370742557 M504.33918190597893,590.2715370742557 L502.1082791610219,587.8885565519115 M502.1082791610219,587.8885565519115 L499.7875165381582,585.7071876113573 M499.7875165381582,585.7071876113573 L497.3977313037822,583.7467720253189 M497.3977313037822,583.7467720253189 L494.96034763232655,582.0246065956196 M494.96034763232655,582.0246065956196 L492.49717856615945,580.5557880409452 M481.2960320714769,714.6256960888055 L484.0538274822333,712.9812784308627 M484.0538274822333,712.9812784308627 L488.5367898311867,715.392116449356 M488.5367898311867,715.392116449356 L493.02145873832825,717.5415301976744 M493.02145873832825,717.5415301976744 L497.4964561089317,719.4233636406167 M497.4964561089317,719.4233636406167 L501.9503642440729,721.0321011645873 M501.9503642440729,721.0321011645873 L506.3717511533891,722.3628314735215 M506.3717511533891,722.3628314735215 L510.74919722333885,723.4113339084892 M510.74919722333885,723.4113339084892 L515.0713204913777,724.1740333283012 M515.0713204913777,724.1740333283012 L519.3268105191178,724.6480612474455 M519.3268105191178,724.6480612474455 L523.5044478124123,724.8312586395483 M523.5044478124123,724.8312586395483 L527.5931299195324,724.7221826627306 M527.5931299195324,724.7221826627306 L531.5819207744439,724.3201418040577 M531.5819207744439,724.3201418040577 L535.4600482080143,723.6251660632747 M535.4600482080143,723.6251660632747 L539.2169729265315,722.6380783971517 M539.2169729265315,722.6380783971517 L542.8423798143704,721.3604404817901 M542.8423798143704,721.3604404817901 L546.3262315983654,719.7945994629056 M546.3262315983654,719.7945994629056 L549.6588021609048,717.9436869275488 M549.6588021609048,717.9436869275488 L552.8306925460251,715.8116125264155 M552.8306925460251,715.8116125264155 L555.8328615161934,713.4030649651462 M555.8328615161934,713.4030649651462 L558.6566802702976,710.7235152353586 M558.6566802702976,710.7235152353586 L561.2939278158058,707.7792113430309 M561.2939278158058,707.7792113430309 L563.7368428764305,704.5771726582012 M563.7368428764305,704.5771726582012 L565.9781491281426,701.1251679577721 M565.9781491281426,701.1251679577721 L568.0110705024435,697.4317229752936 M568.0110705024435,697.4317229752936 L569.8293902941525,693.5060938934834 M569.8293902941525,693.5060938934834 L571.4274259541346,689.3582444659789 M571.4274259541346,689.3582444659789 L572.8001066546103,684.9988424150534 M572.8001066546103,684.9988424150534 L573.9429492817537,680.4392044269018 M573.9429492817537,680.4392044269018 L574.8521259637084,675.691311328865 M574.8521259637084,675.691311328865 L575.5244214692218,670.7677302423912 M575.5244214692218,670.7677302423912 L575.9573284902599,665.6816314850407 M575.9573284902599,665.6816314850407 L576.1489945225117,660.4467129755351 M576.1489945225117,660.4467129755351 L576.0982700085697,655.0771822403979 M576.0982700085697,655.0771822403979 L575.8047187497496,649.5877155588405 M575.8047187497496,649.5877155588405 L575.2685901940547,643.9933960157288 M575.2685901940547,643.9933960157288 L574.4908933174563,638.3097028788336 M574.4908933174563,638.3097028788336 L573.4733201687031,632.5524274530163 M573.4733201687031,632.5524274530163 L572.2183087388751,626.7376437632221 M572.2183087388751,626.7376437632221 L570.7289917350722,620.8816476960774 M570.7289917350722,620.8816476960774 L569.009238121537,615.0009248543087 M569.009238121537,615.0009248543087 L567.0635910136607,609.1120551784968 M567.0635910136607,609.1120551784968 L564.8973056105822,603.2317089790312 M564.8973056105822,603.2317089790312 L562.5163036935683,597.3765444311352 M562.5163036935683,597.3765444311352 L559.9271668061167,591.5631849798049 M559.9271668061167,591.5631849798049 L557.1371201151705,585.8081546396357 M557.1371201151705,585.8081546396357 L554.1539870468914,580.1277980698349 M554.1539870468914,580.1277980698349 L550.98619764555,574.5382623387808 M550.98619764555,574.5382623387808 L547.6427361057515,569.0554200546374 M547.6427361057515,569.0554200546374 L544.1331102689842,563.6948159876448 M544.1331102689842,563.6948159876448 L540.4673341495816,558.4716217092785 M540.4673341495816,558.4716217092785 L536.6558911600334,553.4005757012656 M536.6558911600334,553.4005757012656 L532.7096723550117,548.4959491228592 M532.7096723550117,548.4959491228592 L528.6399811820409,543.7714784376298 M528.6399811820409,543.7714784376298 L524.4584517366425,539.2403394700129 M524.4584517366425,539.2403394700129 L520.1770428313043,534.9150987228072 M520.1770428313043,534.9150987228072 L515.8079752187082,530.8076736107338 M515.8079752187082,530.8076736107338 L511.3636924709818,526.9292906417816 M511.3636924709818,526.9292906417816 L506.8568277102593,523.2904481931906 M506.8568277102593,523.2904481931906 L502.3001520009812,519.9009247610031 M502.3001520009812,519.9009247610031 L497.70653622160813,516.7696882764935 M497.70653622160813,516.7696882764935 L493.08890433479445,513.9049419084778 M493.08890433479445,513.9049419084778 L488.46019388603185,511.3140460407393 M488.46019388603185,511.3140460407393 L483.8333140924387,509.00352608629504 M483.8333140924387,509.00352608629504 L479.22110401439096,506.97907059616904 M479.22110401439096,506.97907059616904 L474.63629219653006,505.2455096368849 M474.63629219653006,505.2455096368849 L470.09145867455567,503.8067846199805 M470.09145867455567,503.8067846199805 L465.5989976104964,502.6660046092794 M465.5989976104964,502.6660046092794 L461.1710801882114,501.8253750787359 M461.1710801882114,501.8253750787359 L456.8196218068872,501.2862681046488 M456.8196218068872,501.2862681046488 L452.55624233741884,501.04918238252526 M452.55624233741884,501.04918238252526 L448.3922436092873,501.1137658190852 M448.3922436092873,501.1137658190852 L444.3385824879749,501.4788356436495 M444.3385824879749,501.4788356436495 L440.4058230163732,502.14237122510303 M440.4058230163732,502.14237122510303 L436.6041431325286,503.10157257900437 M436.6041431325286,503.10157257900437 L432.9432716726573,504.35281779773044 M432.9432716726573,504.35281779773044 L429.432505953191,505.8917472958247 M429.432505953191,505.8917472958247 L426.08066864599147,507.71324627332444 M426.08066864599147,507.71324627332444 L422.8960875727092,509.8114754531482 M422.8960875727092,509.8114754531482 L419.8865942172771,512.179905552279 M419.8865942172771,512.179905552279 L417.05950960577405,514.8113439463234 M417.05950960577405,514.8113439463234 L414.42160868683175,517.6979590491235 M414.42160868683175,517.6979590491235 L411.97914313565343,520.8313087396011 M411.97914313565343,520.8313087396011 L409.73781113401265,524.2023704353276 M409.73781113401265,524.2023704353276 L407.7027541280075,527.8015842179941 M407.7027541280075,527.8015842179941 L405.87856291399964,531.6188633774848 M405.87856291399964,531.6188633774848 L404.26924377079683,535.6436391237446 M404.26924377079683,535.6436391237446 L402.8782641535782,539.8648951688483 M402.8782641535782,539.8648951688483 L401.708501374477,544.2711847457063 M401.708501374477,544.2711847457063 L400.76228763947114,548.8506920529127 M400.76228763947114,548.8506920529127 L400.04136734932746,553.5912242425283 M400.04136734932746,553.5912242425283 L399.54695867171347,558.4802892686362 M399.54695867171347,558.4802892686362 L399.2796837534721,563.5050811815607 M399.2796837534721,563.5050811815607 L399.23963794909946,568.6525494401047 M399.23963794909946,568.6525494401047 L399.4263623951275,573.9094114300426 M399.4263623951275,573.9094114300426 L399.83885076842523,579.2621835630654 M399.83885076842523,579.2621835630654 L400.47558998224764,584.6972295477191 M400.47558998224764,584.6972295477191 L401.33450437825576,590.200757848272 M401.33450437825576,590.200757848272 L402.4130381358396,595.7588857315154 M402.4130381358396,595.7588857315154 L403.7081062365118,601.3576498571214 M403.7081062365118,601.3576498571214 L405.216148914446,606.983043934468 M405.216148914446,606.983043934468 L406.93309814263165,612.6210277568559 M406.93309814263165,612.6210277568559 L408.85443849578985,618.2575947665869 M408.85443849578985,618.2575947665869 L410.97517188803147,623.8787509268556 M410.97517188803147,623.8787509268556 L413.2898589252631,629.4705867569211 M413.2898589252631,629.4705867569211 L415.7926207544276,635.0192722069252 M415.7926207544276,635.0192722069252 L418.47714830267677,640.5110912744021 M418.47714830267677,640.5110912744021 L421.33673661739755,645.9324911024161 M421.33673661739755,645.9324911024161 L424.36426656851864,651.2700720246532 M424.36426656851864,651.2700720246532 L427.5522418887473,656.510634400439 M427.5522418887473,656.510634400439 L430.8928038715123,661.641203658971 M430.8928038715123,661.641203658971 L434.3777323112872,666.6490484203706 M434.3777323112872,666.6490484203706 L437.99846310759136,671.5217138840851 M437.99846310759136,671.5217138840851 L441.74612762461624,676.2470334295064 M441.74612762461624,676.2470334295064 L445.61152967274353,680.8131711730608 M445.61152967274353,680.8131711730608 L449.5852017034631,685.20863016102 M449.5852017034631,685.20863016102 L453.65739007253137,689.4222817330912 M453.65739007253137,689.4222817330912 L457.8180930037842,693.4433907401902 M457.8180930037842,693.4433907401902 L462.0570764259972,697.2616444532381 M462.0570764259972,697.2616444532381 L466.3638842762933,700.8671795086644 M466.3638842762933,700.8671795086644 L470.7278662801803,704.2505697843268 M470.7278662801803,704.2505697843268 L475.1381942314011,707.4029091601953 M475.1381942314011,707.4029091601953 L479.5838865242262,710.3157697166453 M479.5838865242262,710.3157697166453 L484.0538274822333,712.9812784308627 M481.2960320714769,714.6256960888055 L476.8259203728143,711.9574501620434 M476.8259203728143,711.9574501620434 L472.37994789168675,709.0417980115252 M472.37994789168675,709.0417980115252 L467.96923089575665,705.8866198780756 M467.96923089575665,705.8866198780756 L463.6047518256183,702.5003509304954 M463.6047518256183,702.5003509304954 L459.29733994175774,698.891904539652 M459.29733994175774,698.891904539652 L455.0576468210525,695.07071408135 M455.0576468210525,695.07071408135 L450.8961300495673,691.0466501471374 M450.8961300495673,691.0466501471374 L446.8230254592891,686.8300326612479 M446.8230254592891,686.8300326612479 L442.84833682048225,682.4316039256947 M442.84833682048225,682.4316039256947 L438.9818200009271,677.8624996996055 M438.9818200009271,677.8624996996055 L435.2329450048437,673.1342239612906 M435.2329450048437,673.1342239612906 L431.6109106984099,668.2586195472671 M431.6109106984099,668.2586195472671 L428.1245886290024,663.2478599368211 M428.1245886290024,663.2478599368211 L424.78254602425596,658.1144066984225 M424.78254602425596,658.1144066984225 L421.59300644078627,652.8709978738 M421.59300644078627,652.8709978738 L418.56383215367856,647.5306145782502 M418.56383215367856,647.5306145782502 L415.70252321216316,642.106462880087 M415.70252321216316,642.106462880087 L413.0162027374727,636.6119487491372 M413.0162027374727,636.6119487491372 L410.5115798736643,631.0606311988082 M410.5115798736643,631.0606311988082 L408.1949680880584,625.4662322581611 M408.1949680880584,625.4662322581611 L406.0722508198182,619.8425878515883 M406.0722508198182,619.8425878515883 L404.14887222943526,614.2036131750973 M404.14887222943526,614.2036131750973 L402.4298353534975,608.563307828502 M402.4298353534975,608.563307828502 L400.9196607310144,602.9356837484683 M400.9196607310144,602.9356837484683 L399.62242166715697,597.3347863639576 M399.62242166715697,597.3347863639576 L398.5416833546369,591.7746269917374 M398.5416833546369,591.7746269917374 L397.6805363750413,586.2691738197528 M397.6805363750413,586.2691738197528 L397.04154224328533,580.8323142214829 M397.04154224328533,580.8323142214829 L396.62678242541074,575.4778441886727 M396.62678242541074,575.4778441886727 L396.4377759181279,570.2194042354281 M396.4377759181279,570.2194042354281 L396.4755350422611,565.0704819681058 M396.4755350422611,565.0704819681058 L396.74052473183104,560.0443637866861 M396.74052473183104,560.0443637866861 L397.2326557600804,555.1541037770377 M397.2326557600804,555.1541037770377 L397.9513121493064,550.4125112029454 M397.9513121493064,550.4125112029454 L398.89528192352225,545.8320811461828 M398.89528192352225,545.8320811461828 L400.06282688190123,541.4250092474035 M400.06282688190123,541.4250092474035 L401.45162100156324,537.2031138093205 M401.45162100156324,537.2031138093205 L403.0587931251476,533.1778438291576 M403.0587931251476,533.1778438291576 L404.8808819016866,529.3602175159203 M404.8808819016866,529.3602175159203 L406.9138870811836,525.760805286819 M406.9138870811836,525.760805286819 L409.1532238101343,522.3896951534447 M409.1532238101343,522.3896951534447 L411.5937564661112,519.256448008066 M411.5937564661112,519.256448008066 L414.2297925627789,516.3700870702096 M414.2297925627789,516.3700870702096 L417.0550859666216,513.7390547455259 M417.0550859666216,513.7390547455259 L420.0628670913014,511.3711825510816 M420.0628670913014,511.3711825510816 L423.2458200807398,509.27366266497825 M423.2458200807398,509.27366266497825 L426.59611840479255,507.4530235484317 M426.59611840479255,507.4530235484317 L430.10543895961297,505.9151032726811 M430.10543895961297,505.9151032726811 L433.76496353506514,504.66501503119355 M433.76496353506514,504.66501503119355 L437.56539899821104,503.70711639424155 M437.56539899821104,503.70711639424155 L441.4970204127044,503.0450268614529 M441.4970204127044,503.0450268614529 L445.54965342032955,502.6815435759311 M445.54965342032955,502.6815435759311 L449.7127372404267,502.61868392556846 M449.7127372404267,502.61868392556846 L453.9753179258582,502.8576270075565 M453.9753179258582,502.8576270075565 L458.3260962130928,503.3987208258749 M458.3260962130928,503.3987208258749 L462.75345442952204,504.2414621774576 M462.75345442952204,504.2414621774576 L467.2454789918614,505.38447405535305 M467.2454789918614,505.38447405535305 L471.7900001594788,506.8255456537582 M471.7900001594788,506.8255456537582 L476.3746248047043,508.5615621614779 M476.3746248047043,508.5615621614779 L480.9867735427005,510.58857603544567 M480.9867735427005,510.58857603544567 L485.6137180665983,512.9017506863968 M485.6137180665983,512.9017506863968 L490.2426191493891,515.4953906697905 M490.2426191493891,515.4953906697905 L494.8605670080404,518.3629633279219 M494.8605670080404,518.3629633279219 L499.4546231287149,521.4971006961034 M499.4546231287149,521.4971006961034 L504.0118621712368,524.8895917012649 M504.0118621712368,524.8895917012649 L508.51941150191755,528.5314602237795 M508.51941150191755,528.5314602237795 L512.9644979001698,532.4129193001968 M512.9644979001698,532.4129193001968 L517.334485724826,536.5234618513152 M517.334485724826,536.5234618513152 L521.6169285146539,540.8518524532694 M521.6169285146539,540.8518524532694 L525.7996022741463,545.3861645894315 M525.7996022741463,545.3861645894315 L529.8705446115493,550.1138225017671 M529.8705446115493,550.1138225017671 L533.8181175275085,555.0216410003272 M533.8181175275085,555.0216410003272 L537.6310133727532,560.095874168222 M537.6310133727532,560.095874168222 L541.2983365950561,565.3222413536331 M541.2983365950561,565.3222413536331 L544.8095990249244,570.6859945681915 M544.8095990249244,570.6859945681915 L548.1547816405673,576.1719527636834 M548.1547816405673,576.1719527636834 L551.3243713670581,581.7645617648374 M551.3243713670581,581.7645617648374 L554.3093785717674,587.4479396596585 M554.3093785717674,587.4479396596585 L557.1013675896331,593.2059302150096 M557.1013675896331,593.2059302150096 L559.6925092180923,599.0221798007697 M559.6925092180923,599.0221798007697 L562.0755723710245,604.880155636038 M562.0755723710245,604.880155636038 L564.243969471439,610.7632257669019 M564.243969471439,610.7632257669019 L566.1917726169586,616.6547238019823 M566.1917726169586,616.6547238019823 L567.9137204093818,622.5379715258293 M567.9137204093818,622.5379715258293 L569.4052634921454,628.3963814629332 M569.4052634921454,628.3963814629332 L570.6625266262988,634.2134608382216 M570.6625266262988,634.2134608382216 L571.6823708246307,639.9729070184441 M571.6823708246307,639.9729070184441 L572.4623518303679,645.6586396559127 M572.4623518303679,645.6586396559127 L573.0007713574264,651.2548615936115 M573.0007713574264,651.2548615936115 L573.2966142421415,656.7460881686286 M573.2966142421415,656.7460881686286 L573.349624916272,662.117231421142 M573.349624916272,662.117231421142 L573.1602335399175,667.3536106914048 M573.1602335399175,667.3536106914048 L572.7295837300039,672.4410146000891 M572.7295837300039,672.4410146000891 L572.0595221626415,677.3657419127121 M572.0595221626415,677.3657419127121 L571.1525504412173,682.1146195178815 M571.1525504412173,682.1146195178815 L570.0118782321329,686.6750780680234 M570.0118782321329,686.6750780680234 L568.6413279870853,691.0351350292103 M568.6413279870853,691.0351350292103 L567.0453775632805,695.1834725680908 M567.0453775632805,695.1834725680908 L565.2290926956125,699.1094223375532 M565.2290926956125,699.1094223375532 L563.1981510166092,702.8030205047221 M563.1981510166092,702.8030205047221 L560.9587645015265,706.2550113154608 M560.9587645015265,706.2550113154608 L558.5177046744,709.4568699856787 M558.5177046744,709.4568699856787 L555.8822435173345,712.4008291844955 M555.8822435173345,712.4008291844955 L553.0601381614424,715.0798714694517 M553.0601381614424,715.0798714694517 L550.0596056599857,717.4877512322213 M550.0596056599857,717.4877512322213 L546.8892710886703,719.6190003203434 M546.8892710886703,719.6190003203434 L543.5581721704107,721.468933305284 M543.5581721704107,721.468933305284 L540.0757045630282,723.033644218522 M540.0757045630282,723.033644218522 L536.4515913048588,724.3100055387257 M536.4515913048588,724.3100055387257 L532.6958668117923,725.2956745564783 M532.6958668117923,725.2956745564783 L528.8188435691181,725.9890943802865 M528.8188435691181,725.9890943802865 L524.8310584563721,726.3894471416412 M524.8310584563721,726.3894471416412 L520.7432814650917,726.4967082445143 M520.7432814650917,726.4967082445143 L516.5664467032921,726.3115748630175 M516.5664467032921,726.3115748630175 L512.3116548966223,725.8354957604093 M512.3116548966223,725.8354957604093 L507.990124040873,725.070636106333 M507.990124040873,725.070636106333 L503.6131633075815,724.0198707319607 M503.6131633075815,724.0198707319607 L499.1921536285443,722.6867813115839 M499.1921536285443,722.6867813115839 L494.7385138055774,721.0755951877082 M494.7385138055774,721.0755951877082 L490.2636752640024,719.1912304871347 M490.2636752640024,719.1912304871347 L485.77905535578947,717.0392097619125 M485.77905535578947,717.0392097619125 L481.2960320714769,714.6256960888055 M485.6062846007017,513.2490450635772 L480.9950097539019,510.94340416149623 M480.9950097539019,510.94340416149623 L476.3984522806091,508.92292570112 M476.3984522806091,508.92292570112 L471.8292966271717,507.1924187750328 M471.8292966271717,507.1924187750328 L467.3000779780786,505.75585709616774 M467.3000779780786,505.75585709616774 L462.82314579133305,504.61631810177107 M462.82314579133305,504.61631810177107 L458.41062986413755,503.77603082450815 M458.41062986413755,503.77603082450815 L454.07439951654624,503.23635633457434 M454.07439951654624,503.23635633457434 L449.8260400246265,502.99779894804624 M449.8260400246265,502.99779894804624 L445.6768096547738,503.0600284088217 M445.6768096547738,503.0600284088217 L441.6376248850776,503.42185327098707 M441.6376248850776,503.42185327098707 L437.7190112596769,504.0812977508331 M437.7190112596769,504.0812977508331 L433.9311138754309,505.03555623516274 M433.9311138754309,505.03555623516274 L430.28362416723724,506.2810298842735 M430.28362416723724,506.2810298842735 L426.785811313634,507.81339165893417 M426.785811313634,507.81339165893417 L423.4464570713034,509.62753063133187 M423.4464570713034,509.62753063133187 L420.27386617624586,511.7176463839734 M420.27386617624586,511.7176463839734 L417.27584739337397,514.077237271107 M417.27584739337397,514.077237271107 L414.4596814819953,516.6991331646775 M414.4596814819953,516.6991331646775 L411.8321299838773,519.5755331607468 M411.8321299838773,519.5755331607468 L409.39941791285764,522.6980281179603 M409.39941791285764,522.6980281179603 L407.1672168868663,526.0576325668927 M407.1672168868663,526.0576325668927 L405.1406596914367,529.6448089007182 M405.1406596914367,529.6448089007182 L403.3243017616603,533.4495109460727 M403.3243017616603,533.4495109460727 L401.7221493724381,537.46120511513 M401.7221493724381,537.46120511513 L400.33765219638894,541.6689100032231 M400.33765219638894,541.6689100032231 L399.1736783410314,546.0612250039864 M399.1736783410314,546.0612250039864 L398.2325420040974,550.6263591711537 M398.2325420040974,550.6263591711537 L397.51598674996416,555.3521644245878 M397.51598674996416,555.3521644245878 L397.02521218216697,560.2261821755286 M397.02521218216697,560.2261821755286 L396.7608477758686,565.2356502350988 M396.7608477758686,565.2356502350988 L396.7229783982041,570.3675540738889 M396.7229783982041,570.3675540738889 L396.91114305465015,575.6086495324874 M396.91114305465015,575.6086495324874 L397.3243415710708,580.9454965257611 M397.3243415710708,580.9454965257611 L397.96104921613176,586.3644888877038 M397.96104921613176,586.3644888877038 L398.81920429599245,591.8518815176899 M398.81920429599245,591.8518815176899 L399.89624710991836,597.3938283264283 M399.89624710991836,597.3938283264283 L401.18910575043697,602.976400104704 M401.18910575043697,602.976400104704 L402.69422428815454,608.5856343329475 M402.69422428815454,608.5856343329475 L404.4075467971003,614.2075311866578 M404.4075467971003,614.2075311866578 L406.3245522369854,619.8281042671501 M406.3245522369854,619.8281042671501 L408.44027095320047,625.4334211389682 M408.44027095320047,625.4334211389682 L410.74926582741,631.0095864603769 M410.74926582741,631.0095864603769 L413.24567702024785,636.5428162821322 M413.24567702024785,636.5428162821322 L415.9232141401905,642.0194354917854 M415.9232141401905,642.0194354917854 L418.7751776572443,647.4259147272163 M418.7751776572443,647.4259147272163 L421.7944795588839,652.7488974034865 M421.7944795588839,652.7488974034865 L424.97363712605414,657.9752123000587 M424.97363712605414,657.9752123000587 L428.3048048518651,663.0919233522144 M428.3048048518651,663.0919233522144 L431.7797932718235,668.0863228205001 M431.7797932718235,668.0863228205001 L435.3900556272751,672.9459924181836 M435.3900556272751,672.9459924181836 L439.12674932728333,677.6588023503659 M439.12674932728333,677.6588023503659 L442.98070031726354,682.2129217470175 M442.98070031726354,682.2129217470175 L446.94246688714065,686.5969113301712 M446.94246688714065,686.5969113301712 L451.002324292708,690.7996522702463 M451.002324292708,690.7996522702463 L455.1503015967933,694.8104509308265 M455.1503015967933,694.8104509308265 L459.3761873856558,698.6190119703251 M459.3761873856558,698.6190119703251 L463.66955973841533,702.215486435267 M463.66955973841533,702.215486435267 L468.01979688781427,705.5904900413767 M468.01979688781427,705.5904900413767 L472.41610438535514,708.7351118791851 M472.41610438535514,708.7351118791851 L476.84753236892226,711.6409788292842 M476.84753236892226,711.6409788292842 L481.30299845680173,714.3002238950352 M481.30299845680173,714.3002238950352 L485.7713101751645,716.7055355563591 M485.7713101751645,716.7055355563591 L490.2411877597228,718.8501882885953 M490.2411877597228,718.8501882885953 L494.70128806259737,720.7280545085157 M494.70128806259737,720.7280545085157 L499.1402303005531,722.3335981587807 M499.1402303005531,722.3335981587807 L503.54662021066446,723.6619487796465 M503.54662021066446,723.6619487796465 L507.9090740921409,724.7088753684992 M507.9090740921409,724.7088753684992 L512.2162516273775,725.4708262292833 M512.2162516273775,725.4708262292833 L516.4568740002742,725.9449407674135 M516.4568740002742,725.9449407674135 L520.6197637665457,726.1290536076232 M520.6197637665457,726.1290536076232 L524.6938584255504,726.0217449006258 M524.6938584255504,726.0217449006258 L528.668261991002,725.6222954001747 M528.668261991002,725.6222954001747 L532.5322373823167,724.9307553685031 M532.5322373823167,724.9307553685031 L536.2752867092026,723.9479410023475 M536.2752867092026,723.9479410023475 L539.8871282904659,722.675397423928 M539.8871282904659,722.675397423928 L543.357772169072,721.1154833198535 M543.357772169072,721.1154833198535 L546.6775230464223,719.271306697021 M546.6775230464223,719.271306697021 L549.8370132535522,717.1467638431392 M549.8370132535522,717.1467638431392 L552.8272520186395,714.7465353886685 M552.8272520186395,714.7465353886685 L555.639634199754,712.0760740074196 M555.639634199754,712.0760740074196 L558.265977143868,709.1416069042657 M558.265977143868,709.1416069042657 L560.6985587218671,705.9501274506089 M560.6985587218671,705.9501274506089 L562.9301231399586,702.5093909099838 M562.9301231399586,702.5093909099838 L564.9539440213559,698.8278915899268 M564.9539440213559,698.8278915899268 L566.7638171473325,694.9148564134492 M566.7638171473325,694.9148564134492 L568.3540914841092,690.7802196160072 M568.3540914841092,690.7802196160072 L569.7197189770689,686.4346062471315 M569.7197189770689,686.4346062471315 L570.85624810168,681.8893104165044 M570.85624810168,681.8893104165044 L571.7598645235121,677.1562682257043 M571.7598645235121,677.1562682257043 L572.4273849943322,672.2480124831048 M572.4273849943322,672.2480124831048 L572.8563061317852,667.177666346954 M572.8563061317852,667.177666346954 L573.0447977790373,661.9588874522625 M573.0447977790373,661.9588874522625 L572.9917230968479,656.6058387995646 M572.9917230968479,656.6058387995646 L572.6966489572565,651.133145347159 M572.6966489572565,651.133145347159 L572.1598459310324,645.5558515590376 M572.1598459310324,645.5558515590376 L571.3823157639042,639.8893795555346 M571.3823157639042,639.8893795555346 L570.3657613363921,634.1494726653998 M570.3657613363921,634.1494726653998 L569.1126117633721,628.3521582599616 M569.1126117633721,628.3521582599616 L567.6260000637558,622.5136747654025 M567.6260000637558,622.5136747654025 L565.9097851724082,616.6504529229039 M565.9097851724082,616.6504529229039 L563.9685177044403,610.7790382707353 M563.9685177044403,610.7790382707353 L561.8074230645054,604.9160228968808 M561.8074230645054,604.9160228968808 L559.4324192450047,599.0780360216428 M559.4324192450047,599.0780360216428 L556.8500653417129,593.2816385395997 M556.8500653417129,593.2816385395997 L554.0675630812775,587.5432973369849 M554.0675630812775,587.5432973369849 L551.092725280462,581.8793182157649 M551.092725280462,581.8793182157649 L547.9339428054088,576.3057894268856 M547.9339428054088,576.3057894268856 L544.6001783940417,570.8385404211064 M544.6001783940417,570.8385404211064 L541.100918020257,565.4930626409663 M541.100918020257,565.4930626409663 L537.4461337237772,560.2844913175271 M537.4461337237772,560.2844913175271 L533.6462809131222,555.227515454347 M533.6462809131222,555.227515454347 L529.7122125989997,550.3363576348044 M529.7122125989997,550.3363576348044 L525.6551973876908,545.6247406683044 M525.6551973876908,545.6247406683044 L521.4868309462252,541.1057719133809 M521.4868309462252,541.1057719133809 L517.2190294563868,536.7920018899085 M517.2190294563868,536.7920018899085 L512.8639692890865,532.6952997060425 M512.8639692890865,532.6952997060425 L508.4340580336521,528.8268703993748 M508.4340580336521,528.8268703993748 L503.94188084408034,525.1971960760129 M503.94188084408034,525.1971960760129 L499.4001672644152,521.8160109016886 M499.4001672644152,521.8160109016886 L494.82174127766865,518.692290062862 M494.82174127766865,518.692290062862 L490.2194829135022,515.8341817609936 M490.2194829135022,515.8341817609936 L485.6062846007017,513.2490450635772 M485.6062846007017,513.2490450635772 L488.45260787838976,511.66123667945504 M488.45260787838976,511.66123667945504 L493.0656162259432,514.2436384036305 M493.0656162259432,514.2436384036305 L497.66755973443543,517.0989298814779 M497.66755973443543,517.0989298814779 L502.2455469458794,520.2197596054458 M502.2455469458794,520.2197596054458 L506.78669918673376,523.5979872405308 M506.78669918673376,523.5979872405308 L511.2781942350967,527.224645767972 M511.2781942350967,527.224645767972 L515.707304685274,531.0900094543568 M515.707304685274,531.0900094543568 L520.0614478977377,535.1836048656083 M520.0614478977377,535.1836048656083 L524.3282191629423,539.4942358527876 M524.3282191629423,539.4942358527876 L528.4954453334567,544.0100423698666 M528.4954453334567,544.0100423698666 L532.551213801001,548.7184831224314 M532.551213801001,548.7184831224314 L536.4839327732034,553.6064600726627 M536.4839327732034,553.6064600726627 L540.2823378393973,558.6602598374894 M540.2823378393973,558.6602598374894 L543.9355804660231,563.8656692864585 M543.9355804660231,563.8656692864585 L547.4332099790702,569.2080088865681 M547.4332099790702,569.2080088865681 L550.7652593323689,574.6721528450556 M550.7652593323689,574.6721528450556 L553.9222477607509,580.2426190890538 M553.9222477607509,580.2426190890538 L556.8952179442854,585.9035874393395 M556.8952179442854,585.9035874393395 L559.675784614644,591.638978764845 M559.675784614644,591.638978764845 L562.2561407121134,597.43249620796 M562.2561407121134,597.43249620796 L564.629090404957,603.2676816110943 M564.629090404957,603.2676816110943 L566.7880806046508,609.1279825497996 M566.7880806046508,609.1279825497996 L568.7271994250912,614.9967779995886 M568.7271994250912,614.9967779995886 L570.4412276302432,620.8574837312214 M570.4412276302432,620.8574837312214 L571.9256208280558,626.6935617248503 M571.9256208280558,626.6935617248503 L573.1765263353823,632.4885883817127 M573.1765263353823,632.4885883817127 L574.1908173879692,638.2263319965481 M574.1908173879692,638.2263319965481 L574.9660711181127,643.8907714948056 M574.9660711181127,643.8907714948056 L575.5005908603976,649.4661693827533 M575.5005908603976,649.4661693827533 L575.793381034591,654.9371089080236 M575.793381034591,654.9371089080236 L575.8441771710575,660.2885504730806 M575.8441771710575,660.2885504730806 L575.6534184157128,665.5058734806441 M575.6534184157128,665.5058734806441 L575.2222475291946,670.5749187704748 M575.2222475291946,670.5749187704748 L574.5525004778517,675.4820320170892 M574.5525004778517,675.4820320170892 L573.6466863309652,680.2140928404083 M573.6466863309652,680.2140928404083 L572.5079938843678,684.7585706595204 M572.5079938843678,684.7585706595204 L571.1402428747706,689.1035310702941 M571.1402428747706,689.1035310702941 L569.5478900716973,693.2376811162976 M569.5478900716973,693.2376811162976 L567.735988604315,697.1503963699034 M567.735988604315,697.1503963699034 L565.7101944087606,700.8317426803947 M565.7101944087606,700.8317426803947 L563.4767164233831,704.2724926939048 M563.4767164233831,704.2724926939048 L561.0422855509505,707.4641511678593 M561.0422855509505,707.4641511678593 L558.4141619221245,710.3989613997784 M558.4141619221245,710.3989613997784 L555.6000717970721,713.0699281030874 M555.6000717970721,713.0699281030874 L552.6082017562605,715.4708216893126 M552.6082017562605,715.4708216893126 L549.4471606590939,717.5961866540947 M549.4471606590939,717.5961866540947 L546.1259427829273,719.4413391138306 M546.1259427829273,719.4413391138306 L542.653919087187,721.0023791128182 M542.653919087187,721.0023791128182 L539.0407879375657,722.276194589848 M539.0407879375657,722.276194589848 L535.2965421476811,723.2604224509313 M535.2965421476811,723.2604224509313 L531.4314660188561,723.9535128042182 M531.4314660188561,723.9535128042182 L527.4560598476246,724.3546443861546 M527.4560598476246,724.3546443861546 L523.3810628969163,724.4637615569645 M523.3810628969163,724.4637615569645 L519.2173730937043,724.2815779168461 M519.2173730937043,724.2815779168461 L514.9760546689854,723.8095074228185 M514.9760546689854,723.8095074228185 L510.6682865562106,723.0497093287465 M510.6682865562106,723.0497093287465 L506.3053488371946,722.005037904547 M506.3053488371946,722.005037904547 L501.8985828634356,720.6790383428075 M501.8985828634356,720.6790383428075 L497.4593731368556,719.0759349801435 M497.4593731368556,719.0759349801435 L492.9991144963331,717.2005914777935 M492.9991144963331,717.2005914777935 L488.52918805623455,715.0585369694668 M488.52918805623455,715.0585369694668 L484.06093707418205,712.6558920239054 M484.06093707418205,712.6558920239054 L479.60564119058296,709.9993750727213 M479.60564119058296,709.9993750727213 L475.1744925175148,707.0962904802334 M475.1744925175148,707.0962904802334 L470.7785728408733,703.9544980443893 M470.7785728408733,703.9544980443893 L466.42883120475625,700.582363667043 M466.42883120475625,700.582363667043 L462.1360609936453,696.9887910227757 M462.1360609936453,696.9887910227757 L457.91088268401353,693.1831571682145 M457.91088268401353,693.1831571682145 L453.7637166717625,689.1753038496016 M453.7637166717625,689.1753038496016 L449.70477261187773,684.9755192295044 M449.70477261187773,684.9755192295044 L445.744019458069,680.5944898175015 M445.744019458069,680.5944898175015 L441.891179728147,676.0433273606506 M441.891179728147,676.0433273606506 L438.15569269527776,671.333464140107 M438.15569269527776,671.333464140107 L434.546729734043,666.4767240844757 M434.546729734043,666.4767240844757 L431.07313053344654,661.485230151727 M431.07313053344654,661.485230151727 L427.7434387365674,656.3713938783258 M427.7434387365674,656.3713938783258 L424.5658404596821,651.1479163617711 M424.5658404596821,651.1479163617711 L421.5481776547546,645.8277271384059 M421.5481776547546,645.8277271384059 L418.6979292680982,640.4239910145693 M418.6979292680982,640.4239910145693 L416.02217933275506,634.9500582968386 M416.02217933275506,634.9500582968386 L413.52762319648076,629.4194521993115 M413.52762319648076,629.4194521993115 L411.22054687026673,623.8458418269404 M411.22054687026673,623.8458418269404 L409.1068056237136,618.2430052751841 M409.1068056237136,618.2430052751841 L407.1918318151082,612.6248321751655 M407.1918318151082,612.6248321751655 L405.4805901697198,607.0052494287099 M405.4805901697198,607.0052494287099 L403.9775966253633,601.3982380587082 M403.9775966253633,601.3982380587082 L402.68690184608187,595.8177926841138 M402.68690184608187,595.8177926841138 L401.61205635425773,590.277870812663 M401.61205635425773,590.277870812663 L400.7561265079014,584.7923968218147 M400.7561265079014,584.7923968218147 L400.12166633237035,579.375212170091 M400.12166633237035,579.375212170091 L399.7107317330684,574.0400575223698 M399.7107317330684,574.0400575223698 L399.52484154958495,568.800534826953 M399.52484154958495,568.800534826953 L399.56498997849513,563.670080167661 M399.56498997849513,563.670080167661 L399.8316319637494,558.6619339302507 M399.8316319637494,558.6619339302507 L400.3246765314356,553.7891071076566 M400.3246765314356,553.7891071076566 L401.0434880576034,549.0643585930499 M401.0434880576034,549.0643585930499 L401.98686076891073,544.5001439441044 M401.98686076891073,544.5001439441044 L403.15304492385854,540.1086084642167 M403.15304492385854,540.1086084642167 L404.53972015960755,535.9015406016125 M404.53972015960755,535.9015406016125 L406.14401223923073,531.8903387460815 M406.14401223923073,531.8903387460815 L407.962465408186,528.0859823882087 M407.962465408186,528.0859823882087 L409.99106738106593,524.4990035035943 M409.99106738106593,524.4990035035943 L412.22525680850447,521.1394469659989 M412.22525680850447,521.1394469659989 L414.65989509560615,518.016849416341 M414.65989509560615,518.016849416341 L417.2893049537042,515.1401956920506 M417.2893049537042,515.1401956920506 L420.10725584991536,512.5178946539746 M420.10725584991536,512.5178946539746 L423.10698089858295,510.15774728426345 M423.10698089858295,510.15774728426345 L426.28119419086823,508.06692415277246 M426.28119419086823,508.06692415277246 L429.6220820265495,506.2519277315349 M429.6220820265495,506.2519277315349 L433.1213349749634,504.71855965160455 M433.1213349749634,504.71855965160455 L436.7701668289538,503.47193243698706 M436.7701668289538,503.47193243698706 L440.5593042471047,502.5163751456662 M440.5593042471047,502.5163751456662 L444.47905191264795,501.8554890220423 M444.47905191264795,501.8554890220423 L448.519261152829,501.4920825103379 M448.519261152829,501.4920825103379 L452.66940318806326,501.42813463983384 M452.66940318806326,501.42813463983384 L456.91855862511073,501.66484051491034 M456.91855862511073,501.66484051491034 L461.2554666483177,502.20253447349273 M461.2554666483177,502.20253447349273 L465.66853979049193,503.04071669795223 M465.66853979049193,503.04071669795223 L470.1459069174609,504.1780310292132 M470.1459069174609,504.1780310292132 L474.6754368041533,505.6122537589117 M474.6754368041533,505.6122537589117 L479.2447789496535,507.34031317069946 M479.2447789496535,507.34031317069946 L483.8413975374488,509.3582416755978 M483.8413975374488,509.3582416755978 L488.45260787838976,511.66123667945504" stroke="black"  stroke-width="4"  fill="red"/></svg>