<svg viewBox="0 0 800 800" xmlns="http://www.w3.org/2000/svg"><path d="M435.89321794440946,657.0971723054331 L436.8929830784138,109.96581898034776 M436.8929830784138,109.96581898034776 L438.3921629746108,110.75509385585622 M438.3921629746108,110.75509385585622 L439.6320970032799,111.63432560138676 M439.6320970032799,111.63432560138676 L440.5873563218691,112.58580617322468 M440.5873563218691,112.58580617322468 L441.2381983435089,113.59032470905919 M441.2381983435089,113.59032470905919 L441.5709924412917,114.62754586587454 M441.5709924412917,114.62754586587454 L441.57852615625336,115.67641557170487 M441.57852615625336,115.67641557170487 L441.26018915947566,116.71558298711693 M441.26018915947566,116.71558298711693 L440.62202270563216,117.72383637221571 M440.62202270563216,117.72383637221571 L439.6766305234626,118.68053781616368 M439.6766305234626,118.68053781616368 L438.4429558169714,119.56605349973813 M438.4429558169714,119.56605349973813 L436.94592032686666,120.36216629939008 M436.94592032686666,120.36216629939008 L435.2159323751524,121.05246180957636 M435.2159323751524,121.05246180957636 L433.2882723374795,121.62267881833202 M433.2882723374795,121.62267881833202 L431.2023707881722,122.06101719550225 M431.2023707881722,122.06101719550225 L429.00099116302897,122.35839404097084 M429.00099116302897,122.35839404097084 L426.72933447828575,122.50864168679345 M426.72933447828575,122.50864168679345 L424.4340852169844,122.50864168679345 M424.4340852169844,122.50864168679345 L422.16242853224117,122.35839404097084 M422.16242853224117,122.35839404097084 L419.96104890709796,122.06101719550225 M419.96104890709796,122.06101719550225 L417.8751473577906,121.62267881833202 M417.8751473577906,121.62267881833202 L415.94748732011766,121.05246180957636 M415.94748732011766,121.05246180957636 L414.2174993684034,120.36216629939008 M414.2174993684034,120.36216629939008 L412.7204638782988,119.5660534997379 M412.7204638782988,119.5660534997379 L411.4867891718075,118.68053781616368 M411.4867891718075,118.68053781616368 L410.541396989638,117.72383637221571 M410.541396989638,117.72383637221571 L409.9032305357945,116.71558298711693 M409.9032305357945,116.71558298711693 L409.5848935390168,115.67641557170487 M409.5848935390168,115.67641557170487 L409.5924272539784,114.62754586587454 M409.5924272539784,114.62754586587454 L409.92522135176125,113.59032470905919 M409.92522135176125,113.59032470905919 L410.576063373401,112.58580617322468 M410.576063373401,112.58580617322468 L411.5313226919902,111.63432560138676 M411.5313226919902,111.63432560138676 L412.77125672065927,110.75509385585599 M412.77125672065927,110.75509385585599 L414.27043661685633,109.96581898034776 M414.27043661685633,109.96581898034776 L415.9982803184629,109.2823614177504 M415.9982803184629,109.2823614177504 L417.91968114041885,108.71842840572685 M417.91968114041885,108.71842840572685 L419.9957155764426,108.28531097306688 M419.9957155764426,108.28531097306688 L422.1844195662555,107.99166904160768 M422.1844195662555,107.99166904160768 L424.441619013231,107.84336769546064 M424.441619013231,107.84336769546064 L426.7218006820391,107.84336769546064 M426.7218006820391,107.84336769546064 L428.97900012901465,107.99166904160768 M428.97900012901465,107.99166904160768 L431.16770411882754,108.28531097306688 M431.16770411882754,108.28531097306688 L433.24373855485123,108.71842840572685 M433.24373855485123,108.71842840572685 L435.1651393768072,109.2823614177504 M435.1651393768072,109.2823614177504 L436.8929830784138,109.96581898034776 M435.89321794440946,657.0971723054331 L437.2240434678572,658.01363504611 M437.2240434678572,658.01363504611 L438.30926078303384,659.0897997767769 M438.30926078303384,659.0897997767769 L439.17158883198766,660.3364283675699 M439.17158883198766,660.3364283675699 L439.78118249963995,661.7151483343104 M439.78118249963995,661.7151483343104 L440.1220257820367,663.1933912087956 M440.1220257820367,663.1933912087956 L440.17869276891133,664.7262503062003 M440.17869276891133,664.7262503062003 L439.94214718752795,666.2587671942383 M439.94214718752795,666.2587671942383 L439.41590103543354,667.7259195461837 M439.41590103543354,667.7259195461837 L438.6159028415216,669.0706510266552 M438.6159028415216,669.0706510266552 L437.68073519350384,670.13964902262 M437.68073519350384,670.13964902262 L436.56162485063,671.0507089382227 M436.56162485063,671.0507089382227 L435.27483674811646,671.790881169466 M435.27483674811646,671.790881169466 L433.6638673783475,672.4044666411556 M433.6638673783475,672.4044666411556 L431.8786612218064,672.793123750516 M431.8786612218064,672.793123750516 L430.13665504310615,672.949747513491 M430.13665504310615,672.949747513491 L428.2901461515677,672.9257776023837 M428.2901461515677,672.9257776023837 L426.37227671236377,672.7302026283129 M426.37227671236377,672.7302026283129 L424.42340766082367,672.379481978973 M424.42340766082367,672.379481978973 L422.49075709841105,671.8971886880038 M422.49075709841105,671.8971886880038 L420.6228891704195,671.3118817273712 M420.6228891704195,671.3118817273712 L418.8611909435921,670.6524871634209 M418.8611909435921,670.6524871634209 L417.2364852481218,669.9442463912849 M417.2364852481218,669.9442463912849 L416.19864405314104,669.4333901727244 M416.19864405314104,669.4333901727244 L415.2262270248945,668.9040135552854 M415.2262270248945,668.9040135552854 L413.8970835122205,668.0737916147552 M413.8970835122205,668.0737916147552 L412.81664109660693,667.2563181958989 M412.81664109660693,667.2563181958989 L411.9619494187046,666.4305762717267 M411.9619494187046,666.4305762717267 L411.3623034694471,665.6078232422132 M411.3623034694471,665.6078232422132 L411.0330451821208,664.7863363334476 M411.0330451821208,664.7863363334476 L410.9887328185226,663.9644731201201 M410.9887328185226,663.9644731201201 L411.2373958195261,663.1402633111829 M411.2373958195261,663.1402633111829 L411.7744544237967,662.314945461251 M411.7744544237967,662.314945461251 L412.58306051429497,661.4887768303358 M412.58306051429497,661.4887768303358 L413.5235506838243,660.7452462706935 M413.5235506838243,660.7452462706935 L414.6453860999445,660.0048400293828 M414.6453860999445,660.0048400293828 L415.93218685617296,659.2716821093475 M415.93218685617296,659.2716821093475 L417.5399997007904,658.4741610552741 M417.5399997007904,658.4741610552741 L419.3188727310077,657.7111607216457 M419.3188727310077,657.7111607216457 L421.0527405626408,657.0740131197505 M421.0527405626408,657.0740131197505 L422.8892463513235,656.5109181595441 M422.8892463513235,656.5109181595441 L424.7958841754069,656.0528430104386 M424.7958841754069,656.0528430104386 L426.7330906122966,655.7310742952544 M426.7330906122966,655.7310742952544 L428.65454023156866,655.573185789609 M428.65454023156866,655.573185789609 L430.51253484506293,655.5982161308934 M430.51253484506293,655.5982161308934 L432.2663901743314,655.8143910724344 M432.2663901743314,655.8143910724344 L433.8857633913127,656.2206535198349 M433.8857633913127,656.2206535198349 L434.9215160837934,656.6117112002146 M434.9215160837934,656.6117112002146 L435.89321794440946,657.0971723054331 M421.18420584840084,400.61597460685056 L423.3029137193206,401.2274114151006 M423.3029137193206,401.2274114151006 L425.46730400233304,401.75962233106895 M425.46730400233304,401.75962233106895 L427.6521717050401,402.20521855435726 M427.6521717050401,402.20521855435726 L429.8034599827179,402.5514595503287 M429.8034599827179,402.5514595503287 L431.8750308003838,402.78977259078874 M431.8750308003838,402.78977259078874 L433.82113672419615,402.91388973944026 M433.82113672419615,402.91388973944026 L435.1816093500062,402.92962132733004 M435.1816093500062,402.92962132733004 L436.42639529313607,402.87768955727233 M436.42639529313607,402.87768955727233 L437.558596824666,402.19796079372344 M437.558596824666,402.19796079372344 L438.1916305775434,401.7418931454593 M438.1916305775434,401.7418931454593 L438.76359140612703,401.26442573792605 M440.2320851872503,394.3660279553835 L440.6877441835039,395.484413614608 M440.6877441835039,395.484413614608 L440.8812297411429,396.67948511856656 M440.8812297411429,396.67948511856656 L440.79285748420654,397.8427943515652 M440.79285748420654,397.8427943515652 L440.43330379387163,398.9864673556177 M440.43330379387163,398.9864673556177 L439.809978817589,400.08047055634603 M439.809978817589,400.08047055634603 L439.3343431076506,400.6802963152054 M439.3343431076506,400.6802963152054 L438.76359140612703,401.26442573792605 M440.49182177800077,289.6619605112977 L440.2320851872503,394.3660279553835 M440.49182177800077,289.6619605112977 L440.96096623751276,290.670571133683 M440.96096623751276,290.670571133683 L441.1528573561935,291.7016331859477 M441.1528573561935,291.7016331859477 L441.0636761830121,292.7365641160575 M441.0636761830121,292.7365641160575 L440.6946741937701,293.75666245947457 M440.6946741937701,293.75666245947457 L440.05217502259296,294.7434485014561 M440.05217502259296,294.7434485014561 L439.14748548411814,295.6790020781703 M439.14748548411814,295.6790020781703 L437.99671325940267,296.54629232715234 M437.99671325940267,296.54629232715234 L436.6204905707212,297.32949582522195 M436.6204905707212,297.32949582522195 L434.9132818841883,298.3073545282101 M434.9132818841883,298.3073545282101 L433.00912903604285,299.15035695270905 M433.00912903604285,299.15035695270905 L430.94880727992916,299.84034217991916 M430.94880727992916,299.84034217991916 L428.9970982175016,300.3184141384328 M428.9970982175016,300.3184141384328 L426.9878938816908,300.65266207606066 M426.9878938816908,300.65266207606066 L424.9557058112243,300.8375185173216 M424.9557058112243,300.8375185173216 L423.0124252099209,300.8716464656085 M423.0124252099209,300.8716464656085 L421.1097770018755,300.7645261508559 M421.1097770018755,300.7645261508559 L421.18420584840084,400.61597460685056 M414.5928845861205,286.4286579010972 L414.78524240750954,391.69837731782303 M437.39790273416776,98.89924973785628 L341.22640728050214,142.77725697563153 M461.2036311901652,109.70782976036446 L437.39790273416776,98.89924973785628 M341.22640728050214,142.77725697563153 L365.0274046560523,154.02031244615873 M365.0274046560523,154.02031244615873 L461.2036311901652,109.70782976036446 M570.3068674106714,580.3080244685846 L567.9891399903453,579.1828225763637 M567.9891399903453,579.1828225763637 L565.6869264058238,578.3092217850314 M565.6869264058238,578.3092217850314 L563.4195117338546,577.6941523039553 M563.4195117338546,577.6941523039553 L561.2058255252755,577.3423381069641 M561.2058255252755,577.3423381069641 L559.0642776439305,577.2562585298149 M559.0642776439305,577.2562585298149 L557.0126057653086,577.4361527213838 M557.0126057653086,577.4361527213838 L555.067727941375,577.8800172822358 M555.067727941375,577.8800172822358 L553.245608538658,578.5836629757545 M553.245608538658,578.5836629757545 L551.5611243174839,579.5407439184032 M551.5611243174839,579.5407439184032 L550.0279569786362,580.7428456228248 M550.0279569786362,580.7428456228248 L548.6584814197488,582.1795527595987 M548.6584814197488,582.1795527595987 L547.4636808570722,583.838568951382 M547.4636808570722,583.838568951382 L546.4530619388545,585.7058154283395 M546.4530619388545,585.7058154283395 L545.6345918325895,587.7655677314403 M545.6345918325895,587.7655677314403 L545.0146522867273,590.0005943702919 M545.0146522867273,590.0005943702919 L544.5979833113619,592.3922959377878 M544.5979833113619,592.3922959377878 L544.387675148906,594.9208723774839 M544.387675148906,594.9208723774839 L544.385142796242,597.5654794820996 M544.385142796242,597.5654794820996 L544.5901274443194,600.3043990926973 M544.5901274443194,600.3043990926973 L545.0007080939071,603.1152132257358 M545.0007080939071,603.1152132257358 L545.6133291625471,605.9749818879399 M545.6133291625471,605.9749818879399 L546.4228254163255,608.8604184128226 M546.4228254163255,608.8604184128226 L547.4224767460654,611.7480720536944 M547.4224767460654,611.7480720536944 L548.6040580077722,614.6145041299105 M548.6040580077722,614.6145041299105 L549.9579083179368,617.436471815436 M549.9579083179368,617.436471815436 L551.4730039165651,620.1910977135027 M551.4730039165651,620.1910977135027 L553.1370488254212,622.8560430120629 M553.1370488254212,622.8560430120629 L554.9365618566256,625.4096888431179 M554.9365618566256,625.4096888431179 L556.8569819603283,627.8312796937847 M556.8569819603283,627.8312796937847 L558.8827763310692,630.1011005359724 M558.8827763310692,630.1011005359724 L560.9975573499798,632.2006220661015 M560.9975573499798,632.2006220661015 L563.1842057273852,634.1126409765227 M563.1842057273852,634.1126409765227 L565.4249981165432,635.8214237809867 M565.4249981165432,635.8214237809867 L567.7017414935011,637.3128249240276 M567.7017414935011,637.3128249240276 L569.9959119758122,638.5744129676494 M569.9959119758122,638.5744129676494 L572.2887968979562,639.5955687465398 M572.2887968979562,639.5955687465398 L574.5616400613152,640.3675785684363 M574.5616400613152,640.3675785684363 L576.7957885183713,640.8837211390799 M576.7957885183713,640.8837211390799 L578.9728418580622,641.1393246999238 M578.9728418580622,641.1393246999238 L581.0748007939006,641.1318273168714 M581.0748007939006,641.1318273168714 L583.084214099008,640.8608038640648 M583.084214099008,640.8608038640648 L584.9843241902944,640.3279898156892 M584.9843241902944,640.3279898156892 L586.7592095218038,639.537290788742 M586.7592095218038,639.537290788742 L588.3939218859997,638.4947477660187 M588.3939218859997,638.4947477660187 L589.8746205866242,637.2085281633875 M589.8746205866242,637.2085281633875 L591.1886909411434,635.6888549804629 M591.1886909411434,635.6888549804629 L592.3248657145671,633.9479428187087 M592.3248657145671,633.9479428187087 L593.2733277494251,631.9999125671745 M593.2733277494251,631.9999125671745 L594.0258080018031,629.8606827559793 M594.0258080018031,629.8606827559793 L594.5756614351975,627.5478417533106 M594.5756614351975,627.5478417533106 L594.917945050486,625.0805139010652 M594.917945050486,625.0805139010652 L595.0494623305839,622.4791955096406 M595.0494623305839,622.4791955096406 L594.9688064518273,619.7655872845652 M594.9688064518273,619.7655872845652 L594.6763831581931,616.9624096099658 M594.6763831581931,616.9624096099658 L594.1744189248918,614.0932081538366 M594.1744189248918,614.0932081538366 L593.4669373328304,611.1821422024002 M593.4669373328304,611.1821422024002 L592.5597490989744,608.253780925114 M592.5597490989744,608.253780925114 L591.4603888977049,605.3328754842364 M591.4603888977049,605.3328754842364 L590.1780590690909,602.4441445722089 M590.1780590690909,602.4441445722089 L588.7235535802389,599.6120461520226 M588.7235535802389,599.6120461520226 L587.1091562151091,596.8605664107088 M587.1091562151091,596.8605664107088 L585.3485385193486,594.2129924373887 M585.3485385193486,594.2129924373887 L583.456628116171,591.6917120774145 M583.456628116171,591.6917120774145 L581.4494826740153,589.3180041539397 M581.4494826740153,589.3180041539397 L579.3441361049389,587.1118637880124 M579.3441361049389,587.1118637880124 L577.1584481332166,585.091806707869 M577.1584481332166,585.091806707869 L574.9109406309672,583.2747229222011 M574.9109406309672,583.2747229222011 L572.6206328819673,581.6757239362748 M572.6206328819673,581.6757239362748 L570.3068674106714,580.3080244685846 M570.3068674106714,580.3080244685846 L435.89321794440946,657.0971723054331 M415.2262270248945,668.9040135552854 L360.3291630845962,700.2661466084362 M360.3291630845962,700.2661466084362 L362.6491082891722,701.7502296112617 M362.6491082891722,701.7502296112617 L364.9546215307991,703.4702742462111 M364.9546215307991,703.4702742462111 L367.22622669486987,705.412051611086 M367.22622669486987,705.412051611086 L369.44469301902006,707.5593981004499 M369.44469301902006,707.5593981004499 L371.591211033415,709.8943429389584 M371.591211033415,709.8943429389584 L373.6475605576674,712.3972708765776 M373.6475605576674,712.3972708765776 L375.5962774288484,715.0470784164039 M375.5962774288484,715.0470784164039 L377.42080904562397,717.8213802518685 M377.42080904562397,717.8213802518685 L379.10567241202375,720.6966944626014 M379.10567241202375,720.6966944626014 L380.63658615478494,723.6486627342932 M380.63658615478494,723.6486627342932 L382.0006076449782,726.6522610069683 M382.0006076449782,726.6522610069683 L383.1862419304736,729.6820368990846 M383.1862419304736,729.6820368990846 L384.1835497055664,732.7123304729741 M384.1835497055664,732.7123304729741 L384.9842304817855,735.7175116432943 M384.9842304817855,735.7175116432943 L385.58168573024057,738.6722026732851 M385.58168573024057,738.6722026732851 L385.9710891254699,741.5515145680749 M385.9710891254699,741.5515145680749 L386.1494035481024,744.3312566597216 M386.1494035481024,744.3312566597216 L386.1154116435254,746.9881546559594 M386.1154116435254,746.9881546559594 L385.86971443392304,749.5000496691734 M385.86971443392304,749.5000496691734 L385.41471503909827,751.8460866109012 M385.41471503909827,751.8460866109012 L384.7545817345738,754.006884099091 M384.7545817345738,754.006884099091 L383.89520961243556,755.9647004744897 M383.89520961243556,755.9647004744897 L382.844148156577,757.7035675483236 M382.844148156577,757.7035675483236 L381.6105306892405,759.2094180535236 M381.6105306892405,759.2094180535236 L380.2049814162449,760.4701925212092 M380.2049814162449,760.4701925212092 L378.63951716113047,761.4759219861205 M378.63951716113047,761.4759219861205 L376.92742994460815,762.2187880690257 M376.92742994460815,762.2187880690257 L375.08317278494076,762.6931901180138 M375.08317278494076,762.6931901180138 L373.12222797142414,762.8957483941161 M373.12222797142414,762.8957483941161 L371.0609733402903,762.8253335685315 M371.0609733402903,762.8253335685315 L368.9165420681832,762.4830507237833 M368.9165420681832,762.4830507237833 L366.70667895323254,761.8722087204223 M366.70667895323254,761.8722087204223 L364.4495953945264,760.9982863343583 M364.4495953945264,760.9982863343583 L362.16382166575715,759.8688643820923 M362.16382166575715,759.8688643820923 L359.8680587493083,758.4935611760588 M359.8680587493083,758.4935611760588 L357.58103164695024,756.8839377599121 M357.58103164695024,756.8839377599121 L355.3213440658342,755.0533969460175 M355.3213440658342,755.0533969460175 L353.10733611924775,753.0170775731383 M353.10733611924775,753.0170775731383 L350.9569442540326,750.7917203895622 M350.9569442540326,750.7917203895622 L348.8875658685796,748.3955425290973 M348.8875658685796,748.3955425290973 L346.9159296373802,745.8480860977533 M346.9159296373802,745.8480860977533 L345.0579703451826,743.1700707060892 M345.0579703451826,743.1700707060892 L343.3287095902602,740.3832412782541 M343.3287095902602,740.3832412782541 L341.74214392589084,737.5101836796183 M341.74214392589084,737.5101836796183 L340.3111368795431,734.5741750125748 M340.3111368795431,734.5741750125748 L339.0473274633292,731.598995832312 M339.0473274633292,731.598995832312 L337.9610353073631,728.6087506435938 M337.9610353073631,728.6087506435938 L337.061183253575,725.62769271121 M337.061183253575,725.62769271121 L336.3552227995868,722.6800344300144 M336.3552227995868,722.6800344300144 L335.84907876515416,719.7897661626903 M335.84907876515416,719.7897661626903 L335.54708875428975,716.9804682130124 M335.54708875428975,716.9804682130124 L335.4519720109433,714.2751312002405 M335.4519720109433,714.2751312002405 L335.56479544228415,711.6959736640541 M335.56479544228415,711.6959736640541 L335.884955343402,709.2642638730744 M335.884955343402,709.2642638730744 L336.41016914692364,707.0001458563204 M336.41016914692364,707.0001458563204 L337.13649398668554,704.9224802579935 M337.13649398668554,704.9224802579935 L338.05832770321956,703.0486733605462 M338.05832770321956,703.0486733605462 L339.1684581904019,701.3945364954642 M339.1684581904019,701.3945364954642 L340.4581025730567,699.974145376758 M340.4581025730567,699.974145376758 L341.9169631107246,698.7997018978566 M341.9169631107246,698.7997018978566 L343.5333060867368,697.8814355265757 M343.5333060867368,697.8814355265757 L345.2940399727471,697.2274829570787 M345.2940399727471,697.2274829570787 L347.184821937858,696.8438219013235 M347.184821937858,696.8438219013235 L349.19015950936677,696.7341839165929 M349.19015950936677,696.7341839165929 L351.29354047723416,696.9000284058505 M351.29354047723416,696.9000284058505 L353.4775620600971,697.3404884717496 M353.4775620600971,697.3404884717496 L355.72407550572353,698.0523777640694 M355.72407550572353,698.0523777640694 L358.01433555804994,699.0301906209703 M358.01433555804994,699.0301906209703 L360.3291630845962,700.2661466084362 M436.42639529313607,402.87768955727233 L393.343370849929,405.997892844322 M387.62641303772244,403.01457466950103 L393.343370849929,405.997892844322 M421.18420584840084,400.61597460685056 L387.62641303772244,403.01457466950103 M439.101248933546,401.43865612184914 L436.42639529313607,402.87768955727233 M439.101248933546,401.43865612184914 L438.76359140612703,401.26442573792605 M521.5465028853665,261.7248210986115 L521.0860514944792,267.2859443125109 M521.0860514944792,267.2859443125109 L520.4118286930589,272.9146228870135 M520.4118286930589,272.9146228870135 L519.5259462484586,278.5970105171916 M519.5259462484586,278.5970105171916 L518.4310215161603,284.3191540901724 M518.4310215161603,284.3191540901724 L517.1301039750219,290.06714623572356 M517.1301039750219,290.06714623572356 L515.6267164703388,295.82700709623623 M515.6267164703388,295.82700709623623 L513.9248262061401,301.5848138746511 M513.9248262061401,301.5848138746511 L512.0288115232825,307.32662021389314 M512.0288115232825,307.32662021389314 L509.94349249313444,313.03868219595483 M509.94349249313444,313.03868219595483 L507.6740930731568,318.70725318294035 M507.6740930731568,318.70725318294035 L505.2262277227702,324.31878988936285 M505.2262277227702,324.31878988936285 L502.60590732989215,329.8597475762314 M502.60590732989215,329.8597475762314 L499.81951290666575,335.3169615985848 M499.81951290666575,335.3169615985848 L496.87378398898954,340.6773051879179 M496.87378398898954,340.6773051879179 L493.7758170082426,345.92793302164233 M493.7758170082426,345.92793302164233 L490.5330301128237,351.0562476671553 M490.5330301128237,351.0562476671553 L487.1531790482378,356.04988296730926 M487.1531790482378,356.04988296730926 L483.64431729503605,360.8968219837743 M483.64431729503605,360.8968219837743 L480.01480133575006,365.5853037007421 M480.01480133575006,365.5853037007421 L476.2732605186797,370.1039170797386 M476.2732605186797,370.1039170797386 L472.4285937826573,374.4415983718643 M472.4285937826573,374.4415983718643 L468.48994483216853,378.5877036964173 M468.48994483216853,378.5877036964173 L464.4666956278751,382.5319474402811 M464.4666956278751,382.5319474402811 L460.36844839606977,386.2644527415934 M460.36844839606977,386.2644527415934 L456.2049990558444,389.7758286899533 M456.2049990558444,389.7758286899533 L451.9863326143536,393.05715344863194 M451.9863326143536,393.05715344863194 L447.72260011892615,396.0999470728621 M447.72260011892615,396.0999470728621 L443.4240969102752,398.8962499171959 M443.4240969102752,398.8962499171959 L439.101248933546,401.43865612184914 M515.7542484388714,258.94919558788234 L515.3106879466795,264.3897503265 M515.3106879466795,264.3897503265 L514.6620623650058,269.89514786653143 M514.6620623650058,269.89514786653143 L513.8103438785238,275.4523689573464 M513.8103438785238,275.4523689573464 L512.7579393287934,281.04840419786217 M512.7579393287934,281.04840419786217 L511.5076797794504,286.6701631353077 M511.5076797794504,286.6701631353077 L510.06282596732615,292.30450329977805 M510.06282596732615,292.30450329977805 L508.42703102646834,297.93836505650734 M508.42703102646834,297.93836505650734 L506.60435689478476,303.5587516757181 M506.60435689478476,303.5587516757181 L504.59924179398354,309.1526497684779 M504.59924179398354,309.1526497684779 L502.4165239009653,314.70721766610905 M502.4165239009653,314.70721766610905 L500.06139047330055,320.2096309722163 M500.06139047330055,320.2096309722163 L497.53939934852133,325.6472510745227 M497.53939934852133,325.6472510745227 L494.85644449637584,331.0076320421556 M494.85644449637584,331.0076320421556 L492.01876118453197,336.27844496278124 M492.01876118453197,336.27844496278124 L489.03290884654785,341.4475617094743 M489.03290884654785,341.4475617094743 L485.9057635213429,346.50311320331315 M485.9057635213429,346.50311320331315 L482.64449101958564,351.4334321682545 M482.64449101958564,351.4334321682545 L479.25655771304406,356.22708262582046 M479.25655771304406,356.22708262582046 L475.74969440113165,360.8729981730114 M475.74969440113165,360.8729981730114 L472.1319099971516,365.3603226642312 M472.1319099971516,365.3603226642312 L468.41144318349455,369.6785777257965 M468.41144318349455,369.6785777257965 L464.5967846180349,373.81756406142705 M464.5967846180349,373.81756406142705 L460.69664001225465,377.7675251067449 M460.69664001225465,377.7675251067449 L456.71992744641506,381.51900031787096 M456.71992744641506,381.51900031787096 L452.67574930429555,385.0629654634207 M452.67574930429555,385.0629654634207 L448.57339515542645,388.3908321468401 M448.57339515542645,388.3908321468401 L444.4223103078096,391.494424127948 M444.4223103078096,391.494424127948 L440.2320851872503,394.3660279553835 M521.5465028853665,261.7248210986115 L515.7542484388714,258.94919558788234 M516.0188641044084,252.20505704243368 L515.7542484388714,258.94919558788234 M440.49182177800077,289.6619605112977 L516.0188641044084,252.20505704243368 M436.6204905707212,297.32949582522195 L521.8176226933192,254.97574517948743 M521.8176226933192,254.97574517948743 L516.0188641044084,252.20505704243368 M316.598293549667,375.4177436320847 L436.6204905707212,297.32949582522195 M310.8178680981249,372.38977737239424 L421.1097770018755,300.7645261508559 M316.598293549667,375.4177436320847 L310.8178680981249,372.38977737239424 M307.8305708584732,408.7180977902175 L306.0988904286419,408.6312991440321 M306.0988904286419,408.6312991440321 L304.4750275678291,408.23951552274235 M304.4750275678291,408.23951552274235 L302.9847041784589,407.54849606298467 M302.9847041784589,407.54849606298467 L301.651633514905,406.56856082815875 M301.651633514905,406.56856082815875 L300.497116468069,405.3147910953559 M300.497116468069,405.3147910953559 L299.5396917193773,403.80652475343476 M299.5396917193773,403.80652475343476 L298.7948372555509,402.0673032419015 M298.7948372555509,402.0673032419015 L298.2746779242482,400.12436494060955 M298.2746779242482,400.12436494060955 L297.9877794648212,398.0083061415891 M297.9877794648212,398.0083061415891 L297.9390135090845,395.7525197683107 M297.9390135090845,395.7525197683107 L298.1294289823282,393.3927991230554 M298.1294289823282,393.3927991230554 L298.5562147214578,390.96662191061614 M298.5562147214578,390.96662191061614 L299.212766275075,388.51264177107555 M299.212766275075,388.51264177107555 L300.0887558868152,386.06999668934736 M300.0887558868152,386.06999668934736 L301.1702879390726,383.67775025282685 M301.1702879390726,383.67775025282685 L302.4401408671345,381.3740678558161 M302.4401408671345,381.3740678558161 L303.8780442657014,379.19582284105354 M303.8780442657014,379.19582284105354 L305.4609986972095,377.177697155475 M305.4609986972095,377.177697155475 L307.16368849363585,375.351909658173 M307.16368849363585,375.351909658173 L308.95886872916856,373.7474318072958 M308.95886872916856,373.7474318072958 L310.8178680981249,372.38977737239424 M358.30571703420225,405.1103205905695 L307.8305708584732,408.7180977902175 M357.86773990058936,366.73255650052727 L358.30571703420225,405.1103205905695 M387.297567035728,351.9213998391672 L357.86773990058936,366.73255650052727 M387.62641303772244,403.01457466950103 L387.297567035728,351.9213998391672 M437.39790273416776,98.89924973785628 L435.8525323744063,98.06846157584982 M435.8525323744063,98.06846157584982 L434.3348609500725,96.99426471371055 M434.3348609500725,96.99426471371055 L432.8706043023257,95.69505332711645 M432.8706043023257,95.69505332711645 L431.48454939176,94.19299287885747 M431.48454939176,94.19299287885747 L430.20014195245454,92.51364500047634 M430.20014195245454,92.51364500047634 L429.03910818067396,90.68547733679281 M429.03910818067396,90.68547733679281 L428.0211007957464,88.7394378869867 M428.0211007957464,88.7394378869867 L427.16337154004077,86.70850193779313 M427.16337154004077,86.70850193779313 L426.4804925000795,84.62706222720954 M426.4804925000795,84.62706222720954 L425.9841172519759,82.53034081082615 M425.9841172519759,82.53034081082615 L425.6827700043597,80.4539077931039 M425.6827700043597,80.4539077931039 L425.58170984763507,78.43300330634759 M425.58170984763507,78.43300330634759 L329.1756497709117,121.90473269932869 M341.22640728050214,142.77725697563153 L339.6794673581872,141.91670562006698 M339.6794673581872,141.91670562006698 L338.1561978741354,140.81002058215404 M338.1561978741354,140.81002058215404 L336.68240760836505,139.47614925944367 M336.68240760836505,139.47614925944367 L335.28304229729275,137.93784439817762 M335.28304229729275,137.93784439817762 L333.98176990669026,136.22127923790026 M333.98176990669026,136.22127923790026 L332.8005978713114,134.35554673951412 M332.8005978713114,134.35554673951412 L331.75951551371253,132.37222456131758 M331.75951551371253,132.37222456131758 L330.8761622158516,130.30491271397614 M330.8761622158516,130.30491271397614 L330.165541487887,128.18861313450998 M330.165541487887,128.18861313450998 L329.639774803107,126.05913175679586 M329.639774803107,126.05913175679586 L329.3078847953938,123.9525891363765 M329.3078847953938,123.9525891363765 L329.1756497709117,121.90473269932869 M461.2036311901652,109.70782976036446 L462.74241333144886,108.86975789922099 M462.74241333144886,108.86975789922099 L464.2555899467746,107.7875984524627 M464.2555899467746,107.7875984524627 L465.71751997753825,106.47988172187826 M465.71751997753825,106.47988172187826 L467.10345918284366,104.96891576560824 M467.10345918284366,104.96891576560824 L468.38996056918205,103.28041405638169 M468.38996056918205,103.28041405638169 L469.55526439641505,101.44299754567373 M469.55526439641505,101.44299754567373 L470.57964669598,99.48776928464241 M470.57964669598,99.48776928464241 L471.4457485289997,97.44785855592073 M471.4457485289997,97.44785855592073 L472.1388569333401,95.3578084234166 M472.1388569333401,95.3578084234166 L472.64714623934196,93.25298517925421 M472.64714623934196,93.25298517925421 L472.96189083120464,91.16909507360282 M472.96189083120464,91.16909507360282 L473.07760497100855,89.14150388420296 M473.07760497100855,89.14150388420296 L449.2140956207005,78.43300330634759 M437.39790273416776,98.89924973785628 L438.9362618137267,98.06846157584982 M438.9362618137267,98.06846157584982 L440.44802874084456,96.99426471371055 M440.44802874084456,96.99426471371055 L441.90758586762644,95.69505383887667 M441.90758586762644,95.69505383887667 L443.29022848000983,94.19299287885747 M443.29022848000983,94.19299287885747 L444.5725646331991,92.51364500047634 M444.5725646331991,92.51364500047634 L445.7329040584071,90.68547733679281 M445.7329040584071,90.68547733679281 L446.75160577896145,88.7394378869867 M446.75160577896145,88.7394378869867 L447.6114062988859,86.70850193779313 M447.6114062988859,86.70850193779313 L448.29769876475024,84.62706222720954 M448.29769876475024,84.62706222720954 L448.79877248276205,82.53034081082615 M448.79877248276205,82.53034081082615 L449.10602421665527,80.4539077931039 M449.10602421665527,80.4539077931039 L449.2140956207005,78.43300330634759 M341.22640728050214,142.77725697563153 L339.6238006963428,143.37688309924977 M339.6238006963428,143.37688309924977 L338.0438191486959,143.705074063207 M338.0438191486959,143.705074063207 L336.5133788014488,143.75593176468294 M336.5133788014488,143.75593176468294 L335.05862308197845,143.52825976809254 M335.05862308197845,143.52825976809254 L333.7044694766861,143.0256125547519 M333.7044694766861,143.0256125547519 L332.47419909865863,142.25618415960724 M332.47419909865863,142.25618415960724 L331.38902626282527,141.23275067273846 M331.38902626282527,141.23275067273846 L330.467741202366,139.9725283631667 M330.467741202366,139.9725283631667 L329.7263825600926,138.49682399744688 M329.7263825600926,138.49682399744688 L329.1779060863324,136.83067929379183 M329.1779060863324,136.83067929379183 L328.8319843898167,135.00254199242875 M328.8319843898167,135.00254199242875 L328.6948215411026,133.04368580438813 M365.0274046560523,154.02031244615873 L363.4250601073123,154.62683108808278 M363.4250601073123,154.62683108808278 L361.84632871912083,154.96097840992033 M361.84632871912083,154.96097840992033 L360.3181059439826,155.01675245760887 M360.3181059439826,155.01675245760887 L358.8664983491912,154.7928700749775 M358.8664983491912,154.7928700749775 L357.5163709597185,154.29281786110633 M357.5163709597185,154.29281786110633 L356.29093788131166,153.52474188323762 M356.29093788131166,153.52474188323762 L355.211332725345,152.50139149363233 M355.211332725345,152.50139149363233 L354.2962523503066,151.2399782654858 M354.2962523503066,151.2399782654858 L353.56163109378605,149.76182634675345 M353.56163109378605,149.76182634675345 L353.0203112197381,148.09201691359237 M353.0203112197381,148.09201691359237 L352.68184410359567,146.25905888374146 M352.68184410359567,146.25905888374146 L352.5523071955307,144.29430761225493 M345.08719646326216,140.77393925411593 L352.5523071955307,144.29430761225493 M336.10873592741495,136.53991118557474 L337.6543818278249,137.93852448459097 M337.6543818278249,137.93852448459097 L339.2332639426536,139.05857152906185 M339.2332639426536,139.05857152906185 L340.8776937397999,139.937429360652 M340.8776937397999,139.937429360652 L342.34248388549213,140.47493452601265 M342.34248388549213,140.47493452601265 L343.72587581282164,140.75154159136423 M343.72587581282164,140.75154159136423 L345.08719646326216,140.77393925411593 M328.6948215411026,133.04368580438813 L336.10873592741495,136.53991118557474 M365.0274046560523,154.02031244615873 L366.58772776613927,154.6268300098514 M366.58772776613927,154.6268300098514 L368.11995541641704,154.9609773311157 M368.11995541641704,154.9609773311157 L369.59797726530695,155.01675191797014 M369.59797726530695,155.01675191797014 L370.99653680345375,154.7928700749775 M370.99653680345375,154.7928700749775 L372.291667518764,154.29281678121174 M372.291667518764,154.29281678121174 L373.46110013640885,153.52474188323762 M373.46110013640885,153.52474188323762 L374.4846503669097,152.50139149363233 M374.4846503669097,152.50139149363233 L375.34458221847274,151.23997718556032 M375.34458221847274,151.23997718556032 L376.02592067256813,149.7618285061399 M376.02592067256813,149.7618285061399 L376.5167219841415,148.09201799293663 M376.5167219841415,148.09201799293663 L376.808312211443,146.25905672597307 M376.808312211443,146.25905672597307 L376.89544141289883,144.29430761225493 M376.89544141289883,144.29430761225493 L473.3110000330399,99.95524771098087 M461.2036311901652,109.70782976036446 L462.76613995210914,110.28740630174201 M462.76613995210914,110.28740630174201 L464.30457140601084,110.59832648038287 M464.30457140601084,110.59832648038287 L465.79271210404244,110.63499289842059 M465.79271210404244,110.63499289842059 L467.2051369591903,110.39645906288229 M467.2051369591903,110.39645906288229 L468.5176479508942,109.88647265555892 M468.5176479508942,109.88647265555892 L469.707685957926,109.11336732416089 M469.707685957926,109.11336732416089 L470.75472228007965,108.08998946924567 M470.75472228007965,108.08998946924567 L471.6406263985366,106.8335639270548 M471.6406263985366,106.8335639270548 L472.3499860046488,105.36534636319988 M472.3499860046488,105.36534636319988 L472.8703846973099,103.71024915183534 M472.8703846973099,103.71024915183534 L473.1926465366616,101.89653744631653 M473.1926465366616,101.89653744631653 L473.3110000330399,99.95524771098087 M521.8176226933192,254.97574517948743 L521.5465028853665,261.7248210986115 M393.06372249814274,354.8694506646908 L393.343370849929,405.997892844322 M363.6331741366347,369.71618592858727 L393.06372249814274,354.8694506646908 M364.0343394556092,408.1205346078558 L363.6331741366347,369.71618592858727 M364.0343394556092,408.1205346078558 L313.57794344742143,411.7747089351118 M316.598293549667,375.4177436320847 L314.7387864106326,376.77797514036683 M314.7387864106326,376.77797514036683 L312.94283755108995,378.3851551020393 M312.94283755108995,378.3851551020393 L311.2391309106508,380.2137265290555 M311.2391309106508,380.2137265290555 L309.6549279220241,382.2346733072727 M309.6549279220241,382.2346733072727 L308.2155646060772,384.41573109068906 M308.2155646060772,384.41573109068906 L306.9440639843918,386.72217254751524 M306.9440639843918,386.72217254751524 L305.8607231612467,389.1170796444763 M305.8607231612467,389.1170796444763 L304.9827927751752,391.56224396283466 M304.9827927751752,391.56224396283466 L304.32419961936375,394.0185611285676 M304.32419961936375,394.0185611285676 L303.8953040437692,396.44685545906947 M303.8953040437692,396.44685545906947 L303.7027440513983,398.8084392863795 M303.7027440513983,398.8084392863795 L303.74936470390406,401.06580514336713 M303.74936470390406,401.06580514336713 L304.03415089020194,403.18313468263545 M304.03415089020194,403.18313468263545 L304.55226404571664,405.1270151522553 M304.55226404571664,405.1270151522553 L305.2951703574969,406.8668358266309 M305.2951703574969,406.8668358266309 L306.2507752145121,408.3753495658015 M306.2507752145121,408.3753495658015 L307.4036288087219,409.62901188929783 M307.4036288087219,409.62901188929783 L308.73521801556694,410.60848766595814 M308.73521801556694,410.60848766595814 L310.22426473631083,411.29870391652895 M310.22426473631083,411.29870391652895 L311.84707514791734,411.6893544282814 M311.84707514791734,411.6893544282814 L313.57794344742143,411.7747089351118 M393.06372249814274,354.8694506646908 L387.297567035728,351.9213998391672 M313.57794344742143,411.7747089351118 L307.8305708584732,408.7180977902175 M364.0343394556092,408.1205346078558 L358.30571703420225,405.1103205905695 M363.6331741366347,369.71618592858727 L357.86773990058936,366.73255650052727 M437.39790273416776,98.89924973785628 L437.39790273416776,98.89924973785628 M425.58170984763507,78.43300330634759 L427.22463472845266,77.783311096141 M427.22463472845266,77.783311096141 L429.04070115784583,77.23617353760517 M429.04070115784583,77.23617353760517 L430.9989827251395,76.80079317586365 M430.9989827251395,76.80079317586365 L433.0662110759549,76.48448395266348 M433.0662110759549,76.48448395266348 L435.2073121372497,76.29255185178067 M435.2073121372497,76.29255185178067 L437.38600614143076,76.22821447920705 M437.38600614143076,76.22821447920705 L439.56539444840394,76.29255185178067 M439.56539444840394,76.29255185178067 L441.70856676297177,76.48448395266348 M441.70856676297177,76.48448395266348 L443.77920746418505,76.80079266848452 M443.77920746418505,76.80079266848452 L445.7421886097578,77.23617353760517 M445.7421886097578,77.23617353760517 L447.5641595254445,77.783311096141 M447.5641595254445,77.783311096141 L449.2140956207005,78.43300330634759 M425.58170984763507,78.43300330634759 L425.58170984763507,48.00885213188013 M425.58170984763507,48.00885213188013 L328.6948215411026,91.09043252084666 M329.1756497709117,121.90473269932869 L328.6948215411026,91.09043252084666 M341.22640728050214,142.77725697563153 L341.22640728050214,142.77725697563153 M329.1756497709117,121.90473269932869 L327.6720150958235,122.67576613127346 M327.6720150958235,122.67576613127346 L326.39521540148473,123.52908062719825 M326.39521540148473,123.52908062719825 L325.367239847868,124.4502471009024 M325.367239847868,124.4502471009024 L324.6059181424258,125.42365226865036 M324.6059181424258,125.42365226865036 L324.12457815047384,126.43275404676399 M324.12457815047384,126.43275404676399 L323.93182962451755,127.46035483257356 M323.93182962451755,127.46035483257356 L324.03136276843634,128.48890082936248 M324.03136276843634,128.48890082936248 L324.42186910833647,129.50077072024476 M324.42186910833647,129.50077072024476 L325.09705270258127,130.47857666072423 M325.09705270258127,130.47857666072423 L326.0456727171003,131.40548340688656 M326.0456727171003,131.40548340688656 L327.2517481335738,132.26548395338966 M327.2517481335738,132.26548395338966 L328.6948215411026,133.04368580438813 M461.2036311901652,109.70782976036446 L461.2036311901652,109.70782976036446 M473.3110000330399,99.95524771098087 L474.74959481419825,99.19981532953568 M474.74959481419825,99.19981532953568 L475.9564757742635,98.36497401944615 M475.9564757742635,98.36497401944615 L476.9111458349051,97.46517148614635 M476.9111458349051,97.46517148614635 L477.5975087714599,96.51594100244017 M477.5975087714599,96.51594100244017 L478.0041358421817,95.53363399516923 M478.0041358421817,95.53363399516923 L478.124432259972,94.53512366054929 M478.124432259972,94.53512366054929 L477.9567222278352,93.53751643148075 M477.9567222278352,93.53751643148075 L477.5042634966157,92.55785719860796 M477.5042634966157,92.55785719860796 L476.77515433853745,91.61283924272232 M476.77515433853745,91.61283924272232 L475.782168364447,90.71852539888334 M475.782168364447,90.71852539888334 L474.54253395016843,89.89007642182605 M474.54253395016843,89.89007642182605 L473.07760497100855,89.14150388420296 M449.2140956207005,78.43300330634759 L449.3296574093218,48.00885213188013 M473.3110000330399,58.62046990582104 L449.3296574093218,48.00885213188013 M473.07760497100855,89.14150388420296 L473.3110000330399,58.62046990582104 M365.0274046560523,154.02031244615873 L365.0274046560523,154.02031244615873 M352.5523071955307,144.29430761225493 L354.223327211357,144.9840843055156 M354.223327211357,144.9840843055156 L356.07812972776145,145.56561912057683 M356.07812972776145,145.56561912057683 L358.08481389344615,146.02879498416672 M358.08481389344615,146.02879498416672 L360.2087995281955,146.36553598747278 M360.2087995281955,146.36553598747278 L362.4134406511689,146.5699595545004 M362.4134406511689,146.5699595545004 L364.66063035098193,146.6385008540502 M364.66063035098193,146.6385008540502 L366.9115160481582,146.5699606349982 M366.9115160481582,146.5699606349982 L369.1271875069379,146.3655349071707 M369.1271875069379,146.3655349071707 L371.26934871902796,146.02879768411668 M371.26934871902796,146.02879768411668 L373.3010214435952,145.5656212796503 M373.3010214435952,145.5656212796503 L375.18719550492466,144.98408322653478 M375.18719550492466,144.98408322653478 L376.89544141289883,144.29430761225493 M336.10873592741495,136.53991118557474 L334.6465297440586,134.88658294713707 M334.6465297440586,134.88658294713707 L333.30345335802986,133.03278522106132 M333.30345335802986,133.03278522106132 L332.10699164067944,131.01652259303194 M332.10699164067944,131.01652259303194 L331.0816484756192,128.87909716998956 M331.0816484756192,128.87909716998956 L330.24846223259755,126.6643038269757 M330.24846223259755,126.6643038269757 L329.62458326193894,124.41752257885128 M329.62458326193894,124.41752257885128 L329.2229264361126,122.18475750028472 M329.2229264361126,122.18475750028472 L329.0519050443375,120.01185526870688 M329.0519050443375,120.01185526870688 L329.11524589075475,117.94352571936736 M329.11524589075475,117.94352571936736 L329.4119004545743,116.0224480187768 M329.4119004545743,116.0224480187768 L329.93604248153446,114.28831434311701 M329.93604248153446,114.28831434311701 L330.67716322493044,112.77709495932902 M330.67716322493044,112.77709495932902 L331.62026138751486,111.52038178055079 M331.62026138751486,111.52038178055079 L332.74612783920435,110.54443394115742 M332.74612783920435,110.54443394115742 L334.0317165697441,109.86990787909326 M334.0317165697441,109.86990787909326 L335.4506003087053,109.51124027014487 M335.4506003087053,109.51124027014487 L336.97350282552196,109.47624565041701 M336.97350282552196,109.47624565041701 L338.5689007959885,109.76616484915041 M338.5689007959885,109.76616484915041 L340.2036717298746,110.37530961918623 M340.2036717298746,110.37530961918623 L341.84379244663916,111.29134518034414 M341.84379244663916,111.29134518034414 L343.455057658131,112.49544693847645 M343.455057658131,112.49544693847645 L345.0038103872547,113.96275464761305 M345.0038103872547,113.96275464761305 L346.45766351494456,115.66269248808112 M346.45766351494456,115.66269248808112 L347.7862009752284,117.55990570979327 M347.7862009752284,117.55990570979327 L348.9616312354365,119.61476383720958 M348.9616312354365,119.61476383720958 L349.9593891986507,121.78427672482496 M349.9593891986507,121.78427672482496 L350.75866844027956,124.02317709095519 M350.75866844027956,124.02317709095519 L351.3428555047186,126.28458799514772 M351.3428555047186,126.28458799514772 L351.6998892948493,128.52131926755453 M351.6998892948493,128.52131926755453 L351.82250577472166,130.68678062545547 M351.82250577472166,130.68678062545547 L351.70837582594316,132.73588855422247 M351.70837582594316,132.73588855422247 L351.36013559827495,134.62610383093852 M351.36013559827495,134.62610383093852 L350.78531245477734,136.31831566235644 M350.78531245477734,136.31831566235644 L349.99614160006274,137.77770895138553 M349.99614160006274,137.77770895138553 L349.0092826075556,138.97433637455924 M349.0092826075556,138.97433637455924 L347.845449170586,139.88377693352692 M347.845449170586,139.88377693352692 L346.52895565783473,140.48764877683033 M346.52895565783473,140.48764877683033 L345.08719646326216,140.77393925411593 M352.5523071955307,144.29430761225493 L352.18440088494077,113.28232972372763 M328.2091729781626,102.13076233230498 L352.18440088494077,113.28232972372763 M328.6948215411026,133.04368580438813 L328.2091729781626,102.13076233230498 M340.2036717298746,110.37530961918623 L159.44686118595513,191.64292848270495 M159.44686118595513,191.64292848270495 L161.074012540154,192.6101793115437 M161.074012540154,192.6101793115437 L162.6823537743493,193.86679110542315 M162.6823537743493,193.86679110542315 L164.23882737716957,195.38716695123662 M164.23882737716957,195.38716695123662 L165.71140691160997,197.14025524425938 M165.71140691160997,197.14025524425938 L167.0697720893941,199.09007509549954 M167.0697720893941,199.09007509549954 L168.28595859549606,201.19657472555087 M168.28595859549606,201.19657472555087 L169.33494987863517,203.41642560016447 M169.33494987863517,203.41642560016447 L170.1952090486658,205.7039394883986 M170.1952090486658,205.7039394883986 L170.84912992910495,208.01204759938403 M170.84912992910495,208.01204759938403 L171.28340678805336,210.29333799606138 M171.28340678805336,210.29333799606138 L171.48930418977704,212.50104319972567 M171.48930418977704,212.50104319972567 L171.4628216276667,214.58992423213732 M171.4628216276667,214.58992423213732 L171.2047610951769,216.51728834822168 M171.2047610951769,216.51728834822168 L170.7206935116552,218.2439454132632 M170.7206935116552,218.2439454132632 L170.02081602117957,219.73490772437674 M170.02081602117957,219.73490772437674 L169.11971587277938,220.96007665702183 M169.11971587277938,220.96007665702183 L168.03604528797493,221.89487056737778 M168.03604528797493,221.89487056737778 L166.79211990574973,222.52070675254168 M166.79211990574973,222.52070675254168 L165.41344230648733,222.82534028749905 M165.41344230648733,222.82534028749905 L163.9281672120996,222.80302395253597 M163.9281672120996,222.80302395253597 L162.36652549596695,222.4546895343692 M162.36652549596695,222.4546895343692 L160.76020430951618,221.78777642139553 M160.76020430951618,221.78777642139553 L159.1417127516787,220.8161026683054 M159.1417127516787,220.8161026683054 L157.54373703265546,219.55959571170706 M157.54373703265546,219.55959571170706 L155.99849493282278,218.04384384217667 M155.99849493282278,218.04384384217667 L154.53710293758618,216.29952445879056 M154.53710293758618,216.29952445879056 L153.1889749953722,214.3619077811994 M153.1889749953722,214.3619077811994 L151.981246024887,212.2700570714897 M151.981246024887,212.2700570714897 L150.93824737186802,210.06611406979368 M150.93824737186802,210.06611406979368 L150.08103047412783,207.79447811437916 M150.08103047412783,207.79447811437916 L149.42695509500498,205.500931561942 M149.42695509500498,205.500931561942 L148.98933944472543,203.23170680676765 M148.98933944472543,203.23170680676765 L148.77718933155847,201.03259398173702 M148.77718933155847,201.03259398173702 L148.795011958324,198.94813577279746 M148.795011958324,198.94813577279746 L149.042707038322,197.02066662880742 M149.042707038322,197.02066662880742 L149.51554325762186,195.28938531935273 M149.51554325762186,195.28938531935273 L150.20423330717324,193.78965412560567 M150.20423330717324,193.78965412560567 L151.0950963279243,192.55228205658557 M151.0950963279243,192.55228205658557 L152.1703094662046,191.60283941496908 M152.1703094662046,191.60283941496908 L153.40824223367554,190.9610956609709 M153.40824223367554,190.9610956609709 L154.7838774994358,190.6405843555358 M154.7838774994358,190.6405843555358 L156.26930706280658,190.6483392289402 M156.26930706280658,190.6483392289402 L157.834287486641,190.98460786502966 M157.834287486641,190.98460786502966 L159.44686118595513,191.64292848270495 M376.89544141289883,144.29430761225493 L376.6501705391722,113.28232972372763 M376.6501705391722,113.28232972372763 L473.54670023148634,69.33689378123279 M473.3110000330399,99.95524771098087 L473.54670023148634,69.33689378123279 M425.58170984763507,48.00885213188013 L427.2326661958267,47.365054197848394 M427.2326661958267,47.365054197848394 L429.057606251461,46.82288194626665 M429.057606251461,46.82288194626665 L431.0254532162934,46.39145363458056 M431.0254532162934,46.39145363458056 L433.102777379775,46.07801615078131 M433.102777379775,46.07801615078131 L435.2543348659778,45.88782679784697 M435.2543348659778,45.88782679784697 L437.4436704623203,45.82407364659741 M437.4436704623203,45.82407364659741 L439.63370716150166,45.88782679784697 M439.63370716150166,45.88782679784697 L441.7873561881638,46.07801615078131 M441.7873561881638,46.07801615078131 L443.8681261342358,46.39145313180745 M443.8681261342358,46.39145313180745 L445.84071871585945,46.82288194626665 M445.84071871585945,46.82288194626665 L447.67162111997743,47.365054197848394 M447.67162111997743,47.365054197848394 L449.3296574093218,48.00885213188013 M437.5140323939862,37.95308100324098 L435.9530080528073,37.39556505540395 M435.9530080528073,37.39556505540395 L434.4193606185708,37.11109244286877 M434.4193606185708,37.11109244286877 L432.9394355960904,37.10425160588386 M432.9394355960904,37.10425160588386 L431.53859221219653,37.374812035156026 M431.53859221219653,37.374812035156026 L430.240760723394,37.9177467045497 M430.240760723394,37.9177467045497 L429.06804029237884,38.723412790066504 M429.06804029237884,38.723412790066504 L428.0403293435978,39.77769734624661 M428.0403293435978,39.77769734624661 L427.17499098138177,41.06222116908259 M427.17499098138177,41.06222116908259 L426.4865762571178,42.55474956795376 M426.4865762571178,42.55474956795376 L425.98659608492034,44.22961718266686 M425.98659608492034,44.22961718266686 L425.6833288800254,46.05806717860787 M425.6833288800254,46.05806717860787 L425.58170984763507,48.00885213188013 M437.5140323939862,37.95308100324098 L340.3807400868467,81.04898969232983 M340.3807400868467,81.04898969232983 L338.822274068734,80.46528258118065 M338.822274068734,80.46528258118065 L337.29531510455007,80.15851955174787 M337.29531510455007,80.15851955174787 L335.8260910693705,80.133662355522 M335.8260910693705,80.133662355522 L334.4397728971775,80.39077784674646 M334.4397728971775,80.39077784674646 L333.1600354331373,80.9250559345486 M333.1600354331373,80.9250559345486 L332.0086611888489,81.72698842519242 M332.0086611888489,81.72698842519242 L331.0051759099364,82.78251276321669 M331.0051759099364,82.78251276321669 L330.1665199762404,84.07321510422673 M330.1665199762404,84.07321510422673 L329.50678058137646,85.576743604488 M329.50678058137646,85.576743604488 L329.03697248433957,87.26723640421272 M329.03697248433957,87.26723640421272 L328.7648528955574,89.11566316607718 M328.7648528955574,89.11566316607718 L328.6948215411026,91.09043252084666 M328.6948215411026,91.09043252084666 L327.1835180124155,91.85462159764302 M327.1835180124155,91.85462159764302 L325.9001580749993,92.70036440892852 M325.9001580749993,92.70036440892852 L324.8668445278085,93.61336074748874 M324.8668445278085,93.61336074748874 L324.1015007577773,94.57813653948676 M324.1015007577773,94.57813653948676 L323.617526485778,95.57829691436598 M323.617526485778,95.57829691436598 L323.4235802234019,96.5967970143115 M323.4235802234019,96.5967970143115 L323.5233766077577,97.61623863531304 M323.5233766077577,97.61623863531304 L323.9156066421545,98.61915633221724 M323.9156066421545,98.61915633221724 L324.5939487224861,99.58831575494708 M324.5939487224861,99.58831575494708 L325.5471111910959,100.50702998138053 M325.5471111910959,100.50702998138053 L326.75903786592784,101.35943276412127 M326.75903786592784,101.35943276412127 L328.2091729781626,102.13076233230498 M473.54670023148634,69.33689378123279 L474.9923158313795,68.58824321463959 M474.9923158313795,68.58824321463959 L476.20506027583974,67.76089954279632 M476.20506027583974,67.76089954279632 L477.1643377030439,66.86918151308203 M477.1643377030439,66.86918151308203 L477.85397544917856,65.92848351506768 M477.85397544917856,65.92848351506768 L478.26249185796496,64.95501051208055 M478.26249185796496,64.95501051208055 L478.3832634048604,63.96548427717789 M478.3832634048604,63.96548427717789 L478.21460996375174,62.976857428895585 M478.21460996375174,62.976857428895585 L477.7598092381867,62.00602129696256 M477.7598092381867,62.00602129696256 L477.0270030809282,61.069518477430165 M477.0270030809282,61.069518477430165 L476.0290313165805,60.1832665378692 M476.0290313165805,60.1832665378692 L474.7832099249901,59.362288876296816 M474.7832099249901,59.362288876296816 L473.3110000330399,58.62046990582104 M461.5554526355235,48.567443698886905 L463.10773741422844,48.00353172530083 M463.10773741422844,48.00353172530083 L464.63077555402634,47.713629523256145 M464.63077555402634,47.713629523256145 L466.09840445678674,47.70241694883373 M466.09840445678674,47.70241694883373 L467.4854814882377,47.969734098753975 M467.4854814882377,47.969734098753975 L468.7683114890296,48.5106077368614 M468.7683114890296,48.5106077368614 L469.92505546461894,49.31542649300127 M469.92505546461894,49.31542649300127 L470.9360903140549,50.37008862008224 M470.9360903140549,50.37008862008224 L471.7843401125966,51.65620517238165 M471.7843401125966,51.65620517238165 L472.4555472874362,53.15151141816739 M472.4555472874362,53.15151141816739 L472.93849542882174,54.83029245555497 M472.93849542882174,54.83029245555497 L473.22519732666524,56.663723000309915 M473.22519732666524,56.663723000309915 L473.3110000330399,58.62046990582104 M461.5554526355235,48.567443698886905 L437.5140323939862,37.95308100324098 M437.5140323939862,37.95308100324098 L439.06690448280585,37.39556505540395 M439.06690448280585,37.39556505540395 L440.59154265983966,37.11109244286877 M440.59154265983966,37.11109244286877 L442.06175618461293,37.104252108763035 M442.06175618461293,37.104252108763035 L443.4523569413194,37.374812035156026 M443.4523569413194,37.374812035156026 L444.73958780534343,37.9177467045497 M444.73958780534343,37.9177467045497 L445.90153276292205,38.723412790066504 M445.90153276292205,38.723412790066504 L446.9184779063012,39.77769734624661 M446.9184779063012,39.77769734624661 L447.77324417287826,41.06222116908259 M447.77324417287826,41.06222116908259 L448.4514606971611,42.55474956795376 M448.4514606971611,42.55474956795376 L448.94178978093487,44.22961718266686 M448.94178978093487,44.22961718266686 L449.2361167009465,46.05806717860787 M449.2361167009465,46.05806717860787 L449.3296574093218,48.00885213188013 M352.18440088494077,113.28232972372763 L353.86372865724303,113.96605161336322 M353.86372865724303,113.96605161336322 L355.7277874159615,114.54248339981166 M355.7277874159615,114.54248339981166 L357.7445163759714,115.00159591810876 M357.7445163759714,115.00159591810876 L359.87916104773524,115.33538335909338 M359.87916104773524,115.33538335909338 L362.09488994006216,115.53801416767402 M362.09488994006216,115.53801416767402 L364.3534026006189,115.60595441359385 M364.3534026006189,115.60595441359385 L366.61564864190626,115.5380152386964 M366.61564864190626,115.5380152386964 L368.8425193950301,115.33538228826569 M368.8425193950301,115.33538228826569 L370.99552336126607,115.00159859437542 M370.99552336126607,115.00159859437542 L373.03749347533824,114.54248553994182 M373.03749347533824,114.54248553994182 L374.93324083534395,113.96605054385202 M374.93324083534395,113.96605054385202 L376.6501705391722,113.28232972372763 M340.3807400868467,81.04898969232983 L338.765490557314,81.89982234975196 M338.765490557314,81.89982234975196 L337.1807108584103,83.00338785781469 M337.1807108584103,83.00338785781469 L335.65378711766493,84.34082965218272 M335.65378711766493,84.34082965218272 L334.21113724990175,85.88917055525474 M334.21113724990175,85.88917055525474 L332.87772976862317,87.62171362490301 M332.87772976862317,87.62171362490301 L331.6766566889194,89.5085710592416 M331.6766566889194,89.5085710592416 L330.6286932169572,91.51715920046803 M330.6286932169572,91.51715920046803 L329.7519419373269,93.61271120119841 M329.7519419373269,93.61271120119841 L329.0615225623625,95.75896679890207 M329.0615225623625,95.75896679890207 L328.5692675396755,97.91886349386562 M328.5692675396755,97.91886349386562 L328.2835553294435,100.05507281676421 M328.2835553294435,100.05507281676421 L328.2091729781626,102.13076233230498 M340.3807400868467,81.04898969232983 L364.41728571205647,92.0943516800246 M364.41728571205647,92.0943516800246 L362.80128354093017,92.95286652952899 M362.80128354093017,92.95286652952899 L361.21474137409757,94.06485770697657 M361.21474137409757,94.06485770697657 L359.6850763495119,95.41132385681419 M359.6850763495119,95.41132385681419 L358.23875465775217,96.96913179257967 M358.23875465775217,96.96913179257967 L356.9008094413873,98.71142015603556 M356.9008094413873,98.71142015603556 L355.6944122173968,100.60813143394307 M355.6944122173968,100.60813143394307 L354.64043124300065,102.62651003996228 M354.64043124300065,102.62651003996228 L353.75707420051526,104.73161789135918 M353.75707420051526,104.73161789135918 L353.0595757285231,106.887027557946 M353.0595757285231,106.887027557946 L352.55989082688035,109.05551680835401 M352.55989082688035,109.05551680835401 L352.2665263422272,111.19960731383298 M352.2665263422272,111.19960731383298 L352.18440088494077,113.28232972372763 M364.41728571205647,92.0943516800246 L365.99569032982214,92.95286547011688 M365.99569032982214,92.95286547011688 L367.5505367315116,94.06485664675506 M367.5505367315116,94.06485664675506 L369.054958531966,95.41132332627046 M369.054958531966,95.41132332627046 L370.48292832863996,96.96913179257967 M370.48292832863996,96.96913179257967 L371.80972913590904,98.71141909310552 M371.80972913590904,98.71141909310552 L373.01239274826276,100.60813143394307 M373.01239274826276,100.60813143394307 L374.07010964403855,102.62651003996228 M374.07010964403855,102.62651003996228 L374.964606239306,104.7316168256308 M374.964606239306,104.7316168256308 L375.6804649289811,106.88702969115616 M375.6804649289811,106.88702969115616 L376.20539224924516,109.05551787578133 M376.20539224924516,109.05551787578133 L376.53044533069664,111.19960517746995 M376.53044533069664,111.19960517746995 L376.6501705391722,113.28232972372763 M364.41728571205647,92.0943516800246 L461.5554526355235,48.567443698886905 M461.5554526355235,48.567443698886905 L463.1319329891197,49.39588132490087 M463.1319329891197,49.39588132490087 L464.6807126010564,50.47483575618935 M464.6807126010564,50.47483575618935 L466.17503183663433,51.785872770336255 M466.17503183663433,51.785872770336255 L467.58904118467166,53.30647107886364 M467.58904118467166,53.30647107886364 L468.8982693424289,55.01041393938681 M468.8982693424289,55.01041393938681 L470.08005586991464,56.86831506628312 M470.08005586991464,56.86831506628312 L471.11395602933146,58.848092875303564 M471.11395602933146,58.848092875303564 L471.98211218151636,60.91548430989258 M471.98211218151636,60.91548430989258 L472.6695650076368,63.0347267488396 M472.6695650076368,63.0347267488396 L473.1645129036943,65.16922082899441 M473.1645129036943,65.16922082899441 L473.4585312374445,67.28208308634396 M473.4585312374445,67.28208308634396 L473.54670023148634,69.33689378123279 M437.5140323939862,37.95308100324098 L437.5140323939862,37.95308100324098 M340.3807400868467,81.04898969232983 L340.3807400868467,81.04898969232983 M461.5554526355235,48.567443698886905 L461.5554526355235,48.567443698886905 M364.41728571205647,92.0943516800246 L364.41728571205647,92.0943516800246 M499.5503032118206,251.18432887456322 L499.109659560865,256.72928485813634 M499.109659560865,256.72928485813634 L498.4550606542395,262.34099309979916 M498.4550606542395,262.34099309979916 L497.58856920481196,268.0056471378083 M497.58856920481196,268.0056471378083 L496.5127544913228,273.70933513404583 M496.5127544913228,273.70933513404583 L495.2306193273209,279.4381918401164 M495.2306193273209,279.4381918401164 L493.7456409566565,285.17828085542277 M493.7456409566565,285.17828085542277 L492.06174247535625,290.9157237958389 M492.06174247535625,290.9157237958389 L490.1832592435151,296.63661983210363 M490.1832592435151,296.63661983210363 L488.11497037984554,302.32727125162637 M488.11497037984554,302.32727125162637 L485.86206006994263,307.97397877075485 M485.86206006994263,307.97397877075485 L483.4301049113781,313.56324708615745 M483.4301049113781,313.56324708615745 L480.82507907631924,319.08158067418685 M480.82507907631924,319.08158067418685 L478.05332935422507,324.515864326665 M478.05332935422507,324.515864326665 L475.12156223443816,329.85302183558815 M475.12156223443816,329.85302183558815 L472.03684315479114,335.0802589843033 M472.03684315479114,335.0802589843033 L468.8065610993936,340.18503001943486 M468.8065610993936,340.18503001943486 L465.438444418279,345.15502118091825 M465.438444418279,345.15502118091825 L461.9405212888612,349.97826826449017 M461.9405212888612,349.97826826449017 L458.3211246118672,354.6430636271259 M458.3211246118672,354.6430636271259 L454.58886212542717,359.13804994699024 M454.58886212542717,359.13804994699024 L450.75261307361563,363.45221757129536 M450.75261307361563,363.45221757129536 L446.8215035591635,367.5749768649853 M446.8215035591635,367.5749768649853 L442.8048997512234,371.4960967771765 M442.8048997512234,371.4960967771765 L438.7123900028306,375.2057551643486 M438.7123900028306,375.2057551643486 L434.553758466865,378.69461572934904 M434.553758466865,378.69461572934904 L430.33898037610624,381.9538111883556 M430.33898037610624,381.9538111883556 L426.07819880716727,384.9749160948544 M426.07819880716727,384.9749160948544 L421.78170313749354,387.75002498249387 M421.78170313749354,387.75002498249387 L417.4599154110094,390.27178572193895 M499.7968004588221,244.45403954235866 L499.5503032118206,251.18432887456322 M414.5928845861205,286.4286579010972 L499.7968004588221,244.45403954235866 M417.4599154110094,390.27178572193895 L414.78524240750954,391.69837731782303 M499.5503032118206,251.18432887456322 L493.8093567892741,248.4332899667691 M417.4599154110094,390.27178572193895 L411.81160468084914,387.3572724440748 M493.8093567892741,248.4332899667691 L493.37385684312306,253.9740138304086 M493.37385684312306,253.9740138304086 L492.724355359078,259.5812811010416 M492.724355359078,259.5812811010416 L491.86290229739416,265.2412957440606 M491.86290229739416,265.2412957440606 L490.79205443489656,270.9401567207976 M490.79205443489656,270.9401567207976 L489.51480244703833,276.6640098019768 M489.51480244703833,276.6640098019768 L488.03461171300177,282.3989299532732 M488.03461171300177,282.3989299532732 L486.35539384932986,288.13105040475364 M486.35539384932986,288.13105040475364 L484.48147302705786,293.84648223108434 M484.48147302705786,293.84648223108434 L482.41761769994065,299.53153979841545 M482.41761769994065,299.53153979841545 L480.16900169310304,305.1725362003074 M480.16900169310304,305.1725362003074 L477.74119173753303,310.7559886726093 M477.74119173753303,310.7559886726093 L475.1401524344301,316.2684145512637 M475.1401524344301,316.2684145512637 L472.3722216477013,321.6967115430556 M472.3722216477013,321.6967115430556 L469.4440972448429,327.0278166467226 M469.4440972448429,327.0278166467226 L466.3628365731618,332.2489489924815 M466.3628365731618,332.2489489924815 L463.1358209997182,337.3475763214078 M463.1358209997182,337.3475763214078 L459.770771715179,342.3113985531021 M459.770771715179,342.3113985531021 L456.2757102794842,347.1284652485626 M456.2757102794842,347.1284652485626 L452.65896342143117,351.7870826945321 M452.65896342143117,351.7870826945321 L448.92913321789285,356.2759075863006 M448.92913321789285,356.2759075863006 L445.0950937477495,360.5839443848097 M445.0950937477495,360.5839443848097 L441.1659664908053,364.7006176051681 M441.1659664908053,364.7006176051681 L437.15111346215485,368.61571042682215 M437.15111346215485,368.61571042682215 L433.06011935773057,372.3194149747407 M433.06011935773057,372.3194149747407 L428.9027652193702,375.80240919009424 M428.9027652193702,375.80240919009424 L424.68902368492485,379.05584000890184 M424.68902368492485,379.05584000890184 L420.42903570342594,382.07129618762247 M420.42903570342594,382.07129618762247 L416.13308904503225,384.8408863768059 M416.13308904503225,384.8408863768059 L411.81160468084914,387.3572724440748 M499.7968004588221,244.45403954235866 L494.04946203858367,241.70792032797368 M494.04946203858367,241.70792032797368 L493.8093567892741,248.4332899667691 M414.5928845861205,286.4286579010972 L408.84435248399507,283.58387228114805 M408.84435248399507,283.58387228114805 L494.04946203858367,241.70792032797368 M294.64996535497147,363.92052810923406 L414.5928845861205,286.4286579010972 M294.64996535497147,363.92052810923406 L292.79240896925336,365.2709863724597 M292.79240896925336,365.2709863724597 L290.99939695738414,366.8679160514631 M290.99939695738414,366.8679160514631 L289.299564992389,368.68592409897246 M289.299564992389,368.68592409897246 L287.7201116086267,370.6961638364361 M287.7201116086267,370.6961638364361 L286.2862954074497,372.8665435498097 M286.2862954074497,372.8665435498097 L285.0210498024844,375.1625081929759 M285.0210498024844,375.1625081929759 L283.9445705480076,377.5473094266812 M283.9445705480076,377.5473094266812 L283.07399799616394,379.98290224305003 M283.07399799616394,379.98290224305003 L282.42314075489185,382.43033722607254 M282.42314075489185,382.43033722607254 L282.00223568085227,384.8505819644013 M282.00223568085227,384.8505819644013 L281.81779371834085,387.2050781674353 M281.81779371834085,387.2050781674353 L281.87253161773845,389.45643158601933 M281.87253161773845,389.45643158601933 L282.16530633664047,391.5689192138028 M282.16530633664047,391.5689192138028 L282.6911542652675,393.5092038614465 M282.6911542652675,393.5092038614465 L283.44142091939136,395.2467299064499 M283.44142091939136,395.2467299064499 L284.4038974651905,396.75428378921015 M284.4038974651905,396.75428378921015 L285.5630277098444,398.00833290841854 M285.5630277098444,398.00833290841854 L286.90020211086176,398.98953200185167 M286.90020211086176,398.98953200185167 L288.3940566542698,399.682776926312 M288.3940566542698,399.682776926312 L290.0208243548276,400.07770921630015 M290.0208243548276,400.07770921630015 L291.75473888466416,400.168527284021 M342.281315916282,396.6899930990017 L291.75473888466416,400.168527284021 M342.281315916282,396.6899930990017 L341.7408437311624,358.38683959102775 M341.7408437311624,358.38683959102775 L371.16821277787074,343.67497699382733 M371.16821277787074,343.67497699382733 L371.63405245690484,394.66917462523725 M414.78524240750954,391.69837731782303 L371.63405245690484,394.66917462523725 M414.78524240750954,391.69837731782303 L409.13699602899936,388.780625652539 M411.81160468084914,387.3572724440748 L409.13699602899936,388.780625652539 M409.13699602899936,388.780625652539 L365.9684015503384,391.7126302747331 M365.9684015503384,391.7126302747331 L365.45425131913225,340.7536112926693 M365.45425131913225,340.7536112926693 L336.02790879459354,355.43037870716705 M336.02790879459354,355.43037870716705 L336.6045222797782,393.70701350621357 M336.6045222797782,393.70701350621357 L286.06008516722693,397.13995348796965 M286.06008516722693,397.13995348796965 L284.32539248462484,397.0477186406057 M284.32539248462484,397.0477186406057 L282.6976095428833,396.65167829908756 M282.6976095428833,396.65167829908756 L281.2025181928723,395.9576525143287 M281.2025181928723,395.9576525143287 L279.8639042341805,394.9760132353815 M279.8639042341805,394.9760132353815 L278.70315381927276,393.7218725840551 M278.70315381927276,393.7218725840551 L277.7389013719585,392.2145783143058 M277.7389013719585,392.2145783143058 L276.9867305723718,390.47765977917163 M276.9867305723718,390.47765977917163 L276.45887979758544,388.53832163379224 M276.45887979758544,388.53832163379224 L276.1640347722057,386.42710498880535 M276.1640347722057,386.42710498880535 L276.1071915065411,384.17732719419865 M276.1071915065411,384.17732719419865 L276.28952621889937,381.8246862690956 M276.28952621889937,381.8246862690956 L276.7083554605965,379.40654682603804 M276.7083554605965,379.40654682603804 L277.3572012911418,376.96143331891716 M277.3572012911418,376.96143331891716 L278.22585895956763,374.5283407149867 M278.22585895956763,374.5283407149867 L279.30055061257434,372.1461779553962 M279.30055061257434,372.1461779553962 L280.56416462796824,369.8529473872067 M280.56416462796824,369.8529473872067 L281.9965316857221,367.68535306857075 M281.9965316857221,367.68535306857075 L283.5747417807028,365.6779051081985 M283.5747417807028,365.6779051081985 L285.2735565755223,363.862650210779 M285.2735565755223,363.862650210779 L287.06579404726654,362.2683908980382 M287.06579404726654,362.2683908980382 L288.92283124940366,360.92047751057873 M288.92283124940366,360.92047751057873 L408.84435248399507,283.58387228114805 M294.64996535497147,363.92052810923406 L288.92283124940366,360.92047751057873 M291.75473888466416,400.168527284021 L286.06008516722693,397.13995348796965 M342.281315916282,396.6899930990017 L336.6045222797782,393.70701350621357 M341.7408437311624,358.38683959102775 L336.02790879459354,355.43037870716705 M371.16821277787074,343.67497699382733 L365.45425131913225,340.7536112926693 M365.9684015503384,391.7126302747331 L371.63405245690484,394.66917462523725 M576.4217417445886,633.4762354068764 L521.0581054481123,624.1406386141604 M631.897261977557,685.3715225836506 L576.4217417445886,633.4762354068764 M631.897261977557,685.3715225836506 L633.2689491445143,686.5569008076309 M633.2689491445143,686.5569008076309 L634.688095954083,687.5482997641616 M634.688095954083,687.5482997641616 L636.1278414703501,688.3267987416957 M636.1278414703501,688.3267987416957 L637.5608914113214,688.8774384851637 M637.5608914113214,688.8774384851637 L638.9600307417738,689.1895510108968 M638.9600307417738,689.1895510108968 L640.2986215260033,689.2569438469283 M640.2986215260033,689.2569438469283 L641.5511291275537,689.0780645541806 M641.5511291275537,689.0780645541806 L642.693587741595,688.6560282986884 M642.693587741595,688.6560282986884 L643.7040740122728,687.9986058474575 M643.7040740122728,687.9986058474575 L644.5631327576929,687.118058729571 M644.5631327576929,687.118058729571 L645.2541610132015,686.0309652167664 M645.2541610132015,686.0309652167664 L645.7637373224974,684.7578961353817 M645.7637373224974,684.7578961353817 L646.0819031066319,683.3230522641292 M646.0819031066319,683.3230522641292 L646.2023671331258,681.7537902036252 M646.2023671331258,681.7537902036252 L646.1226408347319,680.0801195009369 M646.1226408347319,680.0801195009369 L645.844109072382,678.3341198387736 M645.844109072382,678.3341198387736 L645.3719951558446,676.5493067612972 M645.3719951558446,676.5493067612972 L644.7152858558053,674.7599933262425 M644.7152858558053,674.7599933262425 L643.8865617782762,673.0006029661162 M643.8865617782762,673.0006029661162 L642.9017433502214,671.304998360726 M599.595558558303,602.3784330534138 L642.9017433502214,671.304998360726 M589.6004258401422,529.1008183143338 L599.595558558303,602.3784330534138 M589.6004258401422,529.1008183143338 L589.277830807917,527.3003882130338 M589.277830807917,527.3003882130338 L588.7639277064295,525.4736117534264 M588.7639277064295,525.4736117534264 L588.0685143815385,523.6556053964302 M588.0685143815385,523.6556053964302 L587.2049169313476,521.8813488735863 M587.2049169313476,521.8813488735863 L586.18973282268,520.1850056228661 M586.18973282268,520.1850056228661 L585.0425017621794,518.5992180081256 M585.0425017621794,518.5992180081256 L583.7853240387145,517.1544580615575 M583.7853240387145,517.1544580615575 L582.4424180091875,515.8784798549427 M582.4424180091875,515.8784798549427 L581.039644096822,514.7957222795206 M581.039644096822,514.7957222795206 L579.6039902205451,513.9268460676874 M579.6039902205451,513.9268460676874 L578.1630404781921,513.2883770675742 M578.1630404781921,513.2883770675742 L576.7444350235854,512.8923318461364 M576.7444350235854,512.8923318461364 L575.3753290081677,512.7460633869581 M575.3753290081677,512.7460633869581 L574.0818704150581,512.8521005697016 M574.0818704150581,512.8521005697016 L572.888696986352,513.2081068301416 M572.888696986352,513.2081068301416 L571.8184702906341,513.807004287982 M571.8184702906341,513.807004287982 L570.8914494751997,514.6370769013811 M570.8914494751997,514.6370769013811 L570.1251207810861,515.6822253978195 M570.1251207810861,515.6822253978195 L569.533874556765,516.9223191026065 M569.533874556765,516.9223191026065 L569.1287504824869,518.3335861709172 M555.7282990778322,578.7129560491449 L569.1287504824869,518.3335861709172 M511.59144644875835,599.286616153268 L555.7282990778322,578.7129560491449 M511.59144644875835,599.286616153268 L510.5990391566804,599.867444271227 M510.5990391566804,599.867444271227 L509.7477771654388,600.6703543685684 M509.7477771654388,600.6703543685684 L509.0537095077624,601.6797968848516 M509.0537095077624,601.6797968848516 L508.52986700792593,602.8763431628229 M508.52986700792593,602.8763431628229 L508.18602079553256,604.237051334895 M508.18602079553256,604.237051334895 L508.0285123486287,605.7359245622712 M508.0285123486287,605.7359245622712 L508.060166096911,607.3444123100498 M508.060166096911,607.3444123100498 L508.2802311058752,609.031942075007 M508.2802311058752,609.031942075007 L508.68441419991075,610.7665076774396 M508.68441419991075,610.7665076774396 L509.26496836480896,612.515247273928 M509.26496836480896,612.515247273928 L510.01083895119376,614.2450672751157 M510.01083895119376,614.2450672751157 L510.90788042816644,615.9232449758708 M510.90788042816644,615.9232449758708 L511.9391152610924,617.5180514505794 M511.9391152610924,617.5180514505794 L513.0850490170194,618.999298247517 M513.0850490170194,618.999298247517 L514.3240248942348,620.3389291086885 M514.3240248942348,620.3389291086885 L515.6326329863499,621.5115280532564 M515.6326329863499,621.5115280532564 L516.9861189831372,622.4947922545368 M516.9861189831372,622.4947922545368 L518.3588624725487,623.2699487116809 M518.3588624725487,623.2699487116809 L519.7248379588898,623.8221308421842 M519.7248379588898,623.8221308421842 L521.0581054481123,624.1406386141604 M521.0581054481123,624.1406386141604 L526.0774761700795,621.256574048684 M581.4561768515172,630.5394929626715 L526.0774761700795,621.256574048684 M581.4561768515172,630.5394929626715 L576.4217417445886,633.4762354068764 M636.9093927970598,682.3569761246832 L581.4561768515172,630.5394929626715 M631.897261977557,685.3715225836506 L636.9093927970598,682.3569761246832 M516.6280715113619,596.4246212125346 L515.6347336535183,597.0059602698383 M515.6347336535183,597.0059602698383 L514.7824106316197,597.8091365520417 M514.7824106316197,597.8091365520417 L514.0871720396275,598.8185959568689 M514.0871720396275,598.8185959568689 L513.5620713230096,600.0149099665146 M513.5620713230096,600.0149099665146 L513.2169038509185,601.3751415142337 M513.2169038509185,601.3751415142337 L513.058036468658,602.8733030977878 M513.058036468658,602.8733030977878 L513.0883196102444,604.4808578424096 M513.0883196102444,604.4808578424096 L513.3070284810032,606.1672509826159 M513.3070284810032,606.1672509826159 L513.709895674403,607.9004978062786 M513.709895674403,607.9004978062786 L514.2891991064319,609.647761285155 M514.2891991064319,609.647761285155 L515.0339077424701,611.3759755407988 M515.0339077424701,611.3759755407988 L515.929897929621,613.0524479783409 M515.929897929621,613.0524479783409 L516.9602118600319,614.6454816396532 M516.9602118600319,614.6454816396532 L518.1053723572081,616.1249213498097 M518.1053723572081,616.1249213498097 L519.3437370691594,617.4627448274398 M519.3437370691594,617.4627448274398 L520.6519074947615,618.6335701543062 M520.6519074947615,618.6335701543062 L522.0051374781801,619.6151280525286 M522.0051374781801,619.6151280525286 L523.3778113827387,620.3886779213972 M523.3778113827387,620.3886779213972 L524.7439050057972,620.9393838244596 M524.7439050057972,620.9393838244596 L526.0774761700795,621.256574048684 M511.59144644875835,599.286616153268 L516.6280715113619,596.4246212125346 M642.9017433502214,671.304998360726 L647.9297189184297,668.2889942164182 M636.9093927970598,682.3569761246832 L638.2805992152081,683.5404761856132 M638.2805992152081,683.5404761856132 L639.6994449090016,684.5300662678653 M639.6994449090016,684.5300662678653 L641.1390745453245,685.3068600076662 M641.1390745453245,685.3068600076662 L642.5721960205196,685.8559306986501 M642.5721960205196,685.8559306986501 L643.9715929856052,686.1666404596848 M643.9715929856052,686.1666404596848 L645.3106227424247,686.2328239170109 M645.3106227424247,686.2328239170109 L646.5637425073502,686.0529521475905 M646.5637425073502,686.0529521475905 L647.7069750928141,685.6301598007631 M647.7069750928141,685.6301598007631 L648.7183827029203,684.9722326568896 M648.7183827029203,684.9722326568896 L649.5784929403137,684.091442481076 M649.5784929403137,684.091442481076 L650.2706831181074,683.0043727404573 M650.2706831181074,683.0043727404573 L650.7815099209342,681.7315942918065 M650.7815099209342,681.7315942918065 L651.1009911559463,680.2973027254824 M651.1009911559463,680.2973027254824 L651.2228106684415,678.7288443206045 M651.2228106684415,678.7288443206045 L651.1444541072939,677.0562133409377 M651.1444541072939,677.0562133409377 L650.8672801810515,675.3114695068749 M650.8672801810515,675.3114695068749 L650.3964861810523,673.528104134443 M650.3964861810523,673.528104134443 L649.7410334908523,671.740402245019 M649.7410334908523,671.740402245019 L648.913478471087,669.9827560003628 M648.913478471087,669.9827560003628 L647.9297189184297,668.2889942164182 M555.7282990778322,578.7129560491449 L560.8009961794743,575.825626856793 M516.6280715113619,596.4246212125346 L560.8009961794743,575.825626856793 M604.6653359844895,599.4401083483033 L647.9297189184297,668.2889942164182 M604.6653359844895,599.4401083483033 L599.595558558303,602.3784330534138 M569.1287504824869,518.3335861709172 L574.2580875590616,515.4714311499793 M560.8009961794743,575.825626856793 L574.2580875590616,515.4714311499793 M594.7283695206891,526.2151909396317 L604.6653359844895,599.4401083483033 M589.6004258401422,529.1008183143338 L594.7283695206891,526.2151909396317 M594.7283695206891,526.2151909396317 L594.4071774894611,524.4161376863756 M594.4071774894611,524.4161376863756 L593.8946286150803,522.590912680151 M593.8946286150803,522.590912680151 L593.20049468804,520.7746023206782 M593.20049468804,520.7746023206782 L592.3380771045988,519.002153421598 M592.3380771045988,519.002153421598 L591.3239504688147,517.3076943094102 M591.3239504688147,517.3076943094102 L590.1776339502266,515.7238307813482 M590.1776339502266,515.7238307813482 L588.92121005186,514.2809975927883 M588.92121005186,514.2809975927883 L587.5788824169703,513.0069115558231 M587.5788824169703,513.0069115558231 L586.1765001800378,511.9259750979621 M586.1765001800378,511.9259750979621 L584.7410436210552,511.0588140030509 M584.7410436210552,511.0588140030509 L583.3000929755643,510.42192134405616 M583.3000929755643,510.42192134405616 L581.8812884466315,510.0272837534927 M581.8812884466315,510.0272837534927 L580.511789089187,509.8822276446675 M580.511789089187,509.8822276446675 L579.2177505927091,509.98925919584025 M579.2177505927091,509.98925919584025 L578.0238220561326,510.3460234202658 M578.0238220561326,510.3460234202658 L576.9526797692594,510.9454285682946 M576.9526797692594,510.9454285682946 L576.0246007047723,511.77574953602885 M576.0246007047723,511.77574953602885 L575.25709165938,512.8208829127418 M575.25709165938,512.8208829127418 L574.6645658246882,514.0606988315062 M574.6645658246882,514.0606988315062 L574.2580875590616,515.4714311499793 M582.9939201462752,574.6070531367677 L580.7368472408401,573.5204253165113 M580.7368472408401,573.5204253165113 L578.4952569910143,572.6858540405655 M578.4952569910143,572.6858540405655 L576.2890510312836,572.1103769165662 M576.2890510312836,572.1103769165662 L574.1377487822334,571.7986805516554 M574.1377487822334,571.7986805516554 L572.0603160622163,571.7530784763844 M572.0603160622163,571.7530784763844 L570.0749932870846,571.9734990889215 M570.0749932870846,571.9734990889215 L568.1991366385099,572.45751390591 M568.1991366385099,572.45751390591 L566.4490706377345,573.2003615796815 M566.4490706377345,573.2003615796815 L564.839948446894,574.1950234207359 M564.839948446894,574.1950234207359 L563.3856257768778,575.4322909171703 M563.3856257768778,575.4322909171703 L562.0985541622377,576.9008683063232 M562.0985541622377,576.9008683063232 L560.9896792045596,578.5874852797415 M560.9896792045596,578.5874852797415 L560.0683566294293,580.4770233999417 M560.0683566294293,580.4770233999417 L559.3422853886875,582.5526621108155 M559.3422853886875,582.5526621108155 L558.8174594015851,584.7960370874249 M558.8174594015851,584.7960370874249 L558.4981128784594,587.1873957995386 M558.4981128784594,587.1873957995386 L558.3867115770108,589.7057815999436 M558.3867115770108,589.7057815999436 L558.483940586065,592.3292136782286 M558.483940586065,592.3292136782286 L558.7886962927902,595.0348684822934 M558.7886962927902,595.0348684822934 L559.2981228478204,597.7992822295847 M559.2981228478204,597.7992822295847 L560.0076235925279,600.5985351310208 M560.0076235925279,600.5985351310208 L560.9109265745763,603.4084603622002 M560.9109265745763,603.4084603622002 L562.0001206044749,606.2048308461339 M562.0001206044749,606.2048308461339 L563.2657392026982,608.9635629540234 M563.2657392026982,608.9635629540234 L564.6968293746872,611.6609056135786 M564.6968293746872,611.6609056135786 L566.2810511831908,614.2736393123804 M566.2810511831908,614.2736393123804 L568.0047699242675,616.7792566023479 M568.0047699242675,616.7792566023479 L569.853172645694,619.1561489919081 M569.853172645694,619.1561489919081 L571.8103801647712,621.3837755659682 M571.8103801647712,621.3837755659682 L573.8595796023016,623.4428449422346 M573.8595796023016,623.4428449422346 L575.9831571705427,625.3154574963895 M575.9831571705427,625.3154574963895 L578.1628382443579,626.9852693137234 M578.1628382443579,626.9852693137234 L580.3798348537032,628.4376309926844 M580.3798348537032,628.4376309926844 L582.6149988844287,629.6597025548015 M582.6149988844287,629.6597025548015 L584.8489784516524,630.6405827412854 M584.8489784516524,630.6405827412854 L587.0623770395288,631.3714098324161 M587.0623770395288,631.3714098324161 L589.235916170987,631.8454338770108 M589.235916170987,631.8454338770108 L591.3505987694493,632.0581005452344 M591.3505987694493,632.0581005452344 L593.3878725494006,632.0071056396586 M593.3878725494006,632.0071056396586 L595.3297914156794,631.6924160448878 M595.3297914156794,631.6924160448878 L597.159171900427,631.1163019218862 M597.159171900427,631.1163019218862 L598.8597542547725,630.2833269219844 M598.8597542547725,630.2833269219844 L600.416344666819,629.2003253064029 M600.416344666819,629.2003253064029 L601.8149640872302,627.8763615340914 M601.8149640872302,627.8763615340914 L603.0429730970768,626.3226645200567 M603.0429730970768,626.3226645200567 L604.0892045673487,624.5525462659011 M604.0892045673487,624.5525462659011 L604.944064048556,622.581290949376 M604.944064048556,622.581290949376 L605.5996437894888,620.4260403774027 M605.5996437894888,620.4260403774027 L606.0497856188033,618.1056384146398 M606.0497856188033,618.1056384146398 L606.2901706400003,615.64048037089 M606.2901706400003,615.64048037089 L606.3183500367026,613.0523233120117 M606.3183500367026,613.0523233120117 L606.1337972325119,610.3641016327441 M606.1337972325119,610.3641016327441 L605.7379102262795,607.5997120658379 M605.7379102262795,607.5997120658379 L605.134005024618,604.7837936211196 M605.134005024618,604.7837936211196 L604.3273081599509,601.9415062484832 M604.3273081599509,601.9415062484832 L603.324897934646,599.0982881141343 M603.324897934646,599.0982881141343 L602.1356483546126,596.2796184819961 M602.1356483546126,596.2796184819961 L600.7701507375878,593.5107751034825 M600.7701507375878,593.5107751034825 L599.2406149263969,590.8165960206984 M599.2406149263969,590.8165960206984 L597.5607505435981,588.2212401769083 M597.5607505435981,588.2212401769083 L595.7456420460129,585.7479578765614 M595.7456420460129,585.7479578765614 L593.8116029948452,583.4188806078889 M593.8116029948452,583.4188806078889 L591.7760185612395,581.2547947854025 M591.7760185612395,581.2547947854025 L589.6571797167758,579.2749639116812 M589.6571797167758,579.2749639116812 L587.4741094049778,577.4969407686356 M587.4741094049778,577.4969407686356 L585.2463775358799,575.9364111309777 M585.2463775358799,575.9364111309777 L582.9939201462752,574.6070531367677 M582.9939201462752,574.6070531367677 L585.5310497262965,573.1567815987796 M585.5310497262965,573.1567815987796 L583.2740015771672,572.0714223242279 M583.2740015771672,572.0714223242279 L581.032331273081,571.2380374699984 M581.032331273081,571.2380374699984 L578.8259412097761,570.6636543833071 M578.8259412097761,570.6636543833071 L576.6743525385856,570.3529503124147 M576.6743525385856,570.3529503124147 L574.5965337571109,570.3082303997004 M574.5965337571109,570.3082303997004 L572.6107288817437,570.5294156909058 M572.6107288817437,570.5294156909058 L570.7342985723026,571.0140714327051 M570.7342985723026,571.0140714327051 L568.983572664257,571.7574311326176 M568.983572664257,571.7574311326176 L567.3737104064394,572.7524721056227 M567.3737104064394,572.7524721056227 L565.9185743097613,573.9899830147895 M565.9185743097613,573.9899830147895 L564.6306233505685,575.458666446433 M564.6306233505685,575.458666446433 L563.5208111380309,577.1452516147027 M563.5208111380309,577.1452516147027 L562.5985018920263,579.0346207679696 M562.5985018920263,579.0346207679696 L561.871403460895,581.109955177736 M561.871403460895,581.109955177736 L561.3455189764167,583.352893457499 M561.3455189764167,583.352893457499 L561.0250920913638,585.7436871010135 M561.0250920913638,585.7436871010135 L560.9125981472204,588.2613845199008 M560.9125981472204,588.2613845199008 L561.0087318712337,590.8840109516074 M561.0087318712337,590.8840109516074 L561.3123992581653,593.5887498350407 M561.3123992581653,593.5887498350407 L561.8207539512097,596.3521452530351 M561.8207539512097,596.3521452530351 L562.5292085892293,599.1502861051653 M562.5292085892293,599.1502861051653 L563.4315002442339,601.9590149993498 M563.4315002442339,601.9590149993498 L564.5197264049915,604.7541149750693 M564.5197264049915,604.7541149750693 L565.7844288553468,607.5115131203492 M565.7844288553468,607.5115131203492 L567.2146623851947,610.2074696074168 M567.2146623851947,610.2074696074168 L568.7980943023487,612.8187766076143 M568.7980943023487,612.8187766076143 L570.521096555841,615.3229387156227 M570.521096555841,615.3229387156227 L572.3688622050482,617.6983597485674 M572.3688622050482,617.6983597485674 L574.3255173960601,619.9245112791086 M574.3255173960601,619.9245112791086 L576.3742538534361,621.9821144909945 M576.3742538534361,621.9821144909945 L578.4974616432869,623.8532823132085 M578.4974616432869,623.8532823132085 L580.6768692119655,625.5216832693872 M580.6768692119655,625.5216832693872 L582.8936908580936,626.9726801812384 M582.8936908580936,626.9726801812384 L585.1287799236885,628.1934449806809 M585.1287799236885,628.1934449806809 L587.3627851516551,629.1730879010206 M587.3627851516551,629.1730879010206 L589.5763098212501,629.9027581958295 M589.5763098212501,629.9027581958295 L591.7500744250167,630.3757162726415 M591.7500744250167,630.3757162726415 L593.865080031441,630.5874174445133 M593.865080031441,630.5874174445133 L595.9027716872193,630.5355663466872 M595.9027716872193,630.5355663466872 L597.8451998402636,630.2201378010835 M597.8451998402636,630.2201378010835 L599.6751767928429,629.6434089234057 M599.6751767928429,629.6434089234057 L601.3764378262651,628.8099492595162 M601.3764378262651,628.8099492595162 L602.9337834519819,627.7265978390409 M602.9337834519819,627.7265978390409 L604.3332282773456,626.4024226998168 M604.3332282773456,626.4024226998168 L605.562125918262,624.8486551011149 M605.562125918262,624.8486551011149 L606.609301710392,623.0786081113885 M606.609301710392,623.0786081113885 L607.4651531557971,621.107565678897 M607.4651531557971,621.107565678897 L608.1217640022767,618.9526680628427 M608.1217640022767,618.9526680628427 L608.5729671928244,616.632756275919 M608.5729671928244,616.632756275919 L608.8144346315851,614.1682214750913 M608.8144346315851,614.1682214750913 L608.8437080658539,611.5808153148047 M608.8437080658539,611.5808153148047 L608.6602513252851,608.8934655538942 M608.6602513252851,608.8934655538942 L608.2654527410768,606.1300611313393 M608.2654527410768,606.1300611313393 L607.6626186642519,603.3152321794385 M607.6626186642519,603.3152321794385 L606.8569660714463,600.4741287636758 M606.8569660714463,600.4741287636758 L605.8555638979059,597.6321782655779 M605.8555638979059,597.6321782655779 L604.6672770599653,594.8148483692428 M604.6672770599653,594.8148483692428 L603.3026881522169,592.0474045682115 M603.3026881522169,592.0474045682115 L601.7739987458006,589.3546720935096 M601.7739987458006,589.3546720935096 L600.0949107265313,586.7607966576945 M600.0949107265313,586.7607966576945 L598.2805014291226,584.2890150476404 M598.2805014291226,584.2890150476404 L596.347077976188,581.9614450819176 M596.347077976188,581.9614450819176 L594.3120198582033,579.7988594964456 M594.3120198582033,579.7988594964456 L592.1936131770457,577.8205082367538 M592.1936131770457,577.8205082367538 L590.0108768734927,576.0439307840386 M590.0108768734927,576.0439307840386 L587.7833777622391,574.4847999964676 M587.7833777622391,574.4847999964676 L585.5310497262965,573.1567815987796" stroke="black"  stroke-width="4"  fill="red"/></svg>