<svg viewBox="0 0 800 800" xmlns="http://www.w3.org/2000/svg"><path d="M570.3068674106713,587.3302719451195 L567.9891399903453,586.2050700528987 M567.9891399903453,586.2050700528987 L565.6869264058237,585.3314692615663 M565.6869264058237,585.3314692615663 L563.4195117338546,584.7163997804903 M563.4195117338546,584.7163997804903 L561.2058255252754,584.3645855834991 M561.2058255252754,584.3645855834991 L559.0642776439305,584.27850600635 M559.0642776439305,584.27850600635 L557.0126057653086,584.4584001979188 M557.0126057653086,584.4584001979188 L555.067727941375,584.9022647587708 M555.067727941375,584.9022647587708 L553.245608538658,585.6059104522894 M553.245608538658,585.6059104522894 L551.5611243174839,586.5629913949382 M551.5611243174839,586.5629913949382 L550.0279569786362,587.7650930993598 M550.0279569786362,587.7650930993598 L548.6584814197488,589.2018002361336 M548.6584814197488,589.2018002361336 L547.4636808570722,590.8608164279169 M547.4636808570722,590.8608164279169 L546.4530619388545,592.7280629048744 M546.4530619388545,592.7280629048744 L545.6345918325894,594.7878152079752 M545.6345918325894,594.7878152079752 L545.0146522867273,597.0228418468269 M545.0146522867273,597.0228418468269 L544.5979833113619,599.4145434143229 M544.5979833113619,599.4145434143229 L544.3876751489059,601.9431198540188 M544.3876751489059,601.9431198540188 L544.3851427962419,604.5877269586344 M544.3851427962419,604.5877269586344 L544.5901274443194,607.3266465692323 M544.5901274443194,607.3266465692323 L545.0007080939071,610.1374607022708 M545.0007080939071,610.1374607022708 L545.6133291625471,612.9972293644748 M545.6133291625471,612.9972293644748 L546.4228254163255,615.8826658893576 M546.4228254163255,615.8826658893576 L547.4224767460653,618.7703195302294 M547.4224767460653,618.7703195302294 L548.6040580077721,621.6367516064455 M548.6040580077721,621.6367516064455 L549.9579083179367,624.458719291971 M549.9579083179367,624.458719291971 L551.4730039165651,627.2133451900377 M551.4730039165651,627.2133451900377 L553.1370488254212,629.8782904885977 M553.1370488254212,629.8782904885977 L554.9365618566256,632.431936319653 M554.9365618566256,632.431936319653 L556.8569819603282,634.8535271703197 M556.8569819603282,634.8535271703197 L558.8827763310692,637.1233480125073 M558.8827763310692,637.1233480125073 L560.9975573499798,639.2228695426365 M560.9975573499798,639.2228695426365 L563.1842057273852,641.1348884530576 M563.1842057273852,641.1348884530576 L565.4249981165432,642.8436712575217 M565.4249981165432,642.8436712575217 L567.7017414935011,644.3350724005626 M567.7017414935011,644.3350724005626 L569.9959119758121,645.5966604441844 M569.9959119758121,645.5966604441844 L572.2887968979562,646.6178162230749 M572.2887968979562,646.6178162230749 L574.5616400613152,647.3898260449712 M574.5616400613152,647.3898260449712 L576.7957885183713,647.9059686156148 M576.7957885183713,647.9059686156148 L578.9728418580622,648.1615721764588 M578.9728418580622,648.1615721764588 L581.0748007939006,648.1540747934064 M581.0748007939006,648.1540747934064 L583.0842140990079,647.8830513405996 M583.0842140990079,647.8830513405996 L584.9843241902944,647.3502372922242 M584.9843241902944,647.3502372922242 L586.7592095218037,646.559538265277 M586.7592095218037,646.559538265277 L588.3939218859997,645.5169952425535 M588.3939218859997,645.5169952425535 L589.8746205866241,644.2307756399225 M589.8746205866241,644.2307756399225 L591.1886909411434,642.711102456998 M591.1886909411434,642.711102456998 L592.3248657145671,640.9701902952438 M592.3248657145671,640.9701902952438 L593.2733277494251,639.0221600437095 M593.2733277494251,639.0221600437095 L594.025808001803,636.8829302325144 M594.025808001803,636.8829302325144 L594.5756614351974,634.5700892298455 M594.5756614351974,634.5700892298455 L594.917945050486,632.1027613776001 M594.917945050486,632.1027613776001 L595.0494623305839,629.5014429861756 M595.0494623305839,629.5014429861756 L594.9688064518273,626.7878347611002 M594.9688064518273,626.7878347611002 L594.6763831581931,623.9846570865006 M594.6763831581931,623.9846570865006 L594.1744189248917,621.1154556303716 M594.1744189248917,621.1154556303716 L593.4669373328304,618.2043896789353 M593.4669373328304,618.2043896789353 L592.5597490989743,615.276028401649 M592.5597490989743,615.276028401649 L591.4603888977049,612.3551229607713 M591.4603888977049,612.3551229607713 L590.1780590690908,609.4663920487437 M590.1780590690908,609.4663920487437 L588.7235535802389,606.6342936285575 M588.7235535802389,606.6342936285575 L587.109156215109,603.8828138872437 M587.109156215109,603.8828138872437 L585.3485385193485,601.2352399139237 M585.3485385193485,601.2352399139237 L583.456628116171,598.7139595539495 M583.456628116171,598.7139595539495 L581.4494826740153,596.3402516304747 M581.4494826740153,596.3402516304747 L579.3441361049388,594.1341112645475 M579.3441361049388,594.1341112645475 L577.1584481332166,592.114054184404 M577.1584481332166,592.114054184404 L574.910940630967,590.296970398736 M574.910940630967,590.296970398736 L572.6206328819673,588.6979714128097 M572.6206328819673,588.6979714128097 L570.3068674106713,587.3302719451195 M570.3068674106713,587.3302719451195 L433.2991717815094,665.6013719132397 M417.8396418537304,674.4332437791278 L416.68912770032705,673.6922233776882 M416.68912770032705,673.6922233776882 L415.79703771061025,672.9447337577335 M415.79703771061025,672.9447337577335 L415.1430529836966,672.1713004081123 M415.1430529836966,672.1713004081123 L414.75789252768146,671.3887056137603 M414.75789252768146,671.3887056137603 L414.65435952184765,670.5995483374465 M414.65435952184765,670.5995483374465 L414.840742820314,669.8081246070967 M414.840742820314,669.8081246070967 L415.31495837794085,669.0204167139594 M415.31495837794085,669.0204167139594 L416.0632309430139,668.243670162354 M416.0632309430139,668.243670162354 L417.0629098509688,667.4869074403446 M417.0629098509688,667.4869074403446 L417.9543303511568,666.943314514357 M417.9543303511568,666.943314514357 L419.18470703888784,666.3168500933944 M419.18470703888784,666.3168500933944 L420.56314762149674,665.7379883261289 M420.56314762149674,665.7379883261289 L421.80867129425206,665.3056679518595 M421.80867129425206,665.3056679518595 L423.3976598014951,664.8667973784284 M423.3976598014951,664.8667973784284 L425.05550282549785,664.5409675340954 M425.05550282549785,664.5409675340954 L426.7389466545404,664.3553238096592 M426.7389466545404,664.3553238096592 L428.39783271906595,664.3325264161899 M428.39783271906595,664.3325264161899 L429.9828265852704,664.4861381040878 M429.9828265852704,664.4861381040878 L431.44941303177643,664.818593803655 M431.44941303177643,664.818593803655 L432.4082698709147,665.1629325535791 M432.4082698709147,665.1629325535791 L433.2991717815094,665.6013719132397 M417.8396418537304,674.4332437791278 L384.5551570732823,693.448330659279 M384.5551570732823,693.448330659279 L386.8748115725566,694.9187445303817 M386.8748115725566,694.9187445303817 L389.1789492260496,696.6246065522814 M389.1789492260496,696.6246065522814 L391.44810604438237,698.5518067508958 M391.44810604438237,698.5518067508958 L393.66307278428104,700.6843046175147 M393.66307278428104,700.6843046175147 L395.80507071530485,703.004255555057 M395.80507071530485,703.004255555057 L397.8559192623452,705.4921724139581 M397.8559192623452,705.4921724139581 L399.7982024020242,708.1270805609344 M399.7982024020242,708.1270805609344 L401.61542362656445,710.8867230658936 M401.61542362656445,710.8867230658936 L403.2921635113922,713.7477446714577 M403.2921635113922,713.7477446714577 L404.8142110413362,716.6859108027325 M404.8142110413362,716.6859108027325 L406.1687001068692,719.676316996826 M406.1687001068692,719.676316996826 L407.3442176321015,722.6936251619425 M407.3442176321015,722.6936251619425 L408.3309108249781,725.7122832210509 M408.3309108249781,725.7122832210509 L409.1205695063546,728.7067614706732 M409.1205695063546,728.7067614706732 L409.7066884397707,731.6517741587627 M409.7066884397707,731.6517741587627 L410.0845367377754,734.5225149064354 M410.0845367377754,734.5225149064354 L410.25117402011597,737.2948656346798 M410.25117402011597,737.2948656346798 L410.205480142256,739.9456138926878 M410.205480142256,739.9456138926878 L409.948152989809,742.4526513725633 M409.948152989809,742.4526513725633 L409.48169140056024,744.7951619021744 M409.48169140056024,744.7951619021744 L408.81035745900715,746.953791108251 M408.81035745900715,746.953791108251 L407.94013741339336,748.9108122263531 M407.94013741339336,748.9108122263531 L406.8786685610419,750.6502598907387 M406.8786685610419,750.6502598907387 L405.63516803773354,752.1580576543649 M405.63516803773354,752.1580576543649 L404.2203392332542,753.4221250997714 M404.2203392332542,753.4221250997714 L402.6462729816311,754.4324608743088 M402.6462729816311,754.4324608743088 L400.9263296359158,755.1812032521834 M400.9263296359158,755.1812032521834 L399.07502433070675,755.6626977332244 M399.07502433070675,755.6626977332244 L397.10789493783545,755.8735009175812 M397.10789493783545,755.8735009175812 L395.0413678893962,755.8124106405171 M395.0413678893962,755.8124106405171 L392.8926176845688,755.480450742911 M392.8926176845688,755.480450742911 L390.6794229226194,754.880841250264 M390.6794229226194,754.880841250264 L388.4200210287691,754.0189653258174 M388.4200210287691,754.0189653258174 L386.13296040037875,752.9023022895406 M386.13296040037875,752.9023022895406 L383.83695208297587,751.5403639461875 M383.83695208297587,751.5403639461875 L381.55072304616846,749.9446007392953 M381.55072304616846,749.9446007392953 L379.2928708542317,748.1283016968844 M379.2928708542317,748.1283016968844 L377.081721371104,746.1064895755376 M377.081721371104,746.1064895755376 L374.93518881566905,743.8957876658003 M374.93518881566905,743.8957876658003 L372.8706404779907,741.5142951305381 M372.8706404779907,741.5142951305381 L370.90476726965835,738.9814364701385 M370.90476726965835,738.9814364701385 L369.053458779397,736.3178148875706 M369.053458779397,736.3178148875706 L367.33168423791966,733.5450609003033 M367.33168423791966,733.5450609003033 L365.75338108910427,730.6856488000888 M365.75338108910427,730.6856488000888 L364.33134730475746,727.7627476741736 M364.33134730475746,727.7627476741736 L363.07715041434204,724.8000343555291 M363.07715041434204,724.8000343555291 L362.0010331235171,721.8215146468691 M362.0010331235171,721.8215146468691 L361.1118364357776,718.8513487717789 M361.1118364357776,718.8513487717789 L360.4169257099642,715.913662410223 M360.4169257099642,715.913662410223 L359.92213597117944,713.0323661048302 M359.92213597117944,713.0323661048302 L359.63171204804524,710.230967851702 M359.63171204804524,710.230967851702 L359.5482781626966,707.5323939570039 M359.5482781626966,707.5323939570039 L359.6728047064025,704.9588071585872 M359.6728047064025,704.9588071585872 L360.00459075417314,702.5314288902425 M360.00459075417314,702.5314288902425 L360.541256624329,700.27036573431 M360.541256624329,700.27036573431 L361.27876326979555,698.1944505657882 M361.27876326979555,698.1944505657882 L362.2114141213319,696.321071989658 M362.2114141213319,696.321071989658 L363.33190527547697,694.666033903601 M363.33190527547697,694.666033903601 L364.63136548671207,693.243415047092 M364.63136548671207,693.243415047092 L366.0994129194606,692.0654309529889 M366.0994129194606,692.0654309529889 L367.72423476937036,691.1423353185342 M367.72423476937036,691.1423353185342 L369.4926662466433,690.482299701147 M369.4926662466433,690.482299701147 L371.3902977330018,690.0913471110189 M371.3902977330018,690.0913471110189 L373.40157715718516,689.9732647170947 M373.40157715718516,689.9732647170947 L375.5099404075616,690.1295774590349 M375.5099404075616,690.1295774590349 L377.69794111246694,690.559493581933 M377.69794111246694,690.559493581933 L379.9473956116211,691.2599109454991 M379.9473956116211,691.2599109454991 L382.23953281967425,692.2254166126336 M382.23953281967425,692.2254166126336 L384.5551570732823,693.448330659279 M433.2991717815094,665.6013719132397 L434.4509789549607,666.409497134669 M434.4509789549607,666.409497134669 L435.346681871321,667.3533726782662 M435.346681871321,667.3533726782662 L436.00633518627586,668.4392949412304 M436.00633518627586,668.4392949412304 L436.39862812023773,669.6195431959961 M436.39862812023773,669.6195431959961 L436.51006252868933,670.8540958136696 M436.51006252868933,670.8540958136696 L436.33152247404564,672.0925515824413 M436.33152247404564,672.0925515824413 L435.86422828553265,673.2792022303354 M435.86422828553265,673.2792022303354 L435.12119274197516,674.3614052520688 M435.12119274197516,674.3614052520688 L434.12451232216983,675.2959857745476 M434.12451232216983,675.2959857745476 L433.23368018030095,675.8771038402315 M433.23368018030095,675.8771038402315 L432.002080710579,676.4366909241696 M432.002080710579,676.4366909241696 L430.62037114387067,676.8300852379455 M430.62037114387067,676.8300852379455 L429.37072036757576,677.02705766316 M429.37072036757576,677.02705766316 L427.77541752534586,677.1060961207411 M427.77541752534586,677.1060961207411 L426.11029321140705,677.0183300603954 M426.11029321140705,677.0183300603954 L424.4192862937081,676.7762247627402 M424.4192862937081,676.7762247627402 L422.75331753517565,676.3999711806284 M422.75331753517565,676.3999711806284 L421.16243238223564,675.9150423541317 M421.16243238223564,675.9150423541317 L419.6916992117809,675.3488783002967 M419.6916992117809,675.3488783002967 L418.731133879942,674.9072555470598 M418.731133879942,674.9072555470598 L417.8396418537304,674.4332437791278 M433.2991717815094,665.6013719132397 L434.0478673162958,118.29250661807765 M434.0478673162958,118.29250661807765 L435.3289123177021,118.9833451064186 M435.3289123177021,118.9833451064186 L436.34521367773164,119.76158165741151 M436.34521367773164,119.76158165741151 L437.0688634538611,120.60614709541778 M437.0688634538611,120.60614709541778 L437.47983279713947,121.4941271222462 M437.47983279713947,121.4941271222462 L437.5665508218209,122.40137379993791 M437.5665508218209,122.40137379993791 L437.3262583970555,123.30315514329237 M437.3262583970555,123.30315514329237 L436.7651261605747,124.17482943971561 M436.7651261605747,124.17482943971561 L435.8981272961424,124.99252084328532 M435.8981272961424,124.99252084328532 L434.7486678454366,125.73378272025167 M434.7486678454366,125.73378272025167 L433.34797078266706,126.3782230797475 M433.34797078266706,126.3782230797475 L431.7342420415604,126.90808141871975 M431.7342420415604,126.90808141871975 L429.9516290868634,127.30873279183834 M429.9516290868634,127.30873279183834 L428.0489986167458,127.56910398594198 M428.0489986167458,127.56910398594198 L426.0785822421259,127.68199322122064 M426.0785822421259,127.68199322122064 L424.094512370379,127.64427634557131 M424.094512370379,127.64427634557131 L422.15130625562347,127.45699722595782 M422.15130625562347,127.45699722595782 L420.30233241120015,127.12533757616177 M420.30233241120015,127.12533757616177 L418.5983175135783,126.65846796252401 M418.5983175135783,126.65846796252401 L417.0859313510939,126.06928349978767 M417.0859313510939,126.06928349978767 L415.80649132541225,125.37403533457308 M415.80649132541225,125.37403533457308 L414.79483090811783,124.59186697006618 M414.79483090811783,124.59186697006618 L414.0783551152642,123.7442736528684 M414.0783551152642,123.7442736528684 L413.67631538575336,122.85449779399335 M413.67631538575336,122.85449779399335 L413.5993149522898,121.94688193458853 M413.5993149522898,121.94688193458853 L413.849059897835,121.04619806613613 M413.849059897835,121.04619806613613 L414.41835526785337,120.17696897454533 M414.41835526785337,120.17696897454533 L415.2913432762094,119.36280553231893 M415.2913432762094,119.36280553231893 L416.4439688716913,118.62577207126935 M416.4439688716913,118.62577207126935 L417.8446659637923,117.98580236748649 M417.8446659637923,117.98580236748649 L419.455228606416,117.46017245876538 M419.455228606416,117.46017245876538 L421.2318524315901,117.06304907591243 M421.2318524315901,117.06304907591243 L423.1263197446055,116.80512311061057 M423.1263197446055,116.80512311061057 L425.08728354685326,116.6933313627543 M425.08728354685326,116.6933313627543 L427.06163576951974,116.73067905257113 M427.06163576951974,116.73067905257113 L428.9959122307764,116.91616232052934 M428.9959122307764,116.91616232052934 L430.8377120870795,117.24479406348615 M430.8377120870795,117.24479406348615 L432.53708607405173,117.70773184175164 M432.53708607405173,117.70773184175164 L434.0478673162958,118.29250661807765 M437.39790273416776,105.9214972143912 L341.22640728050214,149.79950445216667 M461.2036311901652,116.73007723689938 L437.39790273416776,105.9214972143912 M341.22640728050214,149.79950445216667 L365.0274046560523,161.04255992269367 M365.0274046560523,161.04255992269367 L461.2036311901652,116.73007723689938 M437.39790273416776,105.9214972143912 L435.8525323744063,105.09070905238474 M435.8525323744063,105.09070905238474 L434.3348609500725,104.01651219024586 M434.3348609500725,104.01651219024586 L432.8706043023257,102.7173008036516 M432.8706043023257,102.7173008036516 L431.48454939176,101.21524035539278 M431.48454939176,101.21524035539278 L430.20014195245454,99.53589247701154 M430.20014195245454,99.53589247701154 L429.03910818067396,97.70772481332779 M429.03910818067396,97.70772481332779 L428.0211007957464,95.76168536352168 M428.0211007957464,95.76168536352168 L427.16337154004077,93.73074941432822 M427.16337154004077,93.73074941432822 L426.4804925000795,91.64930970374462 M426.4804925000795,91.64930970374462 L425.9841172519759,89.55258828736146 M425.9841172519759,89.55258828736146 L425.6827700043597,87.47615526963887 M425.6827700043597,87.47615526963887 L425.58170984763507,85.4552507828825 M425.58170984763507,85.4552507828825 L329.1756497709117,128.9269801758636 M341.22640728050214,149.79950445216667 L339.6794673581872,148.93895309660195 M339.6794673581872,148.93895309660195 L338.1561978741354,147.83226805868912 M338.1561978741354,147.83226805868912 L336.68240760836505,146.49839673597862 M336.68240760836505,146.49839673597862 L335.2830422972928,144.96009187471276 M335.2830422972928,144.96009187471276 L333.98176990669026,143.24352671443535 M333.98176990669026,143.24352671443535 L332.8005978713115,141.3777942160492 M332.8005978713115,141.3777942160492 L331.75951551371253,139.3944720378525 M331.75951551371253,139.3944720378525 L330.8761622158516,137.32716019051105 M330.8761622158516,137.32716019051105 L330.165541487887,135.21086061104495 M330.165541487887,135.21086061104495 L329.63977480310706,133.081379233331 M329.63977480310706,133.081379233331 L329.3078847953938,130.97483661291164 M329.3078847953938,130.97483661291164 L329.1756497709117,128.9269801758636 M461.2036311901652,116.73007723689938 L462.74241333144874,115.8920053757563 M462.74241333144874,115.8920053757563 L464.25558994677453,114.80984592899767 M464.25558994677453,114.80984592899767 L465.71751997753825,113.50212919841317 M465.71751997753825,113.50212919841317 L467.10345918284366,111.99116324214316 M467.10345918284366,111.99116324214316 L468.38996056918194,110.30266153291677 M468.38996056918194,110.30266153291677 L469.55526439641505,108.46524502220882 M469.55526439641505,108.46524502220882 L470.57964669598,106.51001676117755 M470.57964669598,106.51001676117755 L471.4457485289997,104.47010603245565 M471.4457485289997,104.47010603245565 L472.1388569333401,102.38005589995157 M472.1388569333401,102.38005589995157 L472.64714623934196,100.27523265578935 M472.64714623934196,100.27523265578935 L472.96189083120464,98.19134255013796 M472.96189083120464,98.19134255013796 L473.07760497100855,96.16375136073793 M473.07760497100855,96.16375136073793 L449.2140956207005,85.4552507828825 M437.39790273416776,105.9214972143912 L438.9362618137267,105.09070905238474 M438.9362618137267,105.09070905238474 L440.44802874084456,104.01651219024586 M440.44802874084456,104.01651219024586 L441.90758586762644,102.71730131541165 M441.90758586762644,102.71730131541165 L443.29022848000983,101.21524035539278 M443.29022848000983,101.21524035539278 L444.5725646331991,99.53589247701154 M444.5725646331991,99.53589247701154 L445.7329040584071,97.70772481332779 M445.7329040584071,97.70772481332779 L446.75160577896145,95.76168536352168 M446.75160577896145,95.76168536352168 L447.6114062988859,93.73074941432822 M447.6114062988859,93.73074941432822 L448.29769876475024,91.64930970374462 M448.29769876475024,91.64930970374462 L448.79877248276205,89.55258828736146 M448.79877248276205,89.55258828736146 L449.10602421665527,87.47615526963887 M449.10602421665527,87.47615526963887 L449.2140956207005,85.4552507828825 M341.22640728050214,149.79950445216667 L339.6238006963428,150.39913057578474 M339.6238006963428,150.39913057578474 L338.04381914869595,150.72732153974195 M338.04381914869595,150.72732153974195 L336.5133788014488,150.7781792412179 M336.5133788014488,150.7781792412179 L335.05862308197845,150.55050724462768 M335.05862308197845,150.55050724462768 L333.70446947668614,150.0478600312868 M333.70446947668614,150.0478600312868 L332.4741990986587,149.27843163614236 M332.4741990986587,149.27843163614236 L331.3890262628253,148.25499814927355 M331.3890262628253,148.25499814927355 L330.4677412023661,146.99477583970202 M330.4677412023661,146.99477583970202 L329.7263825600926,145.51907147398185 M329.7263825600926,145.51907147398185 L329.1779060863324,143.85292677032675 M329.1779060863324,143.85292677032675 L328.83198438981674,142.02478946896383 M328.83198438981674,142.02478946896383 L328.6948215411026,140.0659332809231 M365.0274046560523,161.04255992269367 L363.4250601073123,161.64907856461772 M363.4250601073123,161.64907856461772 L361.84632871912083,161.98322588645527 M361.84632871912083,161.98322588645527 L360.3181059439826,162.03899993414402 M360.3181059439826,162.03899993414402 L358.8664983491912,161.81511755151243 M358.8664983491912,161.81511755151243 L357.5163709597185,161.31506533764127 M357.5163709597185,161.31506533764127 L356.29093788131166,160.54698935977257 M356.29093788131166,160.54698935977257 L355.211332725345,159.52363897016727 M355.211332725345,159.52363897016727 L354.2962523503066,158.26222574202092 M354.2962523503066,158.26222574202092 L353.56163109378605,156.78407382328857 M353.56163109378605,156.78407382328857 L353.0203112197382,155.11426439012732 M353.0203112197382,155.11426439012732 L352.68184410359567,153.2813063602764 M352.68184410359567,153.2813063602764 L352.5523071955307,151.31655508879004 M345.0871964632622,147.79618673065107 L352.5523071955307,151.31655508879004 M336.10873592741495,143.5621586621097 L337.654381827825,144.9607719611259 M337.654381827825,144.9607719611259 L339.2332639426536,146.08081900559702 M339.2332639426536,146.08081900559702 L340.8776937397999,146.95967683718692 M340.8776937397999,146.95967683718692 L342.34248388549213,147.4971820025478 M342.34248388549213,147.4971820025478 L343.72587581282164,147.7737890678992 M343.72587581282164,147.7737890678992 L345.0871964632622,147.79618673065107 M328.6948215411026,140.0659332809231 L336.10873592741495,143.5621586621097 M365.0274046560523,161.04255992269367 L366.58772776613927,161.64907748638635 M366.58772776613927,161.64907748638635 L368.11995541641704,161.98322480765083 M368.11995541641704,161.98322480765083 L369.59797726530695,162.03899939450508 M369.59797726530695,162.03899939450508 L370.99653680345375,161.81511755151243 M370.99653680345375,161.81511755151243 L372.291667518764,161.31506425774668 M372.291667518764,161.31506425774668 L373.46110013640885,160.54698935977257 M373.46110013640885,160.54698935977257 L374.4846503669097,159.52363897016727 M374.4846503669097,159.52363897016727 L375.34458221847274,158.26222466209543 M375.34458221847274,158.26222466209543 L376.02592067256813,156.78407598267484 M376.02592067256813,156.78407598267484 L376.5167219841415,155.11426546947158 M376.5167219841415,155.11426546947158 L376.808312211443,153.2813042025082 M376.808312211443,153.2813042025082 L376.8954414128989,151.31655508879004 M376.8954414128989,151.31655508879004 L473.3110000330399,106.97749518751579 M461.2036311901652,116.73007723689938 L462.76613995210914,117.30965377827715 M462.76613995210914,117.30965377827715 L464.30457140601084,117.62057395691778 M464.30457140601084,117.62057395691778 L465.7927121040424,117.65724037495573 M465.7927121040424,117.65724037495573 L467.2051369591903,117.41870653941743 M467.2051369591903,117.41870653941743 L468.5176479508942,116.90872013209406 M468.5176479508942,116.90872013209406 L469.707685957926,116.13561480069598 M469.707685957926,116.13561480069598 L470.75472228007965,115.11223694578064 M470.75472228007965,115.11223694578064 L471.6406263985366,113.85581140358994 M471.6406263985366,113.85581140358994 L472.3499860046488,112.38759383973479 M472.3499860046488,112.38759383973479 L472.8703846973098,110.73249662837048 M472.8703846973098,110.73249662837048 L473.1926465366616,108.91878492285167 M473.1926465366616,108.91878492285167 L473.3110000330399,106.97749518751579 M437.39790273416776,105.9214972143912 L437.39790273416776,105.9214972143912 M425.58170984763507,85.4552507828825 L427.22463472845266,84.80555857267609 M427.22463472845266,84.80555857267609 L429.04070115784583,84.25842101414025 M429.04070115784583,84.25842101414025 L430.9989827251395,83.82304065239879 M430.9989827251395,83.82304065239879 L433.0662110759549,83.5067314291984 M433.0662110759549,83.5067314291984 L435.2073121372497,83.31479932831564 M435.2073121372497,83.31479932831564 L437.38600614143076,83.25046195574231 M437.38600614143076,83.25046195574231 L439.56539444840394,83.31479932831564 M439.56539444840394,83.31479932831564 L441.70856676297177,83.5067314291984 M441.70856676297177,83.5067314291984 L443.77920746418505,83.82304014501943 M443.77920746418505,83.82304014501943 L445.74218860975776,84.25842101414025 M445.74218860975776,84.25842101414025 L447.5641595254445,84.80555857267609 M447.5641595254445,84.80555857267609 L449.2140956207005,85.4552507828825 M425.58170984763507,85.4552507828825 L425.58170984763507,55.03109960841505 M425.58170984763507,55.03109960841505 L328.6948215411026,98.11267999738175 M329.1756497709117,128.9269801758636 L328.6948215411026,98.11267999738175 M341.22640728050214,149.79950445216667 L341.22640728050214,149.79950445216667 M329.1756497709117,128.9269801758636 L327.6720150958235,129.69801360780843 M327.6720150958235,129.69801360780843 L326.39521540148473,130.55132810373345 M326.39521540148473,130.55132810373345 L325.367239847868,131.47249457743737 M325.367239847868,131.47249457743737 L324.6059181424258,132.44589974518533 M324.6059181424258,132.44589974518533 L324.12457815047384,133.4550015232989 M324.12457815047384,133.4550015232989 L323.93182962451755,134.48260230910847 M323.93182962451755,134.48260230910847 L324.0313627684364,135.5111483058974 M324.0313627684364,135.5111483058974 L324.4218691083365,136.52301819678001 M324.4218691083365,136.52301819678001 L325.09705270258127,137.50082413725914 M325.09705270258127,137.50082413725914 L326.04567271710033,138.42773088342165 M326.04567271710033,138.42773088342165 L327.2517481335738,139.28773142992458 M327.2517481335738,139.28773142992458 L328.6948215411026,140.0659332809231 M461.2036311901652,116.73007723689938 L461.2036311901652,116.73007723689938 M473.3110000330399,106.97749518751579 L474.74959481419825,106.22206280607082 M474.74959481419825,106.22206280607082 L475.9564757742635,105.38722149598107 M475.9564757742635,105.38722149598107 L476.9111458349051,104.48741896268149 M476.9111458349051,104.48741896268149 L477.5975087714599,103.53818847897526 M477.5975087714599,103.53818847897526 L478.00413584218165,102.55588147170414 M478.00413584218165,102.55588147170414 L478.124432259972,101.5573711370842 M478.124432259972,101.5573711370842 L477.9567222278352,100.55976390801584 M477.9567222278352,100.55976390801584 L477.5042634966157,99.58010467514288 M477.5042634966157,99.58010467514288 L476.77515433853745,98.63508671925746 M476.77515433853745,98.63508671925746 L475.782168364447,97.74077287541843 M475.782168364447,97.74077287541843 L474.54253395016843,96.91232389836102 M474.54253395016843,96.91232389836102 L473.07760497100855,96.16375136073793 M449.2140956207005,85.4552507828825 L449.3296574093218,55.03109960841505 M473.3110000330399,65.64271738235595 L449.3296574093218,55.03109960841505 M473.07760497100855,96.16375136073793 L473.3110000330399,65.64271738235595 M365.0274046560523,161.04255992269367 L365.0274046560523,161.04255992269367 M352.5523071955307,151.31655508879004 L354.223327211357,152.00633178205055 M354.223327211357,152.00633178205055 L356.07812972776145,152.58786659711177 M356.07812972776145,152.58786659711177 L358.08481389344615,153.05104246070184 M358.08481389344615,153.05104246070184 L360.2087995281955,153.3877834640081 M360.2087995281955,153.3877834640081 L362.4134406511689,153.5922070310355 M362.4134406511689,153.5922070310355 L364.66063035098193,153.6607483305853 M364.66063035098193,153.6607483305853 L366.9115160481582,153.59220811153332 M366.9115160481582,153.59220811153332 L369.1271875069379,153.38778238370585 M369.1271875069379,153.38778238370585 L371.269348719028,153.0510451606518 M371.269348719028,153.0510451606518 L373.3010214435952,152.5878687561854 M373.3010214435952,152.5878687561854 L375.18719550492466,152.00633070306972 M375.18719550492466,152.00633070306972 L376.8954414128989,151.31655508879004 M336.10873592741495,143.5621586621097 L334.6465297440587,141.90883042367204 M334.6465297440587,141.90883042367204 L333.30345335802986,140.05503269759646 M333.30345335802986,140.05503269759646 L332.10699164067944,138.03877006956685 M332.10699164067944,138.03877006956685 L331.08164847561926,135.9013446465247 M331.08164847561926,135.9013446465247 L330.24846223259755,133.68655130351067 M330.24846223259755,133.68655130351067 L329.624583261939,131.43977005538642 M329.624583261939,131.43977005538642 L329.2229264361126,129.20700497681963 M329.2229264361126,129.20700497681963 L329.0519050443375,127.03410274524185 M329.0519050443375,127.03410274524185 L329.1152458907548,124.96577319590233 M329.1152458907548,124.96577319590233 L329.4119004545743,123.04469549531171 M329.4119004545743,123.04469549531171 L329.93604248153446,121.31056181965192 M329.93604248153446,121.31056181965192 L330.67716322493044,119.79934243586422 M330.67716322493044,119.79934243586422 L331.62026138751486,118.54262925708571 M331.62026138751486,118.54262925708571 L332.74612783920435,117.56668141769256 M332.74612783920435,117.56668141769256 L334.0317165697441,116.89215535562818 M334.0317165697441,116.89215535562818 L335.4506003087053,116.53348774668001 M335.4506003087053,116.53348774668001 L336.97350282552196,116.49849312695198 M336.97350282552196,116.49849312695198 L338.5689007959885,116.7884123256855 M338.5689007959885,116.7884123256855 L340.20367172987466,117.39755709572114 M340.20367172987466,117.39755709572114 L341.84379244663916,118.31359265687922 M341.84379244663916,118.31359265687922 L343.455057658131,119.51769441501153 M343.455057658131,119.51769441501153 L345.00381038725476,120.98500212414797 M345.00381038725476,120.98500212414797 L346.45766351494456,122.6849399646162 M346.45766351494456,122.6849399646162 L347.7862009752284,124.58215318632847 M347.7862009752284,124.58215318632847 L348.9616312354366,126.63701131374455 M348.9616312354366,126.63701131374455 L349.9593891986507,128.80652420135988 M349.9593891986507,128.80652420135988 L350.7586684402796,131.04542456749016 M350.7586684402796,131.04542456749016 L351.3428555047186,133.30683547168263 M351.3428555047186,133.30683547168263 L351.6998892948493,135.54356674408962 M351.6998892948493,135.54356674408962 L351.82250577472166,137.70902810199038 M351.82250577472166,137.70902810199038 L351.70837582594316,139.75813603075738 M351.70837582594316,139.75813603075738 L351.36013559827495,141.6483513074735 M351.36013559827495,141.6483513074735 L350.78531245477734,143.34056313889158 M350.78531245477734,143.34056313889158 L349.99614160006274,144.79995642792085 M349.99614160006274,144.79995642792085 L349.0092826075556,145.99658385109439 M349.0092826075556,145.99658385109439 L347.845449170586,146.90602441006186 M347.845449170586,146.90602441006186 L346.52895565783473,147.50989625336547 M346.52895565783473,147.50989625336547 L345.0871964632622,147.79618673065107 M352.5523071955307,151.31655508879004 L352.18440088494077,120.30457720026254 M328.2091729781626,109.15300980884012 L352.18440088494077,120.30457720026254 M328.6948215411026,140.0659332809231 L328.2091729781626,109.15300980884012 M340.20367172987466,117.39755709572114 L159.44686118595519,198.6651759592399 M159.44686118595519,198.6651759592399 L161.07401254015403,199.63242678807865 M161.07401254015403,199.63242678807865 L162.68235377434934,200.88903858195806 M162.68235377434934,200.88903858195806 L164.23882737716963,202.4094144277716 M164.23882737716963,202.4094144277716 L165.71140691161003,204.16250272079432 M165.71140691161003,204.16250272079432 L167.06977208939412,206.1123225720345 M167.06977208939412,206.1123225720345 L168.28595859549608,208.2188222020858 M168.28595859549608,208.2188222020858 L169.3349498786352,210.43867307669944 M169.3349498786352,210.43867307669944 L170.19520904866584,212.72618696493356 M170.19520904866584,212.72618696493356 L170.84912992910503,215.03429507591898 M170.84912992910503,215.03429507591898 L171.28340678805344,217.31558547259633 M171.28340678805344,217.31558547259633 L171.48930418977713,219.52329067626079 M171.48930418977713,219.52329067626079 L171.46282162766678,221.61217170867226 M171.46282162766678,221.61217170867226 L171.204761095177,223.53953582475663 M171.204761095177,223.53953582475663 L170.72069351165527,225.26619288979833 M170.72069351165527,225.26619288979833 L170.0208160211796,226.75715520091168 M170.0208160211796,226.75715520091168 L169.1197158727794,227.9823241335568 M169.1197158727794,227.9823241335568 L168.03604528797499,228.91711804391272 M168.03604528797499,228.91711804391272 L166.79211990574976,229.54295422907666 M166.79211990574976,229.54295422907666 L165.41344230648735,229.84758776403396 M165.41344230648735,229.84758776403396 L163.92816721209965,229.82527142907108 M163.92816721209965,229.82527142907108 L162.366525495967,229.47693701090418 M162.366525495967,229.47693701090418 L160.76020430951624,228.81002389793048 M160.76020430951624,228.81002389793048 L159.14171275167874,227.83835014484052 M159.14171275167874,227.83835014484052 L157.54373703265549,226.58184318824198 M157.54373703265549,226.58184318824198 L155.99849493282287,225.06609131871178 M155.99849493282287,225.06609131871178 L154.53710293758624,223.32177193532567 M154.53710293758624,223.32177193532567 L153.18897499537226,221.3841552577345 M153.18897499537226,221.3841552577345 L151.98124602488707,219.29230454802484 M151.98124602488707,219.29230454802484 L150.93824737186804,217.08836154632866 M150.93824737186804,217.08836154632866 L150.08103047412789,214.81672559091427 M150.08103047412789,214.81672559091427 L149.42695509500504,212.5231790384771 M149.42695509500504,212.5231790384771 L148.98933944472546,210.25395428330276 M148.98933944472546,210.25395428330276 L148.77718933155853,208.05484145827194 M148.77718933155853,208.05484145827194 L148.79501195832404,205.97038324933257 M148.79501195832404,205.97038324933257 L149.04270703832202,204.04291410534253 M149.04270703832202,204.04291410534253 L149.51554325762197,202.31163279588787 M149.51554325762197,202.31163279588787 L150.2042333071733,200.81190160214078 M150.2042333071733,200.81190160214078 L151.09509632792435,199.5745295331205 M151.09509632792435,199.5745295331205 L152.17030946620466,198.62508689150405 M152.17030946620466,198.62508689150405 L153.4082422336756,197.98334313750584 M153.4082422336756,197.98334313750584 L154.78387749943587,197.6628318320709 M154.78387749943587,197.6628318320709 L156.26930706280663,197.67058670547516 M156.26930706280663,197.67058670547516 L157.83428748664105,198.00685534156457 M157.83428748664105,198.00685534156457 L159.44686118595519,198.6651759592399 M376.8954414128989,151.31655508879004 L376.6501705391722,120.30457720026254 M376.6501705391722,120.30457720026254 L473.5467002314863,76.35914125776793 M473.3110000330399,106.97749518751579 L473.5467002314863,76.35914125776793 M425.58170984763507,55.03109960841505 L427.2326661958267,54.38730167438354 M427.2326661958267,54.38730167438354 L429.057606251461,53.84512942280173 M429.057606251461,53.84512942280173 L431.0254532162934,53.41370111111564 M431.0254532162934,53.41370111111564 L433.102777379775,53.100263627316224 M433.102777379775,53.100263627316224 L435.2543348659778,52.910074274381884 M435.2543348659778,52.910074274381884 L437.4436704623203,52.8463211231325 M437.4436704623203,52.8463211231325 L439.63370716150166,52.910074274381884 M439.63370716150166,52.910074274381884 L441.7873561881638,53.100263627316224 M441.7873561881638,53.100263627316224 L443.8681261342358,53.41370060834254 M443.8681261342358,53.41370060834254 L445.84071871585945,53.84512942280173 M445.84071871585945,53.84512942280173 L447.67162111997743,54.38730167438354 M447.67162111997743,54.38730167438354 L449.3296574093218,55.03109960841505 M437.5140323939862,44.9753284797759 L435.9530080528073,44.417812531939035 M435.9530080528073,44.417812531939035 L434.4193606185708,44.13333991940385 M434.4193606185708,44.13333991940385 L432.9394355960904,44.12649908241883 M432.9394355960904,44.12649908241883 L431.53859221219653,44.39705951169094 M431.53859221219653,44.39705951169094 L430.240760723394,44.93999418108467 M430.240760723394,44.93999418108467 L429.06804029237884,45.74566026660159 M429.06804029237884,45.74566026660159 L428.0403293435978,46.79994482278153 M428.0403293435978,46.79994482278153 L427.17499098138177,48.08446864561773 M427.17499098138177,48.08446864561773 L426.4865762571178,49.576997044488735 M426.4865762571178,49.576997044488735 L425.98659608492034,51.25186465920183 M425.98659608492034,51.25186465920183 L425.6833288800254,53.08031465514284 M425.6833288800254,53.08031465514284 L425.58170984763507,55.03109960841505 M437.5140323939862,44.9753284797759 L340.3807400868467,88.07123716886497 M340.3807400868467,88.07123716886497 L338.822274068734,87.48753005771596 M338.822274068734,87.48753005771596 L337.2953151045501,87.18076702828296 M337.2953151045501,87.18076702828296 L335.8260910693705,87.15590983205715 M335.8260910693705,87.15590983205715 L334.4397728971775,87.41302532328177 M334.4397728971775,87.41302532328177 L333.1600354331373,87.94730341108351 M333.1600354331373,87.94730341108351 L332.0086611888489,88.74923590172739 M332.0086611888489,88.74923590172739 L331.00517590993644,89.80476023975177 M331.00517590993644,89.80476023975177 L330.1665199762404,91.09546258076205 M330.1665199762404,91.09546258076205 L329.5067805813765,92.59899108102309 M329.5067805813765,92.59899108102309 L329.03697248433957,94.28948388074787 M329.03697248433957,94.28948388074787 L328.7648528955574,96.13791064261216 M328.7648528955574,96.13791064261216 L328.6948215411026,98.11267999738175 M328.6948215411026,98.11267999738175 L327.1835180124155,98.87686907417833 M327.1835180124155,98.87686907417833 L325.9001580749993,99.7226118854635 M325.9001580749993,99.7226118854635 L324.8668445278085,100.63560822402388 M324.8668445278085,100.63560822402388 L324.1015007577773,101.60038401602174 M324.1015007577773,101.60038401602174 L323.617526485778,102.60054439090112 M323.617526485778,102.60054439090112 L323.4235802234019,103.61904449084659 M323.4235802234019,103.61904449084659 L323.5233766077577,104.63848611184801 M323.5233766077577,104.63848611184801 L323.9156066421545,105.64140380875216 M323.9156066421545,105.64140380875216 L324.5939487224862,106.61056323148222 M324.5939487224862,106.61056323148222 L325.54711119109595,107.52927745791544 M325.54711119109595,107.52927745791544 L326.75903786592784,108.38168024065641 M326.75903786592784,108.38168024065641 L328.2091729781626,109.15300980884012 M473.5467002314863,76.35914125776793 L474.9923158313795,75.61049069117473 M474.9923158313795,75.61049069117473 L476.20506027583974,74.78314701933124 M476.20506027583974,74.78314701933124 L477.1643377030439,73.89142898961711 M477.1643377030439,73.89142898961711 L477.85397544917845,72.95073099160277 M477.85397544917845,72.95073099160277 L478.26249185796496,71.97725798861552 M478.26249185796496,71.97725798861552 L478.3832634048604,70.98773175371286 M478.3832634048604,70.98773175371286 L478.21460996375174,69.99910490543073 M478.21460996375174,69.99910490543073 L477.7598092381867,69.02826877349787 M477.7598092381867,69.02826877349787 L477.0270030809282,68.09176595396531 M477.0270030809282,68.09176595396531 L476.0290313165805,67.20551401440434 M476.0290313165805,67.20551401440434 L474.7832099249901,66.38453635283179 M474.7832099249901,66.38453635283179 L473.3110000330399,65.64271738235595 M461.5554526355235,55.58969117542199 L463.10773741422844,55.0257792018358 M463.10773741422844,55.0257792018358 L464.63077555402634,54.73587699979146 M464.63077555402634,54.73587699979146 L466.0984044567867,54.7246644253687 M466.0984044567867,54.7246644253687 L467.4854814882377,54.99198157528912 M467.4854814882377,54.99198157528912 L468.7683114890296,55.532855213396545 M468.7683114890296,55.532855213396545 L469.92505546461894,56.33767396953618 M469.92505546461894,56.33767396953618 L470.9360903140549,57.392336096617385 M470.9360903140549,57.392336096617385 L471.7843401125966,58.67845264891656 M471.7843401125966,58.67845264891656 L472.4555472874362,60.17375889470253 M472.4555472874362,60.17375889470253 L472.93849542882174,61.85253993208988 M472.93849542882174,61.85253993208988 L473.22519732666524,63.68597047684483 M473.22519732666524,63.68597047684483 L473.3110000330399,65.64271738235595 M461.5554526355235,55.58969117542199 L437.5140323939862,44.9753284797759 M437.5140323939862,44.9753284797759 L439.06690448280585,44.417812531939035 M439.06690448280585,44.417812531939035 L440.59154265983966,44.13333991940385 M440.59154265983966,44.13333991940385 L442.06175618461293,44.12649958529818 M442.06175618461293,44.12649958529818 L443.4523569413194,44.39705951169094 M443.4523569413194,44.39705951169094 L444.73958780534343,44.93999418108467 M444.73958780534343,44.93999418108467 L445.90153276292193,45.74566026660159 M445.90153276292193,45.74566026660159 L446.9184779063012,46.79994482278153 M446.9184779063012,46.79994482278153 L447.77324417287826,48.08446864561773 M447.77324417287826,48.08446864561773 L448.4514606971611,49.576997044488735 M448.4514606971611,49.576997044488735 L448.94178978093487,51.25186465920183 M448.94178978093487,51.25186465920183 L449.2361167009465,53.08031465514284 M449.2361167009465,53.08031465514284 L449.3296574093218,55.03109960841505 M352.18440088494077,120.30457720026254 L353.86372865724303,120.98829908989836 M353.86372865724303,120.98829908989836 L355.7277874159615,121.56473087634663 M355.7277874159615,121.56473087634663 L357.7445163759714,122.0238433946439 M357.7445163759714,122.0238433946439 L359.87916104773524,122.3576308356283 M359.87916104773524,122.3576308356283 L362.0948899400622,122.56026164420894 M362.0948899400622,122.56026164420894 L364.3534026006189,122.62820189012893 M364.3534026006189,122.62820189012893 L366.6156486419063,122.56026271523137 M366.6156486419063,122.56026271523137 L368.8425193950301,122.3576297648006 M368.8425193950301,122.3576297648006 L370.99552336126607,122.02384607091057 M370.99552336126607,122.02384607091057 L373.03749347533824,121.56473301647702 M373.03749347533824,121.56473301647702 L374.93324083534395,120.9882980203871 M374.93324083534395,120.9882980203871 L376.6501705391722,120.30457720026254 M340.3807400868467,88.07123716886497 L338.765490557314,88.92206982628704 M338.765490557314,88.92206982628704 L337.1807108584103,90.02563533434966 M337.1807108584103,90.02563533434966 L335.65378711766493,91.36307712871769 M335.65378711766493,91.36307712871769 L334.21113724990175,92.91141803178982 M334.21113724990175,92.91141803178982 L332.87772976862317,94.6439611014381 M332.87772976862317,94.6439611014381 L331.6766566889194,96.53081853577675 M331.6766566889194,96.53081853577675 L330.6286932169572,98.53940667700317 M330.6286932169572,98.53940667700317 L329.7519419373269,100.63495867773372 M329.7519419373269,100.63495867773372 L329.0615225623625,102.78121427543715 M329.0615225623625,102.78121427543715 L328.56926753967554,104.94111097040076 M328.56926753967554,104.94111097040076 L328.2835553294435,107.0773202932993 M328.2835553294435,107.0773202932993 L328.2091729781626,109.15300980884012 M340.3807400868467,88.07123716886497 L364.41728571205647,99.11659915655957 M364.41728571205647,99.11659915655957 L362.80128354093017,99.9751140060639 M362.80128354093017,99.9751140060639 L361.21474137409757,101.08710518351148 M361.21474137409757,101.08710518351148 L359.6850763495119,102.43357133334933 M359.6850763495119,102.43357133334933 L358.23875465775217,103.99137926911493 M358.23875465775217,103.99137926911493 L356.9008094413873,105.73366763257087 M356.9008094413873,105.73366763257087 L355.6944122173968,107.63037891047816 M355.6944122173968,107.63037891047816 L354.64043124300065,109.6487575164976 M354.64043124300065,109.6487575164976 L353.75707420051526,111.7538653678941 M353.75707420051526,111.7538653678941 L353.0595757285231,113.90927503448091 M353.0595757285231,113.90927503448091 L352.55989082688035,116.07776428488893 M352.55989082688035,116.07776428488893 L352.2665263422273,118.22185479036813 M352.2665263422273,118.22185479036813 L352.18440088494077,120.30457720026254 M364.41728571205647,99.11659915655957 L365.99569032982214,99.97511294665185 M365.99569032982214,99.97511294665185 L367.5505367315116,101.08710412329003 M367.5505367315116,101.08710412329003 L369.054958531966,102.43357080280555 M369.054958531966,102.43357080280555 L370.48292832863996,103.99137926911493 M370.48292832863996,103.99137926911493 L371.80972913590904,105.73366656964066 M371.80972913590904,105.73366656964066 L373.01239274826276,107.63037891047816 M373.01239274826276,107.63037891047816 L374.07010964403855,109.6487575164976 M374.07010964403855,109.6487575164976 L374.9646062393061,111.75386430216577 M374.9646062393061,111.75386430216577 L375.6804649289811,113.90927716769113 M375.6804649289811,113.90927716769113 L376.20539224924516,116.07776535231665 M376.20539224924516,116.07776535231665 L376.53044533069664,118.22185265400503 M376.53044533069664,118.22185265400503 L376.6501705391722,120.30457720026254 M364.41728571205647,99.11659915655957 L461.5554526355235,55.58969117542199 M461.5554526355235,55.58969117542199 L463.1319329891197,56.418128801435785 M463.1319329891197,56.418128801435785 L464.6807126010564,57.49708323272466 M464.6807126010564,57.49708323272466 L466.17503183663433,58.80812024687117 M466.17503183663433,58.80812024687117 L467.58904118467166,60.32871855539855 M467.58904118467166,60.32871855539855 L468.8982693424289,62.03266141592189 M468.8982693424289,62.03266141592189 L470.08005586991453,63.89056254281809 M470.08005586991453,63.89056254281809 L471.11395602933146,65.87034035183848 M471.11395602933146,65.87034035183848 L471.98211218151636,67.93773178642766 M471.98211218151636,67.93773178642766 L472.6695650076368,70.05697422537452 M472.6695650076368,70.05697422537452 L473.1645129036943,72.19146830552933 M473.1645129036943,72.19146830552933 L473.4585312374445,74.30433056287893 M473.4585312374445,74.30433056287893 L473.5467002314863,76.35914125776793 M437.5140323939862,44.9753284797759 L437.5140323939862,44.9753284797759 M340.3807400868467,88.07123716886497 L340.3807400868467,88.07123716886497 M461.5554526355235,55.58969117542199 L461.5554526355235,55.58969117542199 M364.41728571205647,99.11659915655957 L364.41728571205647,99.11659915655957 M420.6948528902427,672.8020908176632 L420.21941105150154,124.63263307595446 M420.21941105150154,124.63263307595446 L419.22331857523574,124.06727127714998 M419.22331857523574,124.06727127714998 L418.5058157694298,123.41943050381417 M418.5058157694298,123.41943050381417 L418.09807407862587,122.71754186211717 M418.09807407862587,122.71754186211717 L418.01763716291265,121.99235409878611 M418.01763716291265,121.99235409878611 L418.26770529785904,121.27557610479448 M418.26770529785904,121.27557610479448 L418.83704792449316,120.5984890730602 M418.83704792449316,120.5984890730602 L419.70054664080425,119.99058724884298 M419.70054664080425,119.99058724884298 L420.8203345589037,119.47830620450497 M420.8203345589037,119.47830620450497 L422.1474723656655,119.08388981621704 M422.1474723656655,119.08388981621704 L423.6240865420986,118.82444332846228 M423.6240865420986,118.82444332846228 L425.1858776914834,118.71120898951028 M425.1858776914834,118.71120898951028 L426.764889236886,118.74909089223127 M426.764889236886,118.74909089223127 L428.29242566098225,118.93644827998753 M428.29242566098225,118.93644827998753 L429.7019996296253,119.26516566536816 M429.7019996296253,119.26516566536816 L430.9321930753599,119.72099352296624 M430.9321930753599,119.72099352296624 L431.9293070662462,120.28415192640739 M431.9293070662462,120.28415192640739 L432.64969777352337,120.93017029317957 M432.64969777352337,120.93017029317957 L433.06169440979284,121.63093262601319 M433.06169440979284,121.63093262601319 L433.1470175944074,122.35588492686799 M433.1470175944074,122.35588492686799 L432.90162217520896,123.07335901763452 M432.90162217520896,123.07335901763452 L432.3359307587647,123.75195334463501 M432.3359307587647,123.75195334463501 L431.47443042114514,124.36191303939603 M431.47443042114514,124.36191303939603 L430.35464250889186,124.87644670538964 M430.35464250889186,124.87644670538964 L429.02550633126225,125.27292096775386 M429.02550633126225,125.27292096775386 L427.5452409434171,125.53387475666761 M427.5452409434171,125.53387475666761 L425.9787770688249,125.64780519555336 M425.9787770688249,125.64780519555336 L424.39487924308423,125.60968782885891 M424.39487924308423,125.60968782885891 L422.8630878676762,125.42120412899101 M422.8630878676762,125.42120412899101 L421.4506260011751,125.09066433134643 M421.4506260011751,125.09066433134643 L420.21941105150154,124.63263307595446 M420.6948528902427,672.8020908176632 L419.7956234640472,672.1907213901779 M419.7956234640472,672.1907213901779 L419.1648256181678,671.5560471665924 M419.1648256181678,671.5560471665924 L418.78337661276464,670.8810913982163 M418.78337661276464,670.8810913982163 L418.680680693286,670.1920333589619 M418.680680693286,670.1920333589619 L418.86399202365976,669.5016288349093 M418.86399202365976,669.5016288349093 L419.3307694714512,668.825106258651 M419.3307694714512,668.825106258651 L420.0653714448005,668.1809150346356 M420.0653714448005,668.1809150346356 L420.922505552122,667.6517728033816 M420.922505552122,667.6517728033816 L421.96036842071885,667.1759264709416 M421.96036842071885,667.1759264709416 L422.8056336734525,666.8793970160843 M422.8056336734525,666.8793970160843 L423.7258012028928,666.6314556254622 M423.7258012028928,666.6314556254622 L424.88720478528603,666.4189302404961 M424.88720478528603,666.4189302404961 L426.29259315031464,666.308904173163 M426.29259315031464,666.308904173163 L427.61670046440173,666.3653174718564 M427.61670046440173,666.3653174718564 L428.8568837510356,666.5882017857921 M428.8568837510356,666.5882017857921 L429.95770225299736,666.9702883795344 M429.95770225299736,666.9702883795344 L430.88156295205056,667.4925373559654 M430.88156295205056,667.4925373559654 L431.67297827232437,668.2055305380634 M431.67297827232437,668.2055305380634 L432.20244553888364,669.0223992053412 M432.20244553888364,669.0223992053412 L432.4607629820747,669.9091192522303 M432.4607629820747,669.9091192522303 L432.43660659823007,670.8220549841319 M432.43660659823007,670.8220549841319 L432.12577300273364,671.7112210529849 M432.12577300273364,671.7112210529849 L431.53614262894666,672.5248405792375 M431.53614262894666,672.5248405792375 L430.68795831290925,673.2170553260671 M430.68795831290925,673.2170553260671 L429.7446706527287,673.6997077281683 M429.7446706527287,673.6997077281683 L428.6297225656002,674.0453350344976 M428.6297225656002,674.0453350344976 L427.7297491878805,674.1994348128053 M427.7297491878805,674.1994348128053 L426.62581543018064,674.2694872193053 M426.62581543018064,674.2694872193053 L425.4392808124812,674.2207964160848 M425.4392808124812,674.2207964160848 L424.18648946203365,674.0434061965034 M424.18648946203365,674.0434061965034 L422.8941669963306,673.7261440943182 M422.8941669963306,673.7261440943182 L421.7426257064629,673.3148435803064 M421.7426257064629,673.3148435803064 L420.6948528902427,672.8020908176632 M576.4217417445886,640.4984828834113 L521.0581054481123,631.1628860906953 M631.897261977557,692.3937700601855 L576.4217417445886,640.4984828834113 M631.897261977557,692.3937700601855 L633.2689491445143,693.5791482841657 M633.2689491445143,693.5791482841657 L634.6880959540829,694.5705472406966 M634.6880959540829,694.5705472406966 L636.1278414703501,695.3490462182307 M636.1278414703501,695.3490462182307 L637.5608914113214,695.8996859616987 M637.5608914113214,695.8996859616987 L638.9600307417737,696.2117984874318 M638.9600307417737,696.2117984874318 L640.2986215260033,696.2791913234632 M640.2986215260033,696.2791913234632 L641.5511291275536,696.1003120307156 M641.5511291275536,696.1003120307156 L642.693587741595,695.6782757752233 M642.693587741595,695.6782757752233 L643.7040740122727,695.0208533239925 M643.7040740122727,695.0208533239925 L644.5631327576929,694.140306206106 M644.5631327576929,694.140306206106 L645.2541610132015,693.0532126933012 M645.2541610132015,693.0532126933012 L645.7637373224971,691.7801436119166 M645.7637373224971,691.7801436119166 L646.0819031066318,690.3452997406641 M646.0819031066318,690.3452997406641 L646.2023671331258,688.77603768016 M646.2023671331258,688.77603768016 L646.1226408347319,687.1023669774718 M646.1226408347319,687.1023669774718 L645.8441090723819,685.3563673153085 M645.8441090723819,685.3563673153085 L645.3719951558446,683.5715542378321 M645.3719951558446,683.5715542378321 L644.7152858558053,681.7822408027773 M644.7152858558053,681.7822408027773 L643.8865617782762,680.0228504426511 M643.8865617782762,680.0228504426511 L642.9017433502214,678.327245837261 M599.595558558303,609.4006805299488 L642.9017433502214,678.327245837261 M589.6004258401422,536.1230657908687 L599.595558558303,609.4006805299488 M589.6004258401422,536.1230657908687 L589.277830807917,534.3226356895688 M589.277830807917,534.3226356895688 L588.7639277064294,532.4958592299613 M588.7639277064294,532.4958592299613 L588.0685143815385,530.6778528729652 M588.0685143815385,530.6778528729652 L587.2049169313476,528.9035963501213 M587.2049169313476,528.9035963501213 L586.18973282268,527.207253099401 M586.18973282268,527.207253099401 L585.0425017621794,525.6214654846606 M585.0425017621794,525.6214654846606 L583.7853240387145,524.1767055380925 M583.7853240387145,524.1767055380925 L582.4424180091875,522.9007273314776 M582.4424180091875,522.9007273314776 L581.039644096822,521.8179697560557 M581.039644096822,521.8179697560557 L579.6039902205451,520.9490935442223 M579.6039902205451,520.9490935442223 L578.163040478192,520.310624544109 M578.163040478192,520.310624544109 L576.7444350235854,519.9145793226712 M576.7444350235854,519.9145793226712 L575.3753290081676,519.7683108634931 M575.3753290081676,519.7683108634931 L574.0818704150581,519.8743480462366 M574.0818704150581,519.8743480462366 L572.888696986352,520.2303543066765 M572.888696986352,520.2303543066765 L571.8184702906341,520.8292517645168 M571.8184702906341,520.8292517645168 L570.8914494751997,521.6593243779162 M570.8914494751997,521.6593243779162 L570.1251207810861,522.7044728743545 M570.1251207810861,522.7044728743545 L569.533874556765,523.9445665791413 M569.533874556765,523.9445665791413 L569.1287504824869,525.3558336474522 M555.7282990778322,585.7352035256799 L569.1287504824869,525.3558336474522 M511.59144644875835,606.308863629803 L555.7282990778322,585.7352035256799 M511.59144644875835,606.308863629803 L510.5990391566803,606.8896917477618 M510.5990391566803,606.8896917477618 L509.7477771654387,607.6926018451034 M509.7477771654387,607.6926018451034 L509.0537095077624,608.7020443613865 M509.0537095077624,608.7020443613865 L508.5298670079259,609.8985906393578 M508.5298670079259,609.8985906393578 L508.18602079553244,611.25929881143 M508.18602079553244,611.25929881143 L508.0285123486287,612.7581720388062 M508.0285123486287,612.7581720388062 L508.060166096911,614.3666597865848 M508.060166096911,614.3666597865848 L508.2802311058751,616.0541895515419 M508.2802311058751,616.0541895515419 L508.68441419991075,617.7887551539745 M508.68441419991075,617.7887551539745 L509.26496836480896,619.5374947504629 M509.26496836480896,619.5374947504629 L510.01083895119376,621.2673147516507 M510.01083895119376,621.2673147516507 L510.90788042816644,622.9454924524059 M510.90788042816644,622.9454924524059 L511.9391152610924,624.5402989271143 M511.9391152610924,624.5402989271143 L513.0850490170194,626.021545724052 M513.0850490170194,626.021545724052 L514.3240248942348,627.3611765852235 M514.3240248942348,627.3611765852235 L515.6326329863499,628.5337755297913 M515.6326329863499,628.5337755297913 L516.9861189831372,629.5170397310718 M516.9861189831372,629.5170397310718 L518.3588624725487,630.2921961882157 M518.3588624725487,630.2921961882157 L519.7248379588898,630.8443783187192 M519.7248379588898,630.8443783187192 L521.0581054481123,631.1628860906953 M521.0581054481123,631.1628860906953 L526.0774761700795,628.278821525219 M581.4561768515171,637.5617404392065 L526.0774761700795,628.278821525219 M581.4561768515171,637.5617404392065 L576.4217417445886,640.4984828834113 M636.9093927970598,689.3792236012182 L581.4561768515171,637.5617404392065 M631.897261977557,692.3937700601855 L636.9093927970598,689.3792236012182 M516.6280715113619,603.4468686890696 L515.6347336535183,604.0282077463733 M515.6347336535183,604.0282077463733 L514.7824106316197,604.8313840285766 M514.7824106316197,604.8313840285766 L514.0871720396275,605.8408434334037 M514.0871720396275,605.8408434334037 L513.5620713230096,607.0371574430494 M513.5620713230096,607.0371574430494 L513.2169038509185,608.3973889907686 M513.2169038509185,608.3973889907686 L513.058036468658,609.8955505743228 M513.058036468658,609.8955505743228 L513.0883196102444,611.5031053189446 M513.0883196102444,611.5031053189446 L513.3070284810032,613.189498459151 M513.3070284810032,613.189498459151 L513.709895674403,614.9227452828136 M513.709895674403,614.9227452828136 L514.2891991064319,616.6700087616899 M514.2891991064319,616.6700087616899 L515.0339077424701,618.3982230173337 M515.0339077424701,618.3982230173337 L515.929897929621,620.0746954548758 M515.929897929621,620.0746954548758 L516.9602118600318,621.6677291161882 M516.9602118600318,621.6677291161882 L518.1053723572081,623.1471688263447 M518.1053723572081,623.1471688263447 L519.3437370691594,624.4849923039746 M519.3437370691594,624.4849923039746 L520.6519074947615,625.6558176308412 M520.6519074947615,625.6558176308412 L522.0051374781801,626.6373755290635 M522.0051374781801,626.6373755290635 L523.3778113827387,627.4109253979321 M523.3778113827387,627.4109253979321 L524.7439050057972,627.9616313009946 M524.7439050057972,627.9616313009946 L526.0774761700795,628.278821525219 M511.59144644875835,606.308863629803 L516.6280715113619,603.4468686890696 M642.9017433502214,678.327245837261 L647.9297189184296,675.3112416929532 M636.9093927970598,689.3792236012182 L638.2805992152081,690.5627236621481 M638.2805992152081,690.5627236621481 L639.6994449090015,691.5523137444003 M639.6994449090015,691.5523137444003 L641.1390745453244,692.3291074842011 M641.1390745453244,692.3291074842011 L642.5721960205195,692.878178175185 M642.5721960205195,692.878178175185 L643.9715929856051,693.1888879362198 M643.9715929856051,693.1888879362198 L645.3106227424247,693.2550713935459 M645.3106227424247,693.2550713935459 L646.5637425073502,693.0751996241254 M646.5637425073502,693.0751996241254 L647.706975092814,692.652407277298 M647.706975092814,692.652407277298 L648.7183827029202,691.9944801334245 M648.7183827029202,691.9944801334245 L649.5784929403137,691.113689957611 M649.5784929403137,691.113689957611 L650.2706831181073,690.0266202169921 M650.2706831181073,690.0266202169921 L650.7815099209342,688.7538417683414 M650.7815099209342,688.7538417683414 L651.1009911559461,687.3195502020174 M651.1009911559461,687.3195502020174 L651.2228106684415,685.7510917971395 M651.2228106684415,685.7510917971395 L651.1444541072939,684.0784608174727 M651.1444541072939,684.0784608174727 L650.8672801810513,682.3337169834099 M650.8672801810513,682.3337169834099 L650.3964861810522,680.5503516109779 M650.3964861810522,680.5503516109779 L649.7410334908521,678.762649721554 M649.7410334908521,678.762649721554 L648.9134784710869,677.0050034768977 M648.9134784710869,677.0050034768977 L647.9297189184296,675.3112416929532 M555.7282990778322,585.7352035256799 L560.8009961794743,582.8478743333278 M516.6280715113619,603.4468686890696 L560.8009961794743,582.8478743333278 M604.6653359844895,606.4623558248383 L647.9297189184296,675.3112416929532 M604.6653359844895,606.4623558248383 L599.595558558303,609.4006805299488 M569.1287504824869,525.3558336474522 L574.2580875590616,522.4936786265141 M560.8009961794743,582.8478743333278 L574.2580875590616,522.4936786265141 M594.728369520689,533.2374384161667 L604.6653359844895,606.4623558248383 M589.6004258401422,536.1230657908687 L594.728369520689,533.2374384161667 M594.728369520689,533.2374384161667 L594.4071774894611,531.4383851629105 M594.4071774894611,531.4383851629105 L593.8946286150803,529.6131601566859 M593.8946286150803,529.6131601566859 L593.20049468804,527.7968497972132 M593.20049468804,527.7968497972132 L592.3380771045988,526.024400898133 M592.3380771045988,526.024400898133 L591.3239504688147,524.3299417859453 M591.3239504688147,524.3299417859453 L590.1776339502266,522.746078257883 M590.1776339502266,522.746078257883 L588.92121005186,521.3032450693232 M588.92121005186,521.3032450693232 L587.5788824169703,520.029159032358 M587.5788824169703,520.029159032358 L586.1765001800378,518.9482225744972 M586.1765001800378,518.9482225744972 L584.7410436210552,518.0810614795857 M584.7410436210552,518.0810614795857 L583.3000929755642,517.4441688205911 M583.3000929755642,517.4441688205911 L581.8812884466314,517.0495312300277 M581.8812884466314,517.0495312300277 L580.511789089187,516.9044751212025 M580.511789089187,516.9044751212025 L579.217750592709,517.0115066723752 M579.217750592709,517.0115066723752 L578.0238220561325,517.3682708968007 M578.0238220561325,517.3682708968007 L576.9526797692594,517.9676760448295 M576.9526797692594,517.9676760448295 L576.0246007047722,518.7979970125638 M576.0246007047722,518.7979970125638 L575.25709165938,519.8431303892768 M575.25709165938,519.8431303892768 L574.6645658246882,521.0829463080412 M574.6645658246882,521.0829463080412 L574.2580875590616,522.4936786265141 M582.9939201462751,581.6293006133028 L580.7368472408401,580.5426727930462 M580.7368472408401,580.5426727930462 L578.4952569910143,579.7081015171004 M578.4952569910143,579.7081015171004 L576.2890510312836,579.1326243931012 M576.2890510312836,579.1326243931012 L574.1377487822334,578.8209280281903 M574.1377487822334,578.8209280281903 L572.0603160622162,578.7753259529194 M572.0603160622162,578.7753259529194 L570.0749932870846,578.9957465654563 M570.0749932870846,578.9957465654563 L568.1991366385099,579.479761382445 M568.1991366385099,579.479761382445 L566.4490706377345,580.2226090562165 M566.4490706377345,580.2226090562165 L564.839948446894,581.217270897271 M564.839948446894,581.217270897271 L563.3856257768778,582.4545383937052 M563.3856257768778,582.4545383937052 L562.0985541622376,583.9231157828582 M562.0985541622376,583.9231157828582 L560.9896792045596,585.6097327562765 M560.9896792045596,585.6097327562765 L560.0683566294292,587.4992708764767 M560.0683566294292,587.4992708764767 L559.3422853886875,589.5749095873505 M559.3422853886875,589.5749095873505 L558.8174594015851,591.8182845639599 M558.8174594015851,591.8182845639599 L558.4981128784594,594.2096432760736 M558.4981128784594,594.2096432760736 L558.3867115770108,596.7280290764786 M558.3867115770108,596.7280290764786 L558.483940586065,599.3514611547636 M558.483940586065,599.3514611547636 L558.7886962927901,602.0571159588283 M558.7886962927901,602.0571159588283 L559.2981228478204,604.8215297061197 M559.2981228478204,604.8215297061197 L560.0076235925279,607.6207826075557 M560.0076235925279,607.6207826075557 L560.9109265745763,610.4307078387352 M560.9109265745763,610.4307078387352 L562.0001206044749,613.2270783226688 M562.0001206044749,613.2270783226688 L563.2657392026982,615.9858104305583 M563.2657392026982,615.9858104305583 L564.6968293746872,618.6831530901136 M564.6968293746872,618.6831530901136 L566.2810511831908,621.2958867889154 M566.2810511831908,621.2958867889154 L568.0047699242675,623.8015040788829 M568.0047699242675,623.8015040788829 L569.853172645694,626.1783964684432 M569.853172645694,626.1783964684432 L571.8103801647712,628.4060230425032 M571.8103801647712,628.4060230425032 L573.8595796023014,630.4650924187696 M573.8595796023014,630.4650924187696 L575.9831571705427,632.3377049729245 M575.9831571705427,632.3377049729245 L578.1628382443578,634.0075167902585 M578.1628382443578,634.0075167902585 L580.3798348537032,635.4598784692193 M580.3798348537032,635.4598784692193 L582.6149988844287,636.6819500313364 M582.6149988844287,636.6819500313364 L584.8489784516524,637.6628302178203 M584.8489784516524,637.6628302178203 L587.0623770395288,638.3936573089511 M587.0623770395288,638.3936573089511 L589.235916170987,638.8676813535458 M589.235916170987,638.8676813535458 L591.3505987694493,639.0803480217695 M591.3505987694493,639.0803480217695 L593.3878725494006,639.0293531161935 M593.3878725494006,639.0293531161935 L595.3297914156793,638.7146635214226 M595.3297914156793,638.7146635214226 L597.159171900427,638.1385493984212 M597.159171900427,638.1385493984212 L598.8597542547724,637.3055743985194 M598.8597542547724,637.3055743985194 L600.416344666819,636.2225727829378 M600.416344666819,636.2225727829378 L601.8149640872302,634.8986090106264 M601.8149640872302,634.8986090106264 L603.0429730970767,633.3449119965917 M603.0429730970767,633.3449119965917 L604.0892045673487,631.5747937424361 M604.0892045673487,631.5747937424361 L604.9440640485559,629.603538425911 M604.9440640485559,629.603538425911 L605.5996437894888,627.4482878539377 M605.5996437894888,627.4482878539377 L606.0497856188033,625.1278858911746 M606.0497856188033,625.1278858911746 L606.2901706400003,622.662727847425 M606.2901706400003,622.662727847425 L606.3183500367026,620.0745707885467 M606.3183500367026,620.0745707885467 L606.1337972325118,617.3863491092791 M606.1337972325118,617.3863491092791 L605.7379102262794,614.6219595423729 M605.7379102262794,614.6219595423729 L605.134005024618,611.8060410976545 M605.134005024618,611.8060410976545 L604.3273081599508,608.963753725018 M604.3273081599508,608.963753725018 L603.324897934646,606.1205355906693 M603.324897934646,606.1205355906693 L602.1356483546126,603.3018659585309 M602.1356483546126,603.3018659585309 L600.7701507375878,600.5330225800175 M600.7701507375878,600.5330225800175 L599.2406149263969,597.8388434972335 M599.2406149263969,597.8388434972335 L597.5607505435981,595.2434876534433 M597.5607505435981,595.2434876534433 L595.7456420460128,592.7702053530963 M595.7456420460128,592.7702053530963 L593.8116029948452,590.4411280844239 M593.8116029948452,590.4411280844239 L591.7760185612395,588.2770422619375 M591.7760185612395,588.2770422619375 L589.6571797167758,586.2972113882162 M589.6571797167758,586.2972113882162 L587.4741094049776,584.5191882451707 M587.4741094049776,584.5191882451707 L585.2463775358799,582.9586586075127 M585.2463775358799,582.9586586075127 L582.9939201462751,581.6293006133028 M582.9939201462751,581.6293006133028 L585.5310497262965,580.1790290753145 M585.5310497262965,580.1790290753145 L583.274001577167,579.0936698007629 M583.274001577167,579.0936698007629 L581.0323312730809,578.2602849465334 M581.0323312730809,578.2602849465334 L578.825941209776,577.685901859842 M578.825941209776,577.685901859842 L576.6743525385856,577.3751977889497 M576.6743525385856,577.3751977889497 L574.5965337571109,577.3304778762354 M574.5965337571109,577.3304778762354 L572.6107288817437,577.5516631674409 M572.6107288817437,577.5516631674409 L570.7342985723026,578.0363189092401 M570.7342985723026,578.0363189092401 L568.9835726642569,578.7796786091526 M568.9835726642569,578.7796786091526 L567.3737104064394,579.7747195821577 M567.3737104064394,579.7747195821577 L565.9185743097613,581.0122304913243 M565.9185743097613,581.0122304913243 L564.6306233505685,582.4809139229679 M564.6306233505685,582.4809139229679 L563.5208111380309,584.1674990912377 M563.5208111380309,584.1674990912377 L562.5985018920263,586.0568682445046 M562.5985018920263,586.0568682445046 L561.871403460895,588.1322026542709 M561.871403460895,588.1322026542709 L561.3455189764167,590.3751409340339 M561.3455189764167,590.3751409340339 L561.0250920913638,592.7659345775485 M561.0250920913638,592.7659345775485 L560.9125981472203,595.2836319964358 M560.9125981472203,595.2836319964358 L561.0087318712336,597.9062584281423 M561.0087318712336,597.9062584281423 L561.3123992581652,600.6109973115756 M561.3123992581652,600.6109973115756 L561.8207539512097,603.3743927295702 M561.8207539512097,603.3743927295702 L562.5292085892293,606.1725335817002 M562.5292085892293,606.1725335817002 L563.4315002442339,608.9812624758848 M563.4315002442339,608.9812624758848 L564.5197264049915,611.7763624516043 M564.5197264049915,611.7763624516043 L565.7844288553468,614.5337605968841 M565.7844288553468,614.5337605968841 L567.2146623851947,617.2297170839518 M567.2146623851947,617.2297170839518 L568.7980943023487,619.8410240841492 M568.7980943023487,619.8410240841492 L570.521096555841,622.3451861921576 M570.521096555841,622.3451861921576 L572.3688622050481,624.7206072251024 M572.3688622050481,624.7206072251024 L574.3255173960601,626.9467587556435 M574.3255173960601,626.9467587556435 L576.3742538534361,629.0043619675293 M576.3742538534361,629.0043619675293 L578.4974616432868,630.8755297897435 M578.4974616432868,630.8755297897435 L580.6768692119655,632.5439307459221 M580.6768692119655,632.5439307459221 L582.8936908580936,633.9949276577734 M582.8936908580936,633.9949276577734 L585.1287799236884,635.2156924572157 M585.1287799236884,635.2156924572157 L587.3627851516551,636.1953353775557 M587.3627851516551,636.1953353775557 L589.5763098212501,636.9250056723645 M589.5763098212501,636.9250056723645 L591.7500744250167,637.3979637491764 M591.7500744250167,637.3979637491764 L593.8650800314409,637.6096649210483 M593.8650800314409,637.6096649210483 L595.9027716872193,637.5578138232223 M595.9027716872193,637.5578138232223 L597.8451998402636,637.2423852776185 M597.8451998402636,637.2423852776185 L599.6751767928429,636.6656563999406 M599.6751767928429,636.6656563999406 L601.3764378262651,635.8321967360512 M601.3764378262651,635.8321967360512 L602.9337834519819,634.7488453155759 M602.9337834519819,634.7488453155759 L604.3332282773456,633.4246701763518 M604.3332282773456,633.4246701763518 L605.5621259182619,631.8709025776498 M605.5621259182619,631.8709025776498 L606.609301710392,630.1008555879234 M606.609301710392,630.1008555879234 L607.4651531557971,628.129813155432 M607.4651531557971,628.129813155432 L608.1217640022766,625.9749155393777 M608.1217640022766,625.9749155393777 L608.5729671928244,623.6550037524539 M608.5729671928244,623.6550037524539 L608.8144346315851,621.1904689516263 M608.8144346315851,621.1904689516263 L608.8437080658539,618.6030627913397 M608.8437080658539,618.6030627913397 L608.6602513252851,615.9157130304291 M608.6602513252851,615.9157130304291 L608.2654527410768,613.1523086078741 M608.2654527410768,613.1523086078741 L607.6626186642518,610.3374796559734 M607.6626186642518,610.3374796559734 L606.8569660714463,607.4963762402108 M606.8569660714463,607.4963762402108 L605.8555638979059,604.6544257421128 M605.8555638979059,604.6544257421128 L604.6672770599652,601.8370958457776 M604.6672770599652,601.8370958457776 L603.3026881522169,599.0696520447464 M603.3026881522169,599.0696520447464 L601.7739987458006,596.3769195700446 M601.7739987458006,596.3769195700446 L600.0949107265313,593.7830441342294 M600.0949107265313,593.7830441342294 L598.2805014291226,591.3112625241754 M598.2805014291226,591.3112625241754 L596.347077976188,588.9836925584527 M596.347077976188,588.9836925584527 L594.3120198582031,586.8211069729805 M594.3120198582031,586.8211069729805 L592.1936131770457,584.8427557132887 M592.1936131770457,584.8427557132887 L590.0108768734927,583.0661782605735 M590.0108768734927,583.0661782605735 L587.7833777622391,581.5070474730026 M587.7833777622391,581.5070474730026 L585.5310497262965,580.1790290753145" stroke="black"  stroke-width="4"  fill="red"/></svg>